<svg width="32" height="32" viewBox="0 0 32 32" fill="none" xmlns="http://www.w3.org/2000/svg">
<path d="M12.2012 8.46094L28.5625 24.8223C29.7091 25.9689 29.7091 27.828 28.5625 28.9746C27.4159 30.1212 25.5568 30.1212 24.4102 28.9746L8.04883 12.6133L12.2012 8.46094Z" fill="#A3796E"/>
<path d="M12.2012 8.46094L28.5625 24.8223C29.7091 25.9689 29.7091 27.828 28.5625 28.9746C27.4159 30.1212 25.5568 30.1212 24.4102 28.9746L8.04883 12.6133L12.2012 8.46094Z" fill="url(#paint0_linear_18_23767)"/>
<path d="M12.2012 8.46094L28.5625 24.8223C29.7091 25.9689 29.7091 27.828 28.5625 28.9746C27.4159 30.1212 25.5568 30.1212 24.4102 28.9746L8.04883 12.6133L12.2012 8.46094Z" fill="url(#paint1_linear_18_23767)"/>
<path d="M12.2012 8.46094L28.5625 24.8223C29.7091 25.9689 29.7091 27.828 28.5625 28.9746C27.4159 30.1212 25.5568 30.1212 24.4102 28.9746L8.04883 12.6133L12.2012 8.46094Z" fill="url(#paint2_linear_18_23767)"/>
<path d="M12.2012 8.46094L28.5625 24.8223C29.7091 25.9689 29.7091 27.828 28.5625 28.9746C27.4159 30.1212 25.5568 30.1212 24.4102 28.9746L8.04883 12.6133L12.2012 8.46094Z" fill="url(#paint3_linear_18_23767)"/>
<path d="M12.2012 8.46094L28.5625 24.8223C29.7091 25.9689 29.7091 27.828 28.5625 28.9746C27.4159 30.1212 25.5568 30.1212 24.4102 28.9746L8.04883 12.6133L12.2012 8.46094Z" fill="url(#paint4_linear_18_23767)"/>
<path d="M12.2012 8.46094L28.5625 24.8223C29.7091 25.9689 29.7091 27.828 28.5625 28.9746C27.4159 30.1212 25.5568 30.1212 24.4102 28.9746L8.04883 12.6133L12.2012 8.46094Z" fill="url(#paint5_linear_18_23767)"/>
<path d="M11.7278 11.8945C11.4288 11.5955 12.0187 10.5208 12.3177 10.2218C12.6167 9.92281 13.1014 9.92281 13.4004 10.2218L28.297 25.1183C28.596 25.4173 28.596 25.9021 28.297 26.2011C27.998 26.5001 26.9233 27.09 26.6243 26.791L11.7278 11.8945Z" fill="url(#paint6_radial_18_23767)"/>
<path d="M11.7278 11.8945C11.4288 11.5955 12.0187 10.5208 12.3177 10.2218C12.6167 9.92281 13.1014 9.92281 13.4004 10.2218L28.297 25.1183C28.596 25.4173 28.596 25.9021 28.297 26.2011C27.998 26.5001 26.9233 27.09 26.6243 26.791L11.7278 11.8945Z" fill="url(#paint7_radial_18_23767)"/>
<path d="M11.7278 11.8945C11.4288 11.5955 12.0187 10.5208 12.3177 10.2218C12.6167 9.92281 13.1014 9.92281 13.4004 10.2218L28.297 25.1183C28.596 25.4173 28.596 25.9021 28.297 26.2011C27.998 26.5001 26.9233 27.09 26.6243 26.791L11.7278 11.8945Z" fill="url(#paint8_radial_18_23767)"/>
<path d="M2.74017 11.2812C3.45372 10.5677 4.31106 10.7732 5.23441 11.2311C5.41067 11.3186 5.56886 11.438 5.70798 11.5772L8.55096 14.4201C8.6507 14.5199 8.7412 14.6291 8.81187 14.7511C9.37973 15.7319 9.41578 16.715 8.84174 17.289L7.73729 18.3623C7.63966 18.4599 7.48136 18.4599 7.38373 18.3623L1.70604 12.6846C1.6084 12.587 1.6084 12.4287 1.70604 12.331L2.74017 11.2812Z" fill="#ADA9B9"/>
<path d="M2.74017 11.2812C3.45372 10.5677 4.31106 10.7732 5.23441 11.2311C5.41067 11.3186 5.56886 11.438 5.70798 11.5772L8.55096 14.4201C8.6507 14.5199 8.7412 14.6291 8.81187 14.7511C9.37973 15.7319 9.41578 16.715 8.84174 17.289L7.73729 18.3623C7.63966 18.4599 7.48136 18.4599 7.38373 18.3623L1.70604 12.6846C1.6084 12.587 1.6084 12.4287 1.70604 12.331L2.74017 11.2812Z" fill="url(#paint9_radial_18_23767)"/>
<path d="M2.74017 11.2812C3.45372 10.5677 4.31106 10.7732 5.23441 11.2311C5.41067 11.3186 5.56886 11.438 5.70798 11.5772L8.55096 14.4201C8.6507 14.5199 8.7412 14.6291 8.81187 14.7511C9.37973 15.7319 9.41578 16.715 8.84174 17.289L7.73729 18.3623C7.63966 18.4599 7.48136 18.4599 7.38373 18.3623L1.70604 12.6846C1.6084 12.587 1.6084 12.4287 1.70604 12.331L2.74017 11.2812Z" fill="url(#paint10_radial_18_23767)"/>
<path d="M2.74017 11.2812C3.45372 10.5677 4.31106 10.7732 5.23441 11.2311C5.41067 11.3186 5.56886 11.438 5.70798 11.5772L8.55096 14.4201C8.6507 14.5199 8.7412 14.6291 8.81187 14.7511C9.37973 15.7319 9.41578 16.715 8.84174 17.289L7.73729 18.3623C7.63966 18.4599 7.48136 18.4599 7.38373 18.3623L1.70604 12.6846C1.6084 12.587 1.6084 12.4287 1.70604 12.331L2.74017 11.2812Z" fill="url(#paint11_radial_18_23767)"/>
<path d="M2.74017 11.2812C3.45372 10.5677 4.31106 10.7732 5.23441 11.2311C5.41067 11.3186 5.56886 11.438 5.70798 11.5772L8.55096 14.4201C8.6507 14.5199 8.7412 14.6291 8.81187 14.7511C9.37973 15.7319 9.41578 16.715 8.84174 17.289L7.73729 18.3623C7.63966 18.4599 7.48136 18.4599 7.38373 18.3623L1.70604 12.6846C1.6084 12.587 1.6084 12.4287 1.70604 12.331L2.74017 11.2812Z" fill="url(#paint12_radial_18_23767)"/>
<path d="M2.74017 11.2812C3.45372 10.5677 4.31106 10.7732 5.23441 11.2311C5.41067 11.3186 5.56886 11.438 5.70798 11.5772L8.55096 14.4201C8.6507 14.5199 8.7412 14.6291 8.81187 14.7511C9.37973 15.7319 9.41578 16.715 8.84174 17.289L7.73729 18.3623C7.63966 18.4599 7.48136 18.4599 7.38373 18.3623L1.70604 12.6846C1.6084 12.587 1.6084 12.4287 1.70604 12.331L2.74017 11.2812Z" fill="url(#paint13_linear_18_23767)"/>
<path d="M2.74017 11.2812C3.45372 10.5677 4.31106 10.7732 5.23441 11.2311C5.41067 11.3186 5.56886 11.438 5.70798 11.5772L8.55096 14.4201C8.6507 14.5199 8.7412 14.6291 8.81187 14.7511C9.37973 15.7319 9.41578 16.715 8.84174 17.289L7.73729 18.3623C7.63966 18.4599 7.48136 18.4599 7.38373 18.3623L1.70604 12.6846C1.6084 12.587 1.6084 12.4287 1.70604 12.331L2.74017 11.2812Z" fill="url(#paint14_linear_18_23767)"/>
<path d="M2.74017 11.2812C3.45372 10.5677 4.31106 10.7732 5.23441 11.2311C5.41067 11.3186 5.56886 11.438 5.70798 11.5772L8.55096 14.4201C8.6507 14.5199 8.7412 14.6291 8.81187 14.7511C9.37973 15.7319 9.41578 16.715 8.84174 17.289L7.73729 18.3623C7.63966 18.4599 7.48136 18.4599 7.38373 18.3623L1.70604 12.6846C1.6084 12.587 1.6084 12.4287 1.70604 12.331L2.74017 11.2812Z" fill="url(#paint15_linear_18_23767)"/>
<path d="M13.1599 7.16728C12.9653 7.36267 12.9657 7.67867 13.1606 7.87364L15.301 10.014C15.4572 10.1702 15.4572 10.4235 15.301 10.5797L10.1558 15.725C9.99959 15.8812 9.74629 15.8812 9.5901 15.725L4.95015 11.085C4.65724 10.7921 4.65724 10.3173 4.95015 10.0243L11.5069 3.46761C11.9224 3.05209 12.4997 2.84033 13.0853 2.8886L16.2335 3.14803C16.5727 3.17599 16.7243 3.58776 16.4841 3.82891L13.1599 7.16728Z" fill="#CAC3DA"/>
<path d="M13.1599 7.16728C12.9653 7.36267 12.9657 7.67867 13.1606 7.87364L15.301 10.014C15.4572 10.1702 15.4572 10.4235 15.301 10.5797L10.1558 15.725C9.99959 15.8812 9.74629 15.8812 9.5901 15.725L4.95015 11.085C4.65724 10.7921 4.65724 10.3173 4.95015 10.0243L11.5069 3.46761C11.9224 3.05209 12.4997 2.84033 13.0853 2.8886L16.2335 3.14803C16.5727 3.17599 16.7243 3.58776 16.4841 3.82891L13.1599 7.16728Z" fill="url(#paint16_linear_18_23767)"/>
<path d="M13.1599 7.16728C12.9653 7.36267 12.9657 7.67867 13.1606 7.87364L15.301 10.014C15.4572 10.1702 15.4572 10.4235 15.301 10.5797L10.1558 15.725C9.99959 15.8812 9.74629 15.8812 9.5901 15.725L4.95015 11.085C4.65724 10.7921 4.65724 10.3173 4.95015 10.0243L11.5069 3.46761C11.9224 3.05209 12.4997 2.84033 13.0853 2.8886L16.2335 3.14803C16.5727 3.17599 16.7243 3.58776 16.4841 3.82891L13.1599 7.16728Z" fill="url(#paint17_linear_18_23767)"/>
<path d="M13.1599 7.16728C12.9653 7.36267 12.9657 7.67867 13.1606 7.87364L15.301 10.014C15.4572 10.1702 15.4572 10.4235 15.301 10.5797L10.1558 15.725C9.99959 15.8812 9.74629 15.8812 9.5901 15.725L4.95015 11.085C4.65724 10.7921 4.65724 10.3173 4.95015 10.0243L11.5069 3.46761C11.9224 3.05209 12.4997 2.84033 13.0853 2.8886L16.2335 3.14803C16.5727 3.17599 16.7243 3.58776 16.4841 3.82891L13.1599 7.16728Z" fill="url(#paint18_radial_18_23767)"/>
<path d="M13.1599 7.16728C12.9653 7.36267 12.9657 7.67867 13.1606 7.87364L15.301 10.014C15.4572 10.1702 15.4572 10.4235 15.301 10.5797L10.1558 15.725C9.99959 15.8812 9.74629 15.8812 9.5901 15.725L4.95015 11.085C4.65724 10.7921 4.65724 10.3173 4.95015 10.0243L11.5069 3.46761C11.9224 3.05209 12.4997 2.84033 13.0853 2.8886L16.2335 3.14803C16.5727 3.17599 16.7243 3.58776 16.4841 3.82891L13.1599 7.16728Z" fill="url(#paint19_radial_18_23767)" fill-opacity="0.19"/>
<path d="M13.1599 7.16728C12.9653 7.36267 12.9657 7.67867 13.1606 7.87364L15.301 10.014C15.4572 10.1702 15.4572 10.4235 15.301 10.5797L10.1558 15.725C9.99959 15.8812 9.74629 15.8812 9.5901 15.725L4.95015 11.085C4.65724 10.7921 4.65724 10.3173 4.95015 10.0243L11.5069 3.46761C11.9224 3.05209 12.4997 2.84033 13.0853 2.8886L16.2335 3.14803C16.5727 3.17599 16.7243 3.58776 16.4841 3.82891L13.1599 7.16728Z" fill="url(#paint20_linear_18_23767)"/>
<path d="M13.1599 7.16728C12.9653 7.36267 12.9657 7.67867 13.1606 7.87364L15.301 10.014C15.4572 10.1702 15.4572 10.4235 15.301 10.5797L10.1558 15.725C9.99959 15.8812 9.74629 15.8812 9.5901 15.725L4.95015 11.085C4.65724 10.7921 4.65724 10.3173 4.95015 10.0243L11.5069 3.46761C11.9224 3.05209 12.4997 2.84033 13.0853 2.8886L16.2335 3.14803C16.5727 3.17599 16.7243 3.58776 16.4841 3.82891L13.1599 7.16728Z" fill="url(#paint21_radial_18_23767)"/>
<path d="M13.1599 7.16728C12.9653 7.36267 12.9657 7.67867 13.1606 7.87364L15.301 10.014C15.4572 10.1702 15.4572 10.4235 15.301 10.5797L10.1558 15.725C9.99959 15.8812 9.74629 15.8812 9.5901 15.725L4.95015 11.085C4.65724 10.7921 4.65724 10.3173 4.95015 10.0243L11.5069 3.46761C11.9224 3.05209 12.4997 2.84033 13.0853 2.8886L16.2335 3.14803C16.5727 3.17599 16.7243 3.58776 16.4841 3.82891L13.1599 7.16728Z" fill="url(#paint22_radial_18_23767)"/>
<path d="M6.69239 12.7994C6.47556 12.5933 6.48699 12.2442 6.71683 12.0528L12.1911 7.49273C12.3916 7.32571 12.6869 7.34098 12.8691 7.5278L15.2447 9.96365C15.4353 10.1591 15.4339 10.4712 15.2416 10.665L10.3463 15.5971C10.1547 15.7901 9.84403 15.7946 9.64693 15.6073L6.69239 12.7994Z" fill="url(#paint23_linear_18_23767)"/>
<path d="M6.69239 12.7994C6.47556 12.5933 6.48699 12.2442 6.71683 12.0528L12.1911 7.49273C12.3916 7.32571 12.6869 7.34098 12.8691 7.5278L15.2447 9.96365C15.4353 10.1591 15.4339 10.4712 15.2416 10.665L10.3463 15.5971C10.1547 15.7901 9.84403 15.7946 9.64693 15.6073L6.69239 12.7994Z" fill="url(#paint24_linear_18_23767)" fill-opacity="0.94"/>
<path d="M6.69239 12.7994C6.47556 12.5933 6.48699 12.2442 6.71683 12.0528L12.1911 7.49273C12.3916 7.32571 12.6869 7.34098 12.8691 7.5278L15.2447 9.96365C15.4353 10.1591 15.4339 10.4712 15.2416 10.665L10.3463 15.5971C10.1547 15.7901 9.84403 15.7946 9.64693 15.6073L6.69239 12.7994Z" fill="url(#paint25_linear_18_23767)"/>
<path d="M6.69239 12.7994C6.47556 12.5933 6.48699 12.2442 6.71683 12.0528L12.1911 7.49273C12.3916 7.32571 12.6869 7.34098 12.8691 7.5278L15.2447 9.96365C15.4353 10.1591 15.4339 10.4712 15.2416 10.665L10.3463 15.5971C10.1547 15.7901 9.84403 15.7946 9.64693 15.6073L6.69239 12.7994Z" fill="url(#paint26_linear_18_23767)"/>
<defs>
<linearGradient id="paint0_linear_18_23767" x1="30.5059" y1="27.6875" x2="26.1621" y2="23.3437" gradientUnits="userSpaceOnUse">
<stop offset="0.064748" stop-color="#7F494F"/>
<stop offset="1" stop-color="#7F494F" stop-opacity="0"/>
</linearGradient>
<linearGradient id="paint1_linear_18_23767" x1="17.8809" y1="21.4062" x2="21.4434" y2="17.7187" gradientUnits="userSpaceOnUse">
<stop offset="0.0577084" stop-color="#733464"/>
<stop offset="1" stop-color="#7C425A" stop-opacity="0"/>
</linearGradient>
<linearGradient id="paint2_linear_18_23767" x1="17.4337" y1="23.4025" x2="18.3391" y2="22.4897" gradientUnits="userSpaceOnUse">
<stop offset="0.546875" stop-color="#A462BC"/>
<stop offset="1" stop-color="#A462BC" stop-opacity="0"/>
</linearGradient>
<linearGradient id="paint3_linear_18_23767" x1="27.1727" y1="31.8311" x2="26.5912" y2="29.5272" gradientUnits="userSpaceOnUse">
<stop offset="0.546875" stop-color="#A462BC"/>
<stop offset="1" stop-color="#A462BC" stop-opacity="0"/>
</linearGradient>
<linearGradient id="paint4_linear_18_23767" x1="25.4409" y1="31.327" x2="25.9307" y2="29.4061" gradientUnits="userSpaceOnUse">
<stop offset="0.546875" stop-color="#A462BC"/>
<stop offset="1" stop-color="#A462BC" stop-opacity="0"/>
</linearGradient>
<linearGradient id="paint5_linear_18_23767" x1="30.6457" y1="29.8963" x2="28.8414" y2="28.2025" gradientUnits="userSpaceOnUse">
<stop offset="0.6646" stop-color="#A462BC"/>
<stop offset="1" stop-color="#A462BC" stop-opacity="0"/>
</linearGradient>
<radialGradient id="paint6_radial_18_23767" cx="0" cy="0" r="1" gradientUnits="userSpaceOnUse" gradientTransform="translate(16.1692 13.8951) rotate(135) scale(1.58748 6.95935)">
<stop stop-color="#9B7775"/>
<stop offset="1" stop-color="#9B7775" stop-opacity="0"/>
</radialGradient>
<radialGradient id="paint7_radial_18_23767" cx="0" cy="0" r="1" gradientUnits="userSpaceOnUse" gradientTransform="translate(19.9266 17.746) rotate(137.49) scale(1.52277 6.67568)">
<stop stop-color="#9B7775"/>
<stop offset="1" stop-color="#9B7775" stop-opacity="0"/>
</radialGradient>
<radialGradient id="paint8_radial_18_23767" cx="0" cy="0" r="1" gradientUnits="userSpaceOnUse" gradientTransform="translate(24.3855 22.0801) rotate(136.909) scale(1.32364 5.80268)">
<stop stop-color="#9B7775"/>
<stop offset="1" stop-color="#9B7775" stop-opacity="0"/>
</radialGradient>
<radialGradient id="paint9_radial_18_23767" cx="0" cy="0" r="1" gradientUnits="userSpaceOnUse" gradientTransform="translate(5.44409 16.3339) rotate(-45.6098) scale(3.0824 3.08321)">
<stop stop-color="#CABFDD"/>
<stop offset="1" stop-color="#CABFDD" stop-opacity="0"/>
</radialGradient>
<radialGradient id="paint10_radial_18_23767" cx="0" cy="0" r="1" gradientUnits="userSpaceOnUse" gradientTransform="translate(4.72455 15.6875) rotate(-47.332) scale(4.8875 11.3328)">
<stop offset="0.599497" stop-color="#BBB9C3" stop-opacity="0"/>
<stop offset="0.775721" stop-color="#8C889A"/>
</radialGradient>
<radialGradient id="paint11_radial_18_23767" cx="0" cy="0" r="1" gradientUnits="userSpaceOnUse" gradientTransform="translate(6.53705 13.6875) rotate(131.009) scale(1.90497 5.84349)">
<stop stop-color="#DED9EA"/>
<stop offset="1" stop-color="#CAC1DC" stop-opacity="0"/>
</radialGradient>
<radialGradient id="paint12_radial_18_23767" cx="0" cy="0" r="1" gradientUnits="userSpaceOnUse" gradientTransform="translate(7.72455 13.5) rotate(-177.818) scale(6.56726 8.47243)">
<stop offset="0.547233" stop-color="#8F8C98" stop-opacity="0"/>
<stop offset="1" stop-color="#8F8C98"/>
</radialGradient>
<linearGradient id="paint13_linear_18_23767" x1="5.44409" y1="16.6805" x2="6.09284" y2="16.0587" gradientUnits="userSpaceOnUse">
<stop stop-color="#8D8A97"/>
<stop offset="1" stop-color="#8D8A97" stop-opacity="0"/>
</linearGradient>
<linearGradient id="paint14_linear_18_23767" x1="8.70658" y1="17.9529" x2="8.21336" y2="17.4423" gradientUnits="userSpaceOnUse">
<stop stop-color="#8D8A97"/>
<stop offset="1" stop-color="#8D8A97" stop-opacity="0"/>
</linearGradient>
<linearGradient id="paint15_linear_18_23767" x1="9.58606" y1="16.7032" x2="9.03464" y2="16.7501" gradientUnits="userSpaceOnUse">
<stop stop-color="#8D8A97"/>
<stop offset="1" stop-color="#8D8A97" stop-opacity="0"/>
</linearGradient>
<linearGradient id="paint16_linear_18_23767" x1="6.63976" y1="5.07263" x2="9.58679" y2="7.62834" gradientUnits="userSpaceOnUse">
<stop offset="0.479167" stop-color="#898698" stop-opacity="0.57"/>
<stop offset="0.744792" stop-color="#898698" stop-opacity="0"/>
</linearGradient>
<linearGradient id="paint17_linear_18_23767" x1="7.36424" y1="14.5309" x2="8.82308" y2="12.9868" gradientUnits="userSpaceOnUse">
<stop offset="0.479167" stop-color="#898698" stop-opacity="0.57"/>
<stop offset="0.744792" stop-color="#898698" stop-opacity="0"/>
</linearGradient>
<radialGradient id="paint18_radial_18_23767" cx="0" cy="0" r="1" gradientUnits="userSpaceOnUse" gradientTransform="translate(16.3277 6.02771) rotate(-134.433) scale(3.0583 7.62358)">
<stop offset="0.479167" stop-color="#898698" stop-opacity="0.57"/>
<stop offset="0.744792" stop-color="#898698" stop-opacity="0"/>
</radialGradient>
<radialGradient id="paint19_radial_18_23767" cx="0" cy="0" r="1" gradientUnits="userSpaceOnUse" gradientTransform="translate(4.73047 10.8911) rotate(-70.5545) scale(1.72124 1.57654)">
<stop stop-color="#898698" stop-opacity="0.57"/>
<stop offset="0.744792" stop-color="#898698" stop-opacity="0"/>
<stop offset="0.992243" stop-color="#898698" stop-opacity="0"/>
</radialGradient>
<linearGradient id="paint20_linear_18_23767" x1="14.4026" y1="3.08556" x2="14.3054" y2="4.31646" gradientUnits="userSpaceOnUse">
<stop stop-color="#CCCCD3"/>
<stop offset="1" stop-color="#CCCCD3" stop-opacity="0"/>
</linearGradient>
<radialGradient id="paint21_radial_18_23767" cx="0" cy="0" r="1" gradientUnits="userSpaceOnUse" gradientTransform="translate(16.0222 3.70101) rotate(136.759) scale(1.67855 0.33786)">
<stop stop-color="#DFDDE8"/>
<stop offset="1" stop-color="#CCC9D6" stop-opacity="0"/>
</radialGradient>
<radialGradient id="paint22_radial_18_23767" cx="0" cy="0" r="1" gradientUnits="userSpaceOnUse" gradientTransform="translate(15.7631 8.75417) rotate(145.582) scale(4.24076 3.38815)">
<stop offset="0.200856" stop-color="#ECEAF4"/>
<stop offset="1" stop-color="#ECEAF4" stop-opacity="0"/>
</radialGradient>
<linearGradient id="paint23_linear_18_23767" x1="14.4134" y1="9.39188" x2="9.08755" y2="15.3288" gradientUnits="userSpaceOnUse">
<stop stop-color="#EDEAF7" stop-opacity="0.29"/>
<stop offset="0.9999" stop-color="#AFAABF"/>
<stop offset="1" stop-color="#A89ABE" stop-opacity="0.6"/>
</linearGradient>
<linearGradient id="paint24_linear_18_23767" x1="8.85822" y1="9.3138" x2="10.2012" y2="10.6803" gradientUnits="userSpaceOnUse">
<stop offset="0.307292" stop-color="#CDC3DA"/>
<stop offset="0.817708" stop-color="#B2ADC0" stop-opacity="0.31"/>
<stop offset="1" stop-color="#B2ADC0" stop-opacity="0"/>
</linearGradient>
<linearGradient id="paint25_linear_18_23767" x1="7.97386" y1="14.5696" x2="8.86773" y2="13.736" gradientUnits="userSpaceOnUse">
<stop offset="0.421875" stop-color="#A5A0B5"/>
<stop offset="0.802083" stop-color="#A5A0B5" stop-opacity="0"/>
</linearGradient>
<linearGradient id="paint26_linear_18_23767" x1="13.3272" y1="14.0263" x2="12.0359" y2="12.4201" gradientUnits="userSpaceOnUse">
<stop offset="0.421875" stop-color="#A5A0B5"/>
<stop offset="0.802083" stop-color="#A5A0B5" stop-opacity="0"/>
</linearGradient>
</defs>
</svg>
