<svg width="150" height="150" viewBox="0 0 150 150" fill="none" xmlns="http://www.w3.org/2000/svg">
<g clip-path="url(#clip0_4298_110338)">
<path fill-rule="evenodd" clip-rule="evenodd" d="M73.5 116.2C73.5 110 79.1 105.3 84.9 105.3H97.2C102.2 105.3 106 101.2 106 96.4999V83.8999C106 78.8999 101.9 75.0999 97.2 75.0999H84.1C77.9 75.0999 73.2 69.4999 73.2 63.6999V50.4999C73.2 44.2999 78.8 39.5999 84.6 39.5999H97.2C102.2 39.5999 106 35.7999 106 30.7999V18.1999C106 13.1999 101.9 9.3999 97.2 9.3999H85C80 9.3999 76.2 13.4999 76.2 18.1999V30.7999C76.2 36.6999 71.5 42.1999 65.3 42.1999H52.1C47.1 42.1999 43 46.2999 43 50.9999V63.5999C43 68.5999 47.1 72.3999 52.1 72.3999H64.7C70.6 72.3999 76.1 77.0999 76.1 83.2999V96.7999C76.1 102.7 71.4 108.2 65.2 108.2H52.1C47.1 108.2 43 112.3 43 117V129.3C43 134.3 47.1 138.4 52.1 138.4H64.7C69.7 138.4 73.8 134.3 73.8 129.3V116.1H73.5V116.2Z" fill="#DE2728"/>
</g>
<defs>
<clipPath id="clip0_4298_110338">
<rect width="150" height="150" fill="white"/>
</clipPath>
</defs>
</svg>
