<svg width="72" height="72" viewBox="0 0 72 72" fill="none" xmlns="http://www.w3.org/2000/svg">
<path fill-rule="evenodd" clip-rule="evenodd" d="M62.9522 43.3847C62.117 29.2248 50.3692 17.9995 35.9997 17.9995C21.6301 17.9995 9.88236 29.2248 9.04712 43.3847C9.09564 43.9948 9.19372 44.4448 9.392 44.8339C9.73715 45.5113 10.2879 46.062 10.9653 46.4072C11.6881 46.7755 12.6206 46.7981 14.3996 46.7995V44.9995C14.3996 33.0702 24.0703 23.3995 35.9997 23.3995C47.929 23.3995 57.5997 33.0702 57.5997 44.9995V46.7995C59.3787 46.7981 60.3112 46.7755 61.0341 46.4072C61.7114 46.062 62.2622 45.5113 62.6073 44.8339C62.8056 44.4448 62.9037 43.9948 62.9522 43.3847Z" fill="#0091FF"/>
<path fill-rule="evenodd" clip-rule="evenodd" d="M35.9997 30.5997C28.0468 30.5997 21.5997 37.0468 21.5997 44.9997V46.7997H16.1997V44.9997C16.1997 34.0645 25.0645 25.1997 35.9997 25.1997C46.935 25.1997 55.7998 34.0645 55.7998 44.9997V46.7997H50.3998V44.9997C50.3998 37.0468 43.9526 30.5997 35.9997 30.5997Z" fill="#46A758"/>
<path fill-rule="evenodd" clip-rule="evenodd" d="M48.5997 46.7999V44.9999C48.5997 38.0411 42.9585 32.3999 35.9997 32.3999C29.0409 32.3999 23.3997 38.0411 23.3997 44.9999V46.7999H26.9997C27.9938 46.7999 28.7997 45.994 28.7997 44.9999C28.7997 41.0235 32.0232 37.7999 35.9997 37.7999C39.9761 37.7999 43.1997 41.0235 43.1997 44.9999C43.1997 45.994 44.0056 46.7999 44.9997 46.7999H48.5997Z" fill="#E54D2E"/>
</svg>
