<svg width="72" height="72" viewBox="0 0 72 72" fill="none" xmlns="http://www.w3.org/2000/svg">
<path d="M40.8233 61.6833C38.0233 62.1833 35.3233 60.3833 34.8233 57.5833L27.1233 16.0833C26.6233 13.2833 28.4233 10.5833 31.2233 10.0833C34.0233 9.58327 36.7233 11.3833 37.2233 14.1833L44.8233 55.6833C45.4233 58.4833 43.5233 61.1833 40.8233 61.6833Z" fill="#FF5543"/>
<path d="M20.9232 54.6831C19.2232 54.9831 17.3232 54.3831 16.1232 52.9831C14.3232 50.7831 14.5232 47.5831 16.7232 45.7831L48.8232 18.4831C51.0232 16.6831 54.2232 16.8831 56.0232 19.0831C57.8232 21.2831 57.6232 24.4831 55.4232 26.2831L23.3232 53.4831C22.6232 54.0831 21.7232 54.4831 20.9232 54.6831Z" fill="#A112FF"/>
<path d="M56.8232 47.9834C55.9232 48.1834 55.0232 48.0834 54.2232 47.7834L14.4232 33.6834C11.7232 32.6834 10.3232 29.7834 11.3232 27.0834C12.3232 24.3834 15.2232 22.9834 17.9232 23.9834L57.6232 38.1834C60.3232 39.1834 61.7232 42.0834 60.7232 44.7834C60.1232 46.4834 58.5232 47.6834 56.8232 47.9834Z" fill="#00CBEC"/>
</svg>
