<svg width="32" height="32" viewBox="0 0 32 32" fill="none" xmlns="http://www.w3.org/2000/svg">
<path d="M13.0506 3.33098C14.5818 1.60735 16.6637 1.88168 17.9959 3.33098L18.8083 4.27159C19.0896 4.57764 19.4967 4.73634 19.9109 4.70146L21.3553 4.27159C23.324 3.84954 25.1131 5.31829 25.1131 7.59954V8.45892C25.1548 8.92804 25.5646 9.24606 25.9878 9.45274L27.2928 9.99799C29.1804 10.9199 29.6521 13.1074 28.2771 14.9433L27.8865 15.4589C27.5361 15.9326 27.6081 16.5543 27.9568 17.0292L28.3474 17.5761C29.7693 19.3261 28.9676 21.727 26.9592 22.5659L25.8358 23.035C25.4127 23.2117 25.2469 23.5151 25.1678 23.9667L25.0896 25.4355C24.8162 27.4511 23.026 28.3615 21.5896 28.1581L19.8787 27.7011C19.4678 27.6429 18.9568 27.7792 18.6834 28.2089L18.0662 29.0527C16.5349 30.7792 14.4682 30.4922 13.4256 29.4824L12.287 28.1035C11.9889 27.8147 11.6131 27.5683 11.1632 27.7381L9.4412 28.2089C8.01952 28.4102 6.34548 27.3173 6.07754 25.9067L5.8787 23.8652C5.79799 23.4403 5.51778 23.0801 5.12576 22.8974L3.91777 22.4824C2.10124 21.6359 1.49282 19.5865 2.53583 17.8752L3.21668 16.9336C3.49015 16.4849 3.47715 15.918 3.18339 15.4824L2.67558 14.7636C1.23811 12.7167 2.23197 10.4289 4.36208 9.74301L4.83188 9.59174C5.35041 9.42477 5.85128 8.99415 5.89438 8.45111L5.99899 7.13286C6.1688 4.99312 8.12132 3.76531 10.175 4.38963L10.8396 4.59168C11.4803 4.84168 11.9822 4.62878 12.3318 4.24793L13.0506 3.33098Z" fill="url(#paint0_linear_48405_237)"/>
<path d="M13.0506 3.33098C14.5818 1.60735 16.6637 1.88168 17.9959 3.33098L18.8083 4.27159C19.0896 4.57764 19.4967 4.73634 19.9109 4.70146L21.3553 4.27159C23.324 3.84954 25.1131 5.31829 25.1131 7.59954V8.45892C25.1548 8.92804 25.5646 9.24606 25.9878 9.45274L27.2928 9.99799C29.1804 10.9199 29.6521 13.1074 28.2771 14.9433L27.8865 15.4589C27.5361 15.9326 27.6081 16.5543 27.9568 17.0292L28.3474 17.5761C29.7693 19.3261 28.9676 21.727 26.9592 22.5659L25.8358 23.035C25.4127 23.2117 25.2469 23.5151 25.1678 23.9667L25.0896 25.4355C24.8162 27.4511 23.026 28.3615 21.5896 28.1581L19.8787 27.7011C19.4678 27.6429 18.9568 27.7792 18.6834 28.2089L18.0662 29.0527C16.5349 30.7792 14.4682 30.4922 13.4256 29.4824L12.287 28.1035C11.9889 27.8147 11.6131 27.5683 11.1632 27.7381L9.4412 28.2089C8.01952 28.4102 6.34548 27.3173 6.07754 25.9067L5.8787 23.8652C5.79799 23.4403 5.51778 23.0801 5.12576 22.8974L3.91777 22.4824C2.10124 21.6359 1.49282 19.5865 2.53583 17.8752L3.21668 16.9336C3.49015 16.4849 3.47715 15.918 3.18339 15.4824L2.67558 14.7636C1.23811 12.7167 2.23197 10.4289 4.36208 9.74301L4.83188 9.59174C5.35041 9.42477 5.85128 8.99415 5.89438 8.45111L5.99899 7.13286C6.1688 4.99312 8.12132 3.76531 10.175 4.38963L10.8396 4.59168C11.4803 4.84168 11.9822 4.62878 12.3318 4.24793L13.0506 3.33098Z" fill="url(#paint1_radial_48405_237)"/>
<path d="M13.0506 3.33098C14.5818 1.60735 16.6637 1.88168 17.9959 3.33098L18.8083 4.27159C19.0896 4.57764 19.4967 4.73634 19.9109 4.70146L21.3553 4.27159C23.324 3.84954 25.1131 5.31829 25.1131 7.59954V8.45892C25.1548 8.92804 25.5646 9.24606 25.9878 9.45274L27.2928 9.99799C29.1804 10.9199 29.6521 13.1074 28.2771 14.9433L27.8865 15.4589C27.5361 15.9326 27.6081 16.5543 27.9568 17.0292L28.3474 17.5761C29.7693 19.3261 28.9676 21.727 26.9592 22.5659L25.8358 23.035C25.4127 23.2117 25.2469 23.5151 25.1678 23.9667L25.0896 25.4355C24.8162 27.4511 23.026 28.3615 21.5896 28.1581L19.8787 27.7011C19.4678 27.6429 18.9568 27.7792 18.6834 28.2089L18.0662 29.0527C16.5349 30.7792 14.4682 30.4922 13.4256 29.4824L12.287 28.1035C11.9889 27.8147 11.6131 27.5683 11.1632 27.7381L9.4412 28.2089C8.01952 28.4102 6.34548 27.3173 6.07754 25.9067L5.8787 23.8652C5.79799 23.4403 5.51778 23.0801 5.12576 22.8974L3.91777 22.4824C2.10124 21.6359 1.49282 19.5865 2.53583 17.8752L3.21668 16.9336C3.49015 16.4849 3.47715 15.918 3.18339 15.4824L2.67558 14.7636C1.23811 12.7167 2.23197 10.4289 4.36208 9.74301L4.83188 9.59174C5.35041 9.42477 5.85128 8.99415 5.89438 8.45111L5.99899 7.13286C6.1688 4.99312 8.12132 3.76531 10.175 4.38963L10.8396 4.59168C11.4803 4.84168 11.9822 4.62878 12.3318 4.24793L13.0506 3.33098Z" fill="url(#paint2_radial_48405_237)"/>
<path d="M13.0506 3.33098C14.5818 1.60735 16.6637 1.88168 17.9959 3.33098L18.8083 4.27159C19.0896 4.57764 19.4967 4.73634 19.9109 4.70146L21.3553 4.27159C23.324 3.84954 25.1131 5.31829 25.1131 7.59954V8.45892C25.1548 8.92804 25.5646 9.24606 25.9878 9.45274L27.2928 9.99799C29.1804 10.9199 29.6521 13.1074 28.2771 14.9433L27.8865 15.4589C27.5361 15.9326 27.6081 16.5543 27.9568 17.0292L28.3474 17.5761C29.7693 19.3261 28.9676 21.727 26.9592 22.5659L25.8358 23.035C25.4127 23.2117 25.2469 23.5151 25.1678 23.9667L25.0896 25.4355C24.8162 27.4511 23.026 28.3615 21.5896 28.1581L19.8787 27.7011C19.4678 27.6429 18.9568 27.7792 18.6834 28.2089L18.0662 29.0527C16.5349 30.7792 14.4682 30.4922 13.4256 29.4824L12.287 28.1035C11.9889 27.8147 11.6131 27.5683 11.1632 27.7381L9.4412 28.2089C8.01952 28.4102 6.34548 27.3173 6.07754 25.9067L5.8787 23.8652C5.79799 23.4403 5.51778 23.0801 5.12576 22.8974L3.91777 22.4824C2.10124 21.6359 1.49282 19.5865 2.53583 17.8752L3.21668 16.9336C3.49015 16.4849 3.47715 15.918 3.18339 15.4824L2.67558 14.7636C1.23811 12.7167 2.23197 10.4289 4.36208 9.74301L4.83188 9.59174C5.35041 9.42477 5.85128 8.99415 5.89438 8.45111L5.99899 7.13286C6.1688 4.99312 8.12132 3.76531 10.175 4.38963L10.8396 4.59168C11.4803 4.84168 11.9822 4.62878 12.3318 4.24793L13.0506 3.33098Z" fill="url(#paint3_radial_48405_237)"/>
<path d="M13.0506 3.33098C14.5818 1.60735 16.6637 1.88168 17.9959 3.33098L18.8083 4.27159C19.0896 4.57764 19.4967 4.73634 19.9109 4.70146L21.3553 4.27159C23.324 3.84954 25.1131 5.31829 25.1131 7.59954V8.45892C25.1548 8.92804 25.5646 9.24606 25.9878 9.45274L27.2928 9.99799C29.1804 10.9199 29.6521 13.1074 28.2771 14.9433L27.8865 15.4589C27.5361 15.9326 27.6081 16.5543 27.9568 17.0292L28.3474 17.5761C29.7693 19.3261 28.9676 21.727 26.9592 22.5659L25.8358 23.035C25.4127 23.2117 25.2469 23.5151 25.1678 23.9667L25.0896 25.4355C24.8162 27.4511 23.026 28.3615 21.5896 28.1581L19.8787 27.7011C19.4678 27.6429 18.9568 27.7792 18.6834 28.2089L18.0662 29.0527C16.5349 30.7792 14.4682 30.4922 13.4256 29.4824L12.287 28.1035C11.9889 27.8147 11.6131 27.5683 11.1632 27.7381L9.4412 28.2089C8.01952 28.4102 6.34548 27.3173 6.07754 25.9067L5.8787 23.8652C5.79799 23.4403 5.51778 23.0801 5.12576 22.8974L3.91777 22.4824C2.10124 21.6359 1.49282 19.5865 2.53583 17.8752L3.21668 16.9336C3.49015 16.4849 3.47715 15.918 3.18339 15.4824L2.67558 14.7636C1.23811 12.7167 2.23197 10.4289 4.36208 9.74301L4.83188 9.59174C5.35041 9.42477 5.85128 8.99415 5.89438 8.45111L5.99899 7.13286C6.1688 4.99312 8.12132 3.76531 10.175 4.38963L10.8396 4.59168C11.4803 4.84168 11.9822 4.62878 12.3318 4.24793L13.0506 3.33098Z" fill="url(#paint4_radial_48405_237)"/>
<path d="M13.0506 3.33098C14.5818 1.60735 16.6637 1.88168 17.9959 3.33098L18.8083 4.27159C19.0896 4.57764 19.4967 4.73634 19.9109 4.70146L21.3553 4.27159C23.324 3.84954 25.1131 5.31829 25.1131 7.59954V8.45892C25.1548 8.92804 25.5646 9.24606 25.9878 9.45274L27.2928 9.99799C29.1804 10.9199 29.6521 13.1074 28.2771 14.9433L27.8865 15.4589C27.5361 15.9326 27.6081 16.5543 27.9568 17.0292L28.3474 17.5761C29.7693 19.3261 28.9676 21.727 26.9592 22.5659L25.8358 23.035C25.4127 23.2117 25.2469 23.5151 25.1678 23.9667L25.0896 25.4355C24.8162 27.4511 23.026 28.3615 21.5896 28.1581L19.8787 27.7011C19.4678 27.6429 18.9568 27.7792 18.6834 28.2089L18.0662 29.0527C16.5349 30.7792 14.4682 30.4922 13.4256 29.4824L12.287 28.1035C11.9889 27.8147 11.6131 27.5683 11.1632 27.7381L9.4412 28.2089C8.01952 28.4102 6.34548 27.3173 6.07754 25.9067L5.8787 23.8652C5.79799 23.4403 5.51778 23.0801 5.12576 22.8974L3.91777 22.4824C2.10124 21.6359 1.49282 19.5865 2.53583 17.8752L3.21668 16.9336C3.49015 16.4849 3.47715 15.918 3.18339 15.4824L2.67558 14.7636C1.23811 12.7167 2.23197 10.4289 4.36208 9.74301L4.83188 9.59174C5.35041 9.42477 5.85128 8.99415 5.89438 8.45111L5.99899 7.13286C6.1688 4.99312 8.12132 3.76531 10.175 4.38963L10.8396 4.59168C11.4803 4.84168 11.9822 4.62878 12.3318 4.24793L13.0506 3.33098Z" fill="url(#paint5_radial_48405_237)"/>
<path d="M13.0506 3.33098C14.5818 1.60735 16.6637 1.88168 17.9959 3.33098L18.8083 4.27159C19.0896 4.57764 19.4967 4.73634 19.9109 4.70146L21.3553 4.27159C23.324 3.84954 25.1131 5.31829 25.1131 7.59954V8.45892C25.1548 8.92804 25.5646 9.24606 25.9878 9.45274L27.2928 9.99799C29.1804 10.9199 29.6521 13.1074 28.2771 14.9433L27.8865 15.4589C27.5361 15.9326 27.6081 16.5543 27.9568 17.0292L28.3474 17.5761C29.7693 19.3261 28.9676 21.727 26.9592 22.5659L25.8358 23.035C25.4127 23.2117 25.2469 23.5151 25.1678 23.9667L25.0896 25.4355C24.8162 27.4511 23.026 28.3615 21.5896 28.1581L19.8787 27.7011C19.4678 27.6429 18.9568 27.7792 18.6834 28.2089L18.0662 29.0527C16.5349 30.7792 14.4682 30.4922 13.4256 29.4824L12.287 28.1035C11.9889 27.8147 11.6131 27.5683 11.1632 27.7381L9.4412 28.2089C8.01952 28.4102 6.34548 27.3173 6.07754 25.9067L5.8787 23.8652C5.79799 23.4403 5.51778 23.0801 5.12576 22.8974L3.91777 22.4824C2.10124 21.6359 1.49282 19.5865 2.53583 17.8752L3.21668 16.9336C3.49015 16.4849 3.47715 15.918 3.18339 15.4824L2.67558 14.7636C1.23811 12.7167 2.23197 10.4289 4.36208 9.74301L4.83188 9.59174C5.35041 9.42477 5.85128 8.99415 5.89438 8.45111L5.99899 7.13286C6.1688 4.99312 8.12132 3.76531 10.175 4.38963L10.8396 4.59168C11.4803 4.84168 11.9822 4.62878 12.3318 4.24793L13.0506 3.33098Z" fill="url(#paint6_radial_48405_237)" fill-opacity="0.6"/>
<path d="M13.0506 3.33098C14.5818 1.60735 16.6637 1.88168 17.9959 3.33098L18.8083 4.27159C19.0896 4.57764 19.4967 4.73634 19.9109 4.70146L21.3553 4.27159C23.324 3.84954 25.1131 5.31829 25.1131 7.59954V8.45892C25.1548 8.92804 25.5646 9.24606 25.9878 9.45274L27.2928 9.99799C29.1804 10.9199 29.6521 13.1074 28.2771 14.9433L27.8865 15.4589C27.5361 15.9326 27.6081 16.5543 27.9568 17.0292L28.3474 17.5761C29.7693 19.3261 28.9676 21.727 26.9592 22.5659L25.8358 23.035C25.4127 23.2117 25.2469 23.5151 25.1678 23.9667L25.0896 25.4355C24.8162 27.4511 23.026 28.3615 21.5896 28.1581L19.8787 27.7011C19.4678 27.6429 18.9568 27.7792 18.6834 28.2089L18.0662 29.0527C16.5349 30.7792 14.4682 30.4922 13.4256 29.4824L12.287 28.1035C11.9889 27.8147 11.6131 27.5683 11.1632 27.7381L9.4412 28.2089C8.01952 28.4102 6.34548 27.3173 6.07754 25.9067L5.8787 23.8652C5.79799 23.4403 5.51778 23.0801 5.12576 22.8974L3.91777 22.4824C2.10124 21.6359 1.49282 19.5865 2.53583 17.8752L3.21668 16.9336C3.49015 16.4849 3.47715 15.918 3.18339 15.4824L2.67558 14.7636C1.23811 12.7167 2.23197 10.4289 4.36208 9.74301L4.83188 9.59174C5.35041 9.42477 5.85128 8.99415 5.89438 8.45111L5.99899 7.13286C6.1688 4.99312 8.12132 3.76531 10.175 4.38963L10.8396 4.59168C11.4803 4.84168 11.9822 4.62878 12.3318 4.24793L13.0506 3.33098Z" fill="url(#paint7_radial_48405_237)" fill-opacity="0.7"/>
<path d="M13.0506 3.33098C14.5818 1.60735 16.6637 1.88168 17.9959 3.33098L18.8083 4.27159C19.0896 4.57764 19.4967 4.73634 19.9109 4.70146L21.3553 4.27159C23.324 3.84954 25.1131 5.31829 25.1131 7.59954V8.45892C25.1548 8.92804 25.5646 9.24606 25.9878 9.45274L27.2928 9.99799C29.1804 10.9199 29.6521 13.1074 28.2771 14.9433L27.8865 15.4589C27.5361 15.9326 27.6081 16.5543 27.9568 17.0292L28.3474 17.5761C29.7693 19.3261 28.9676 21.727 26.9592 22.5659L25.8358 23.035C25.4127 23.2117 25.2469 23.5151 25.1678 23.9667L25.0896 25.4355C24.8162 27.4511 23.026 28.3615 21.5896 28.1581L19.8787 27.7011C19.4678 27.6429 18.9568 27.7792 18.6834 28.2089L18.0662 29.0527C16.5349 30.7792 14.4682 30.4922 13.4256 29.4824L12.287 28.1035C11.9889 27.8147 11.6131 27.5683 11.1632 27.7381L9.4412 28.2089C8.01952 28.4102 6.34548 27.3173 6.07754 25.9067L5.8787 23.8652C5.79799 23.4403 5.51778 23.0801 5.12576 22.8974L3.91777 22.4824C2.10124 21.6359 1.49282 19.5865 2.53583 17.8752L3.21668 16.9336C3.49015 16.4849 3.47715 15.918 3.18339 15.4824L2.67558 14.7636C1.23811 12.7167 2.23197 10.4289 4.36208 9.74301L4.83188 9.59174C5.35041 9.42477 5.85128 8.99415 5.89438 8.45111L5.99899 7.13286C6.1688 4.99312 8.12132 3.76531 10.175 4.38963L10.8396 4.59168C11.4803 4.84168 11.9822 4.62878 12.3318 4.24793L13.0506 3.33098Z" fill="url(#paint8_radial_48405_237)" fill-opacity="0.7"/>
<path d="M13.0506 3.33098C14.5818 1.60735 16.6637 1.88168 17.9959 3.33098L18.8083 4.27159C19.0896 4.57764 19.4967 4.73634 19.9109 4.70146L21.3553 4.27159C23.324 3.84954 25.1131 5.31829 25.1131 7.59954V8.45892C25.1548 8.92804 25.5646 9.24606 25.9878 9.45274L27.2928 9.99799C29.1804 10.9199 29.6521 13.1074 28.2771 14.9433L27.8865 15.4589C27.5361 15.9326 27.6081 16.5543 27.9568 17.0292L28.3474 17.5761C29.7693 19.3261 28.9676 21.727 26.9592 22.5659L25.8358 23.035C25.4127 23.2117 25.2469 23.5151 25.1678 23.9667L25.0896 25.4355C24.8162 27.4511 23.026 28.3615 21.5896 28.1581L19.8787 27.7011C19.4678 27.6429 18.9568 27.7792 18.6834 28.2089L18.0662 29.0527C16.5349 30.7792 14.4682 30.4922 13.4256 29.4824L12.287 28.1035C11.9889 27.8147 11.6131 27.5683 11.1632 27.7381L9.4412 28.2089C8.01952 28.4102 6.34548 27.3173 6.07754 25.9067L5.8787 23.8652C5.79799 23.4403 5.51778 23.0801 5.12576 22.8974L3.91777 22.4824C2.10124 21.6359 1.49282 19.5865 2.53583 17.8752L3.21668 16.9336C3.49015 16.4849 3.47715 15.918 3.18339 15.4824L2.67558 14.7636C1.23811 12.7167 2.23197 10.4289 4.36208 9.74301L4.83188 9.59174C5.35041 9.42477 5.85128 8.99415 5.89438 8.45111L5.99899 7.13286C6.1688 4.99312 8.12132 3.76531 10.175 4.38963L10.8396 4.59168C11.4803 4.84168 11.9822 4.62878 12.3318 4.24793L13.0506 3.33098Z" fill="url(#paint9_radial_48405_237)"/>
<path d="M13.0506 3.33098C14.5818 1.60735 16.6637 1.88168 17.9959 3.33098L18.8083 4.27159C19.0896 4.57764 19.4967 4.73634 19.9109 4.70146L21.3553 4.27159C23.324 3.84954 25.1131 5.31829 25.1131 7.59954V8.45892C25.1548 8.92804 25.5646 9.24606 25.9878 9.45274L27.2928 9.99799C29.1804 10.9199 29.6521 13.1074 28.2771 14.9433L27.8865 15.4589C27.5361 15.9326 27.6081 16.5543 27.9568 17.0292L28.3474 17.5761C29.7693 19.3261 28.9676 21.727 26.9592 22.5659L25.8358 23.035C25.4127 23.2117 25.2469 23.5151 25.1678 23.9667L25.0896 25.4355C24.8162 27.4511 23.026 28.3615 21.5896 28.1581L19.8787 27.7011C19.4678 27.6429 18.9568 27.7792 18.6834 28.2089L18.0662 29.0527C16.5349 30.7792 14.4682 30.4922 13.4256 29.4824L12.287 28.1035C11.9889 27.8147 11.6131 27.5683 11.1632 27.7381L9.4412 28.2089C8.01952 28.4102 6.34548 27.3173 6.07754 25.9067L5.8787 23.8652C5.79799 23.4403 5.51778 23.0801 5.12576 22.8974L3.91777 22.4824C2.10124 21.6359 1.49282 19.5865 2.53583 17.8752L3.21668 16.9336C3.49015 16.4849 3.47715 15.918 3.18339 15.4824L2.67558 14.7636C1.23811 12.7167 2.23197 10.4289 4.36208 9.74301L4.83188 9.59174C5.35041 9.42477 5.85128 8.99415 5.89438 8.45111L5.99899 7.13286C6.1688 4.99312 8.12132 3.76531 10.175 4.38963L10.8396 4.59168C11.4803 4.84168 11.9822 4.62878 12.3318 4.24793L13.0506 3.33098Z" fill="url(#paint10_radial_48405_237)" fill-opacity="0.7"/>
<path d="M13.0506 3.33098C14.5818 1.60735 16.6637 1.88168 17.9959 3.33098L18.8083 4.27159C19.0896 4.57764 19.4967 4.73634 19.9109 4.70146L21.3553 4.27159C23.324 3.84954 25.1131 5.31829 25.1131 7.59954V8.45892C25.1548 8.92804 25.5646 9.24606 25.9878 9.45274L27.2928 9.99799C29.1804 10.9199 29.6521 13.1074 28.2771 14.9433L27.8865 15.4589C27.5361 15.9326 27.6081 16.5543 27.9568 17.0292L28.3474 17.5761C29.7693 19.3261 28.9676 21.727 26.9592 22.5659L25.8358 23.035C25.4127 23.2117 25.2469 23.5151 25.1678 23.9667L25.0896 25.4355C24.8162 27.4511 23.026 28.3615 21.5896 28.1581L19.8787 27.7011C19.4678 27.6429 18.9568 27.7792 18.6834 28.2089L18.0662 29.0527C16.5349 30.7792 14.4682 30.4922 13.4256 29.4824L12.287 28.1035C11.9889 27.8147 11.6131 27.5683 11.1632 27.7381L9.4412 28.2089C8.01952 28.4102 6.34548 27.3173 6.07754 25.9067L5.8787 23.8652C5.79799 23.4403 5.51778 23.0801 5.12576 22.8974L3.91777 22.4824C2.10124 21.6359 1.49282 19.5865 2.53583 17.8752L3.21668 16.9336C3.49015 16.4849 3.47715 15.918 3.18339 15.4824L2.67558 14.7636C1.23811 12.7167 2.23197 10.4289 4.36208 9.74301L4.83188 9.59174C5.35041 9.42477 5.85128 8.99415 5.89438 8.45111L5.99899 7.13286C6.1688 4.99312 8.12132 3.76531 10.175 4.38963L10.8396 4.59168C11.4803 4.84168 11.9822 4.62878 12.3318 4.24793L13.0506 3.33098Z" fill="url(#paint11_radial_48405_237)" fill-opacity="0.7"/>
<path d="M13.0506 3.33098C14.5818 1.60735 16.6637 1.88168 17.9959 3.33098L18.8083 4.27159C19.0896 4.57764 19.4967 4.73634 19.9109 4.70146L21.3553 4.27159C23.324 3.84954 25.1131 5.31829 25.1131 7.59954V8.45892C25.1548 8.92804 25.5646 9.24606 25.9878 9.45274L27.2928 9.99799C29.1804 10.9199 29.6521 13.1074 28.2771 14.9433L27.8865 15.4589C27.5361 15.9326 27.6081 16.5543 27.9568 17.0292L28.3474 17.5761C29.7693 19.3261 28.9676 21.727 26.9592 22.5659L25.8358 23.035C25.4127 23.2117 25.2469 23.5151 25.1678 23.9667L25.0896 25.4355C24.8162 27.4511 23.026 28.3615 21.5896 28.1581L19.8787 27.7011C19.4678 27.6429 18.9568 27.7792 18.6834 28.2089L18.0662 29.0527C16.5349 30.7792 14.4682 30.4922 13.4256 29.4824L12.287 28.1035C11.9889 27.8147 11.6131 27.5683 11.1632 27.7381L9.4412 28.2089C8.01952 28.4102 6.34548 27.3173 6.07754 25.9067L5.8787 23.8652C5.79799 23.4403 5.51778 23.0801 5.12576 22.8974L3.91777 22.4824C2.10124 21.6359 1.49282 19.5865 2.53583 17.8752L3.21668 16.9336C3.49015 16.4849 3.47715 15.918 3.18339 15.4824L2.67558 14.7636C1.23811 12.7167 2.23197 10.4289 4.36208 9.74301L4.83188 9.59174C5.35041 9.42477 5.85128 8.99415 5.89438 8.45111L5.99899 7.13286C6.1688 4.99312 8.12132 3.76531 10.175 4.38963L10.8396 4.59168C11.4803 4.84168 11.9822 4.62878 12.3318 4.24793L13.0506 3.33098Z" fill="url(#paint12_radial_48405_237)"/>
<path d="M13.0506 3.33098C14.5818 1.60735 16.6637 1.88168 17.9959 3.33098L18.8083 4.27159C19.0896 4.57764 19.4967 4.73634 19.9109 4.70146L21.3553 4.27159C23.324 3.84954 25.1131 5.31829 25.1131 7.59954V8.45892C25.1548 8.92804 25.5646 9.24606 25.9878 9.45274L27.2928 9.99799C29.1804 10.9199 29.6521 13.1074 28.2771 14.9433L27.8865 15.4589C27.5361 15.9326 27.6081 16.5543 27.9568 17.0292L28.3474 17.5761C29.7693 19.3261 28.9676 21.727 26.9592 22.5659L25.8358 23.035C25.4127 23.2117 25.2469 23.5151 25.1678 23.9667L25.0896 25.4355C24.8162 27.4511 23.026 28.3615 21.5896 28.1581L19.8787 27.7011C19.4678 27.6429 18.9568 27.7792 18.6834 28.2089L18.0662 29.0527C16.5349 30.7792 14.4682 30.4922 13.4256 29.4824L12.287 28.1035C11.9889 27.8147 11.6131 27.5683 11.1632 27.7381L9.4412 28.2089C8.01952 28.4102 6.34548 27.3173 6.07754 25.9067L5.8787 23.8652C5.79799 23.4403 5.51778 23.0801 5.12576 22.8974L3.91777 22.4824C2.10124 21.6359 1.49282 19.5865 2.53583 17.8752L3.21668 16.9336C3.49015 16.4849 3.47715 15.918 3.18339 15.4824L2.67558 14.7636C1.23811 12.7167 2.23197 10.4289 4.36208 9.74301L4.83188 9.59174C5.35041 9.42477 5.85128 8.99415 5.89438 8.45111L5.99899 7.13286C6.1688 4.99312 8.12132 3.76531 10.175 4.38963L10.8396 4.59168C11.4803 4.84168 11.9822 4.62878 12.3318 4.24793L13.0506 3.33098Z" fill="url(#paint13_radial_48405_237)"/>
<path d="M13.0506 3.33098C14.5818 1.60735 16.6637 1.88168 17.9959 3.33098L18.8083 4.27159C19.0896 4.57764 19.4967 4.73634 19.9109 4.70146L21.3553 4.27159C23.324 3.84954 25.1131 5.31829 25.1131 7.59954V8.45892C25.1548 8.92804 25.5646 9.24606 25.9878 9.45274L27.2928 9.99799C29.1804 10.9199 29.6521 13.1074 28.2771 14.9433L27.8865 15.4589C27.5361 15.9326 27.6081 16.5543 27.9568 17.0292L28.3474 17.5761C29.7693 19.3261 28.9676 21.727 26.9592 22.5659L25.8358 23.035C25.4127 23.2117 25.2469 23.5151 25.1678 23.9667L25.0896 25.4355C24.8162 27.4511 23.026 28.3615 21.5896 28.1581L19.8787 27.7011C19.4678 27.6429 18.9568 27.7792 18.6834 28.2089L18.0662 29.0527C16.5349 30.7792 14.4682 30.4922 13.4256 29.4824L12.287 28.1035C11.9889 27.8147 11.6131 27.5683 11.1632 27.7381L9.4412 28.2089C8.01952 28.4102 6.34548 27.3173 6.07754 25.9067L5.8787 23.8652C5.79799 23.4403 5.51778 23.0801 5.12576 22.8974L3.91777 22.4824C2.10124 21.6359 1.49282 19.5865 2.53583 17.8752L3.21668 16.9336C3.49015 16.4849 3.47715 15.918 3.18339 15.4824L2.67558 14.7636C1.23811 12.7167 2.23197 10.4289 4.36208 9.74301L4.83188 9.59174C5.35041 9.42477 5.85128 8.99415 5.89438 8.45111L5.99899 7.13286C6.1688 4.99312 8.12132 3.76531 10.175 4.38963L10.8396 4.59168C11.4803 4.84168 11.9822 4.62878 12.3318 4.24793L13.0506 3.33098Z" fill="url(#paint14_radial_48405_237)"/>
<path d="M13.0506 3.33098C14.5818 1.60735 16.6637 1.88168 17.9959 3.33098L18.8083 4.27159C19.0896 4.57764 19.4967 4.73634 19.9109 4.70146L21.3553 4.27159C23.324 3.84954 25.1131 5.31829 25.1131 7.59954V8.45892C25.1548 8.92804 25.5646 9.24606 25.9878 9.45274L27.2928 9.99799C29.1804 10.9199 29.6521 13.1074 28.2771 14.9433L27.8865 15.4589C27.5361 15.9326 27.6081 16.5543 27.9568 17.0292L28.3474 17.5761C29.7693 19.3261 28.9676 21.727 26.9592 22.5659L25.8358 23.035C25.4127 23.2117 25.2469 23.5151 25.1678 23.9667L25.0896 25.4355C24.8162 27.4511 23.026 28.3615 21.5896 28.1581L19.8787 27.7011C19.4678 27.6429 18.9568 27.7792 18.6834 28.2089L18.0662 29.0527C16.5349 30.7792 14.4682 30.4922 13.4256 29.4824L12.287 28.1035C11.9889 27.8147 11.6131 27.5683 11.1632 27.7381L9.4412 28.2089C8.01952 28.4102 6.34548 27.3173 6.07754 25.9067L5.8787 23.8652C5.79799 23.4403 5.51778 23.0801 5.12576 22.8974L3.91777 22.4824C2.10124 21.6359 1.49282 19.5865 2.53583 17.8752L3.21668 16.9336C3.49015 16.4849 3.47715 15.918 3.18339 15.4824L2.67558 14.7636C1.23811 12.7167 2.23197 10.4289 4.36208 9.74301L4.83188 9.59174C5.35041 9.42477 5.85128 8.99415 5.89438 8.45111L5.99899 7.13286C6.1688 4.99312 8.12132 3.76531 10.175 4.38963L10.8396 4.59168C11.4803 4.84168 11.9822 4.62878 12.3318 4.24793L13.0506 3.33098Z" fill="url(#paint15_radial_48405_237)"/>
<path d="M13.0506 3.33098C14.5818 1.60735 16.6637 1.88168 17.9959 3.33098L18.8083 4.27159C19.0896 4.57764 19.4967 4.73634 19.9109 4.70146L21.3553 4.27159C23.324 3.84954 25.1131 5.31829 25.1131 7.59954V8.45892C25.1548 8.92804 25.5646 9.24606 25.9878 9.45274L27.2928 9.99799C29.1804 10.9199 29.6521 13.1074 28.2771 14.9433L27.8865 15.4589C27.5361 15.9326 27.6081 16.5543 27.9568 17.0292L28.3474 17.5761C29.7693 19.3261 28.9676 21.727 26.9592 22.5659L25.8358 23.035C25.4127 23.2117 25.2469 23.5151 25.1678 23.9667L25.0896 25.4355C24.8162 27.4511 23.026 28.3615 21.5896 28.1581L19.8787 27.7011C19.4678 27.6429 18.9568 27.7792 18.6834 28.2089L18.0662 29.0527C16.5349 30.7792 14.4682 30.4922 13.4256 29.4824L12.287 28.1035C11.9889 27.8147 11.6131 27.5683 11.1632 27.7381L9.4412 28.2089C8.01952 28.4102 6.34548 27.3173 6.07754 25.9067L5.8787 23.8652C5.79799 23.4403 5.51778 23.0801 5.12576 22.8974L3.91777 22.4824C2.10124 21.6359 1.49282 19.5865 2.53583 17.8752L3.21668 16.9336C3.49015 16.4849 3.47715 15.918 3.18339 15.4824L2.67558 14.7636C1.23811 12.7167 2.23197 10.4289 4.36208 9.74301L4.83188 9.59174C5.35041 9.42477 5.85128 8.99415 5.89438 8.45111L5.99899 7.13286C6.1688 4.99312 8.12132 3.76531 10.175 4.38963L10.8396 4.59168C11.4803 4.84168 11.9822 4.62878 12.3318 4.24793L13.0506 3.33098Z" fill="url(#paint16_radial_48405_237)"/>
<path d="M15.5345 26.9339C21.4676 26.9339 26.2774 22.1241 26.2774 16.191C26.2774 10.2578 21.4676 5.448 15.5345 5.448C9.60128 5.448 4.7915 10.2578 4.7915 16.191C4.7915 22.1241 9.60128 26.9339 15.5345 26.9339Z" fill="url(#paint17_radial_48405_237)"/>
<defs>
<linearGradient id="paint0_linear_48405_237" x1="23.8781" y1="6.86692" x2="8.52811" y2="26.4513" gradientUnits="userSpaceOnUse">
<stop stop-color="#FC8B23"/>
<stop offset="0.75886" stop-color="#E67639"/>
</linearGradient>
<radialGradient id="paint1_radial_48405_237" cx="0" cy="0" r="1" gradientUnits="userSpaceOnUse" gradientTransform="translate(18.1188 3.43734) rotate(138.155) scale(3.77864 3.33393)">
<stop offset="0.300161" stop-color="#FFA13A"/>
<stop offset="1" stop-color="#FFA13A" stop-opacity="0"/>
</radialGradient>
<radialGradient id="paint2_radial_48405_237" cx="0" cy="0" r="1" gradientUnits="userSpaceOnUse" gradientTransform="translate(8.28763 2.24448) rotate(67.8105) scale(6.00715 5.30017)">
<stop offset="0.300161" stop-color="#FF942A"/>
<stop offset="1" stop-color="#FF942A" stop-opacity="0"/>
</radialGradient>
<radialGradient id="paint3_radial_48405_237" cx="0" cy="0" r="1" gradientUnits="userSpaceOnUse" gradientTransform="translate(24.4208 7.84876) rotate(-164.745) scale(2.39513 3.31637)">
<stop offset="0.300161" stop-color="#FFA13D"/>
<stop offset="1" stop-color="#FFA13D" stop-opacity="0"/>
</radialGradient>
<radialGradient id="paint4_radial_48405_237" cx="0" cy="0" r="1" gradientUnits="userSpaceOnUse" gradientTransform="translate(29.2523 11.3359) rotate(154.195) scale(4.24668 3.13649)">
<stop offset="0.300161" stop-color="#FFA13D"/>
<stop offset="1" stop-color="#FFA13D" stop-opacity="0"/>
</radialGradient>
<radialGradient id="paint5_radial_48405_237" cx="0" cy="0" r="1" gradientUnits="userSpaceOnUse" gradientTransform="translate(30.1766 18.5202) rotate(-173.379) scale(4.73709 2.66952)">
<stop offset="0.300161" stop-color="#FFA13D"/>
<stop offset="1" stop-color="#FFA13D" stop-opacity="0"/>
</radialGradient>
<radialGradient id="paint6_radial_48405_237" cx="0" cy="0" r="1" gradientUnits="userSpaceOnUse" gradientTransform="translate(17.3896 29.0789) rotate(-105.961) scale(2.88176 3.4347)">
<stop offset="0.300161" stop-color="#FFA13D"/>
<stop offset="0.837828" stop-color="#FFA13D" stop-opacity="0.143262"/>
<stop offset="1" stop-color="#FFA13D" stop-opacity="0"/>
</radialGradient>
<radialGradient id="paint7_radial_48405_237" cx="0" cy="0" r="1" gradientUnits="userSpaceOnUse" gradientTransform="translate(24.369 25.7357) rotate(135) scale(5.34783 3.8224)">
<stop offset="0.349216" stop-color="#FFA13D"/>
<stop offset="1" stop-color="#FFA13D" stop-opacity="0"/>
</radialGradient>
<radialGradient id="paint8_radial_48405_237" cx="0" cy="0" r="1" gradientUnits="userSpaceOnUse" gradientTransform="translate(9.88243 4.79618) rotate(75.2564) scale(3.40414 3.96855)">
<stop offset="0.349216" stop-color="#FFA13D"/>
<stop offset="1" stop-color="#FFA13D" stop-opacity="0"/>
</radialGradient>
<radialGradient id="paint9_radial_48405_237" cx="0" cy="0" r="1" gradientUnits="userSpaceOnUse" gradientTransform="translate(25.9333 24.0239) rotate(-43.9639) scale(4.29693 4.13959)">
<stop stop-color="#E0762A"/>
<stop offset="0.626569" stop-color="#E0762A" stop-opacity="0.292889"/>
<stop offset="1" stop-color="#E0762A" stop-opacity="0"/>
</radialGradient>
<radialGradient id="paint10_radial_48405_237" cx="0" cy="0" r="1" gradientUnits="userSpaceOnUse" gradientTransform="translate(19.6937 5.40114) rotate(1.69135) scale(2.59424 2.49925)">
<stop stop-color="#E0762A"/>
<stop offset="0.626569" stop-color="#E0762A" stop-opacity="0.292889"/>
<stop offset="1" stop-color="#E0762A" stop-opacity="0"/>
</radialGradient>
<radialGradient id="paint11_radial_48405_237" cx="0" cy="0" r="1" gradientUnits="userSpaceOnUse" gradientTransform="translate(12.2565 4.9638) rotate(-10.1755) scale(2.90906 2.80254)">
<stop stop-color="#E0762A"/>
<stop offset="0.626569" stop-color="#E0762A" stop-opacity="0.292889"/>
<stop offset="1" stop-color="#E0762A" stop-opacity="0"/>
</radialGradient>
<radialGradient id="paint12_radial_48405_237" cx="0" cy="0" r="1" gradientUnits="userSpaceOnUse" gradientTransform="translate(5.57547 10.2499) rotate(-39.6442) scale(3.33709 3.2149)">
<stop stop-color="#E0762A"/>
<stop offset="0.626569" stop-color="#E0762A" stop-opacity="0.292889"/>
<stop offset="1" stop-color="#E0762A" stop-opacity="0"/>
</radialGradient>
<radialGradient id="paint13_radial_48405_237" cx="0" cy="0" r="1" gradientUnits="userSpaceOnUse" gradientTransform="translate(6.0189 23.0156) rotate(-127.747) scale(3.29424 3.17361)">
<stop stop-color="#E0762A"/>
<stop offset="1" stop-color="#E0762A" stop-opacity="0"/>
</radialGradient>
<radialGradient id="paint14_radial_48405_237" cx="0" cy="0" r="1" gradientUnits="userSpaceOnUse" gradientTransform="translate(1.52346 11.882) rotate(25.2777) scale(3.34528 4.04325)">
<stop stop-color="#F0851D"/>
<stop offset="1" stop-color="#F0851D" stop-opacity="0"/>
</radialGradient>
<radialGradient id="paint15_radial_48405_237" cx="0" cy="0" r="1" gradientUnits="userSpaceOnUse" gradientTransform="translate(21.4921 28.7949) rotate(-142.487) scale(3.90025 3.67954)">
<stop offset="0.336586" stop-color="#E3745B"/>
<stop offset="0.689689" stop-color="#E3745B" stop-opacity="0.317051"/>
<stop offset="1" stop-color="#E3745B" stop-opacity="0"/>
</radialGradient>
<radialGradient id="paint16_radial_48405_237" cx="0" cy="0" r="1" gradientUnits="userSpaceOnUse" gradientTransform="translate(15.5344 16.3356) rotate(90) scale(11.5105 11.0663)">
<stop offset="0.918092" stop-color="#EB7922"/>
<stop offset="1" stop-color="#EB7922" stop-opacity="0"/>
</radialGradient>
<radialGradient id="paint17_radial_48405_237" cx="0" cy="0" r="1" gradientUnits="userSpaceOnUse" gradientTransform="translate(21.6309 9.96711) rotate(117.739) scale(19.1699 23.673)">
<stop offset="0.17178" stop-color="#FFD13D"/>
<stop offset="0.959877" stop-color="#D89A29"/>
</radialGradient>
</defs>
</svg>
