<svg width="32" height="32" viewBox="0 0 32 32" fill="none" xmlns="http://www.w3.org/2000/svg">
<path d="M23.5096 5.63236C24.0096 7.67236 24.0696 9.89236 23.5296 12.1924C22.2696 17.5224 17.8896 21.7024 12.5096 22.6724C9.59956 23.2024 6.82956 22.8024 4.41956 21.7524C3.85956 21.5024 3.32956 22.1424 3.61956 22.6824C6.26956 27.5624 11.7296 30.6824 17.8396 29.8724C24.0696 29.0424 29.0596 23.9624 29.8096 17.7224C30.4096 12.5424 28.2096 7.86236 24.5296 4.97236C24.0596 4.61236 23.3696 5.05236 23.5096 5.63236Z" fill="url(#paint0_linear_48405_225)"/>
<path d="M23.5096 5.63236C24.0096 7.67236 24.0696 9.89236 23.5296 12.1924C22.2696 17.5224 17.8896 21.7024 12.5096 22.6724C9.59956 23.2024 6.82956 22.8024 4.41956 21.7524C3.85956 21.5024 3.32956 22.1424 3.61956 22.6824C6.26956 27.5624 11.7296 30.6824 17.8396 29.8724C24.0696 29.0424 29.0596 23.9624 29.8096 17.7224C30.4096 12.5424 28.2096 7.86236 24.5296 4.97236C24.0596 4.61236 23.3696 5.05236 23.5096 5.63236Z" fill="url(#paint1_radial_48405_225)"/>
<path d="M23.5096 5.63236C24.0096 7.67236 24.0696 9.89236 23.5296 12.1924C22.2696 17.5224 17.8896 21.7024 12.5096 22.6724C9.59956 23.2024 6.82956 22.8024 4.41956 21.7524C3.85956 21.5024 3.32956 22.1424 3.61956 22.6824C6.26956 27.5624 11.7296 30.6824 17.8396 29.8724C24.0696 29.0424 29.0596 23.9624 29.8096 17.7224C30.4096 12.5424 28.2096 7.86236 24.5296 4.97236C24.0596 4.61236 23.3696 5.05236 23.5096 5.63236Z" fill="url(#paint2_radial_48405_225)"/>
<path d="M23.5096 5.63236C24.0096 7.67236 24.0696 9.89236 23.5296 12.1924C22.2696 17.5224 17.8896 21.7024 12.5096 22.6724C9.59956 23.2024 6.82956 22.8024 4.41956 21.7524C3.85956 21.5024 3.32956 22.1424 3.61956 22.6824C6.26956 27.5624 11.7296 30.6824 17.8396 29.8724C24.0696 29.0424 29.0596 23.9624 29.8096 17.7224C30.4096 12.5424 28.2096 7.86236 24.5296 4.97236C24.0596 4.61236 23.3696 5.05236 23.5096 5.63236Z" fill="url(#paint3_radial_48405_225)"/>
<path d="M23.5096 5.63236C24.0096 7.67236 24.0696 9.89236 23.5296 12.1924C22.2696 17.5224 17.8896 21.7024 12.5096 22.6724C9.59956 23.2024 6.82956 22.8024 4.41956 21.7524C3.85956 21.5024 3.32956 22.1424 3.61956 22.6824C6.26956 27.5624 11.7296 30.6824 17.8396 29.8724C24.0696 29.0424 29.0596 23.9624 29.8096 17.7224C30.4096 12.5424 28.2096 7.86236 24.5296 4.97236C24.0596 4.61236 23.3696 5.05236 23.5096 5.63236Z" fill="url(#paint4_radial_48405_225)"/>
<path d="M23.5096 5.63236C24.0096 7.67236 24.0696 9.89236 23.5296 12.1924C22.2696 17.5224 17.8896 21.7024 12.5096 22.6724C9.59956 23.2024 6.82956 22.8024 4.41956 21.7524C3.85956 21.5024 3.32956 22.1424 3.61956 22.6824C6.26956 27.5624 11.7296 30.6824 17.8396 29.8724C24.0696 29.0424 29.0596 23.9624 29.8096 17.7224C30.4096 12.5424 28.2096 7.86236 24.5296 4.97236C24.0596 4.61236 23.3696 5.05236 23.5096 5.63236Z" fill="url(#paint5_radial_48405_225)"/>
<path d="M23.5096 5.63236C24.0096 7.67236 24.0696 9.89236 23.5296 12.1924C22.2696 17.5224 17.8896 21.7024 12.5096 22.6724C9.59956 23.2024 6.82956 22.8024 4.41956 21.7524C3.85956 21.5024 3.32956 22.1424 3.61956 22.6824C6.26956 27.5624 11.7296 30.6824 17.8396 29.8724C24.0696 29.0424 29.0596 23.9624 29.8096 17.7224C30.4096 12.5424 28.2096 7.86236 24.5296 4.97236C24.0596 4.61236 23.3696 5.05236 23.5096 5.63236Z" fill="url(#paint6_radial_48405_225)"/>
<path d="M23.5096 5.63236C24.0096 7.67236 24.0696 9.89236 23.5296 12.1924C22.2696 17.5224 17.8896 21.7024 12.5096 22.6724C9.59956 23.2024 6.82956 22.8024 4.41956 21.7524C3.85956 21.5024 3.32956 22.1424 3.61956 22.6824C6.26956 27.5624 11.7296 30.6824 17.8396 29.8724C24.0696 29.0424 29.0596 23.9624 29.8096 17.7224C30.4096 12.5424 28.2096 7.86236 24.5296 4.97236C24.0596 4.61236 23.3696 5.05236 23.5096 5.63236Z" fill="url(#paint7_radial_48405_225)"/>
<path d="M23.5096 5.63236C24.0096 7.67236 24.0696 9.89236 23.5296 12.1924C22.2696 17.5224 17.8896 21.7024 12.5096 22.6724C9.59956 23.2024 6.82956 22.8024 4.41956 21.7524C3.85956 21.5024 3.32956 22.1424 3.61956 22.6824C6.26956 27.5624 11.7296 30.6824 17.8396 29.8724C24.0696 29.0424 29.0596 23.9624 29.8096 17.7224C30.4096 12.5424 28.2096 7.86236 24.5296 4.97236C24.0596 4.61236 23.3696 5.05236 23.5096 5.63236Z" fill="url(#paint8_radial_48405_225)"/>
<path d="M23.5096 5.63236C24.0096 7.67236 24.0696 9.89236 23.5296 12.1924C22.2696 17.5224 17.8896 21.7024 12.5096 22.6724C9.59956 23.2024 6.82956 22.8024 4.41956 21.7524C3.85956 21.5024 3.32956 22.1424 3.61956 22.6824C6.26956 27.5624 11.7296 30.6824 17.8396 29.8724C24.0696 29.0424 29.0596 23.9624 29.8096 17.7224C30.4096 12.5424 28.2096 7.86236 24.5296 4.97236C24.0596 4.61236 23.3696 5.05236 23.5096 5.63236Z" fill="url(#paint9_radial_48405_225)"/>
<path d="M23.5096 5.63236C24.0096 7.67236 24.0696 9.89236 23.5296 12.1924C22.2696 17.5224 17.8896 21.7024 12.5096 22.6724C9.59956 23.2024 6.82956 22.8024 4.41956 21.7524C3.85956 21.5024 3.32956 22.1424 3.61956 22.6824C6.26956 27.5624 11.7296 30.6824 17.8396 29.8724C24.0696 29.0424 29.0596 23.9624 29.8096 17.7224C30.4096 12.5424 28.2096 7.86236 24.5296 4.97236C24.0596 4.61236 23.3696 5.05236 23.5096 5.63236Z" fill="url(#paint10_radial_48405_225)"/>
<path d="M23.5096 5.63236C24.0096 7.67236 24.0696 9.89236 23.5296 12.1924C22.2696 17.5224 17.8896 21.7024 12.5096 22.6724C9.59956 23.2024 6.82956 22.8024 4.41956 21.7524C3.85956 21.5024 3.32956 22.1424 3.61956 22.6824C6.26956 27.5624 11.7296 30.6824 17.8396 29.8724C24.0696 29.0424 29.0596 23.9624 29.8096 17.7224C30.4096 12.5424 28.2096 7.86236 24.5296 4.97236C24.0596 4.61236 23.3696 5.05236 23.5096 5.63236Z" fill="url(#paint11_radial_48405_225)"/>
<path d="M23.5096 5.63236C24.0096 7.67236 24.0696 9.89236 23.5296 12.1924C22.2696 17.5224 17.8896 21.7024 12.5096 22.6724C9.59956 23.2024 6.82956 22.8024 4.41956 21.7524C3.85956 21.5024 3.32956 22.1424 3.61956 22.6824C6.26956 27.5624 11.7296 30.6824 17.8396 29.8724C24.0696 29.0424 29.0596 23.9624 29.8096 17.7224C30.4096 12.5424 28.2096 7.86236 24.5296 4.97236C24.0596 4.61236 23.3696 5.05236 23.5096 5.63236Z" fill="url(#paint12_radial_48405_225)"/>
<path d="M23.5096 5.63236C24.0096 7.67236 24.0696 9.89236 23.5296 12.1924C22.2696 17.5224 17.8896 21.7024 12.5096 22.6724C9.59956 23.2024 6.82956 22.8024 4.41956 21.7524C3.85956 21.5024 3.32956 22.1424 3.61956 22.6824C6.26956 27.5624 11.7296 30.6824 17.8396 29.8724C24.0696 29.0424 29.0596 23.9624 29.8096 17.7224C30.4096 12.5424 28.2096 7.86236 24.5296 4.97236C24.0596 4.61236 23.3696 5.05236 23.5096 5.63236Z" fill="url(#paint13_radial_48405_225)"/>
<path d="M23.5096 5.63236C24.0096 7.67236 24.0696 9.89236 23.5296 12.1924C22.2696 17.5224 17.8896 21.7024 12.5096 22.6724C9.59956 23.2024 6.82956 22.8024 4.41956 21.7524C3.85956 21.5024 3.32956 22.1424 3.61956 22.6824C6.26956 27.5624 11.7296 30.6824 17.8396 29.8724C24.0696 29.0424 29.0596 23.9624 29.8096 17.7224C30.4096 12.5424 28.2096 7.86236 24.5296 4.97236C24.0596 4.61236 23.3696 5.05236 23.5096 5.63236Z" fill="url(#paint14_radial_48405_225)"/>
<path d="M13.4794 27.0123C14.3465 27.0123 15.0494 26.3094 15.0494 25.4423C15.0494 24.5752 14.3465 23.8723 13.4794 23.8723C12.6123 23.8723 11.9094 24.5752 11.9094 25.4423C11.9094 26.3094 12.6123 27.0123 13.4794 27.0123Z" fill="url(#paint15_radial_48405_225)"/>
<path d="M13.4794 27.0123C14.3465 27.0123 15.0494 26.3094 15.0494 25.4423C15.0494 24.5752 14.3465 23.8723 13.4794 23.8723C12.6123 23.8723 11.9094 24.5752 11.9094 25.4423C11.9094 26.3094 12.6123 27.0123 13.4794 27.0123Z" fill="url(#paint16_radial_48405_225)"/>
<path d="M13.4794 27.0123C14.3465 27.0123 15.0494 26.3094 15.0494 25.4423C15.0494 24.5752 14.3465 23.8723 13.4794 23.8723C12.6123 23.8723 11.9094 24.5752 11.9094 25.4423C11.9094 26.3094 12.6123 27.0123 13.4794 27.0123Z" fill="url(#paint17_radial_48405_225)"/>
<path d="M26.3996 14.1323C27.2667 14.1323 27.9696 13.4294 27.9696 12.5623C27.9696 11.6952 27.2667 10.9923 26.3996 10.9923C25.5325 10.9923 24.8296 11.6952 24.8296 12.5623C24.8296 13.4294 25.5325 14.1323 26.3996 14.1323Z" fill="url(#paint18_radial_48405_225)"/>
<path d="M26.3996 14.1323C27.2667 14.1323 27.9696 13.4294 27.9696 12.5623C27.9696 11.6952 27.2667 10.9923 26.3996 10.9923C25.5325 10.9923 24.8296 11.6952 24.8296 12.5623C24.8296 13.4294 25.5325 14.1323 26.3996 14.1323Z" fill="url(#paint19_radial_48405_225)"/>
<path d="M26.3996 14.1323C27.2667 14.1323 27.9696 13.4294 27.9696 12.5623C27.9696 11.6952 27.2667 10.9923 26.3996 10.9923C25.5325 10.9923 24.8296 11.6952 24.8296 12.5623C24.8296 13.4294 25.5325 14.1323 26.3996 14.1323Z" fill="url(#paint20_radial_48405_225)"/>
<path d="M26.8994 18.9723C27.4462 18.9723 27.8894 18.5291 27.8894 17.9823C27.8894 17.4355 27.4462 16.9923 26.8994 16.9923C26.3527 16.9923 25.9094 17.4355 25.9094 17.9823C25.9094 18.5291 26.3527 18.9723 26.8994 18.9723Z" stroke="url(#paint21_linear_48405_225)" stroke-width="0.2"/>
<path d="M26.8994 18.9723C27.4462 18.9723 27.8894 18.5291 27.8894 17.9823C27.8894 17.4355 27.4462 16.9923 26.8994 16.9923C26.3527 16.9923 25.9094 17.4355 25.9094 17.9823C25.9094 18.5291 26.3527 18.9723 26.8994 18.9723Z" fill="url(#paint22_radial_48405_225)"/>
<path d="M21.8994 24.9823C23.5563 24.9823 24.8994 23.6392 24.8994 21.9823C24.8994 20.3254 23.5563 18.9823 21.8994 18.9823C20.2426 18.9823 18.8994 20.3254 18.8994 21.9823C18.8994 23.6392 20.2426 24.9823 21.8994 24.9823Z" fill="url(#paint23_radial_48405_225)"/>
<path d="M21.8994 24.9823C23.5563 24.9823 24.8994 23.6392 24.8994 21.9823C24.8994 20.3254 23.5563 18.9823 21.8994 18.9823C20.2426 18.9823 18.8994 20.3254 18.8994 21.9823C18.8994 23.6392 20.2426 24.9823 21.8994 24.9823Z" fill="url(#paint24_radial_48405_225)"/>
<path d="M21.8994 24.9823C23.5563 24.9823 24.8994 23.6392 24.8994 21.9823C24.8994 20.3254 23.5563 18.9823 21.8994 18.9823C20.2426 18.9823 18.8994 20.3254 18.8994 21.9823C18.8994 23.6392 20.2426 24.9823 21.8994 24.9823Z" fill="url(#paint25_radial_48405_225)"/>
<defs>
<linearGradient id="paint0_linear_48405_225" x1="28.6875" y1="11.1875" x2="10.75" y2="29.3125" gradientUnits="userSpaceOnUse">
<stop stop-color="#FFD874"/>
<stop offset="1" stop-color="#FFBC4C"/>
</linearGradient>
<radialGradient id="paint1_radial_48405_225" cx="0" cy="0" r="1" gradientUnits="userSpaceOnUse" gradientTransform="translate(14.6875 16.625) rotate(-23.4078) scale(15.7323 16.4902)">
<stop offset="0.769006" stop-color="#FFECAE" stop-opacity="0"/>
<stop offset="0.984059" stop-color="#FFECAE"/>
</radialGradient>
<radialGradient id="paint2_radial_48405_225" cx="0" cy="0" r="1" gradientUnits="userSpaceOnUse" gradientTransform="translate(8.70514 31.2136) rotate(-39.8461) scale(14.0127 14.6878)">
<stop stop-color="#FF984F"/>
<stop offset="1" stop-color="#FF984F" stop-opacity="0"/>
</radialGradient>
<radialGradient id="paint3_radial_48405_225" cx="0" cy="0" r="1" gradientUnits="userSpaceOnUse" gradientTransform="translate(22.1726 11.5155) rotate(13.627) scale(2.62816 6.65588)">
<stop offset="0.229694" stop-color="#BA935B"/>
<stop offset="0.978688" stop-color="#BA935B" stop-opacity="0"/>
</radialGradient>
<radialGradient id="paint4_radial_48405_225" cx="0" cy="0" r="1" gradientUnits="userSpaceOnUse" gradientTransform="translate(15.5 -7) rotate(89.2462) scale(38.0033 25.1449)">
<stop offset="0.948773" stop-color="#C1685A" stop-opacity="0"/>
<stop offset="0.955746" stop-color="#C1685A" stop-opacity="0.2"/>
<stop offset="0.974078" stop-color="#C1685A"/>
</radialGradient>
<radialGradient id="paint5_radial_48405_225" cx="0" cy="0" r="1" gradientUnits="userSpaceOnUse" gradientTransform="translate(-1.5 5.5) rotate(30.1414) scale(35.8469 22.5142)">
<stop offset="0.937301" stop-color="#C1685A" stop-opacity="0"/>
<stop offset="0.986552" stop-color="#C1685A"/>
</radialGradient>
<radialGradient id="paint6_radial_48405_225" cx="0" cy="0" r="1" gradientUnits="userSpaceOnUse" gradientTransform="translate(4 -4.5) rotate(65.1576) scale(29.7531 18.8972)">
<stop offset="0.943131" stop-color="#C1685A"/>
<stop offset="0.978926" stop-color="#C1685A" stop-opacity="0.2"/>
<stop offset="1" stop-color="#C1685A" stop-opacity="0"/>
</radialGradient>
<radialGradient id="paint7_radial_48405_225" cx="0" cy="0" r="1" gradientUnits="userSpaceOnUse" gradientTransform="translate(28.5 4.5) rotate(138.215) scale(31.5159 20.8525)">
<stop offset="0.943242" stop-color="#C1685A" stop-opacity="0"/>
<stop offset="0.957054" stop-color="#C1685A" stop-opacity="0.2"/>
<stop offset="0.990341" stop-color="#C1685A"/>
</radialGradient>
<radialGradient id="paint8_radial_48405_225" cx="0" cy="0" r="1" gradientUnits="userSpaceOnUse" gradientTransform="translate(22 22) rotate(135) scale(3.53553)">
<stop offset="0.870313" stop-color="#FFD472"/>
<stop offset="1" stop-color="#FFD472" stop-opacity="0"/>
</radialGradient>
<radialGradient id="paint9_radial_48405_225" cx="0" cy="0" r="1" gradientUnits="userSpaceOnUse" gradientTransform="translate(26.5 9.5) rotate(-112.62) scale(6.5 1.10817)">
<stop offset="0.456731" stop-color="#FFE59A"/>
<stop offset="1" stop-color="#FFE59A" stop-opacity="0"/>
</radialGradient>
<radialGradient id="paint10_radial_48405_225" cx="0" cy="0" r="1" gradientUnits="userSpaceOnUse" gradientTransform="translate(22.5 21.5) rotate(-33.6901) scale(5.40833 6.06703)">
<stop stop-color="#EBB54F" stop-opacity="0"/>
<stop offset="0.403847" stop-color="#EBB54F"/>
<stop offset="0.479968" stop-color="#EBB54F" stop-opacity="0"/>
</radialGradient>
<radialGradient id="paint11_radial_48405_225" cx="0" cy="0" r="1" gradientUnits="userSpaceOnUse" gradientTransform="translate(26.5 12.5) rotate(123.69) scale(1.80278)">
<stop offset="0.870313" stop-color="#FFD472"/>
<stop offset="1" stop-color="#FFD472" stop-opacity="0"/>
</radialGradient>
<radialGradient id="paint12_radial_48405_225" cx="0" cy="0" r="1" gradientUnits="userSpaceOnUse" gradientTransform="translate(26 13) rotate(-56.3099) scale(3.60555 4.04469)">
<stop stop-color="#FFE090" stop-opacity="0"/>
<stop offset="0.204327" stop-color="#FFE090"/>
<stop offset="0.371394" stop-color="#FFE090" stop-opacity="0"/>
</radialGradient>
<radialGradient id="paint13_radial_48405_225" cx="0" cy="0" r="1" gradientUnits="userSpaceOnUse" gradientTransform="translate(13.5 25.5) rotate(135) scale(2.12132)">
<stop offset="0.75" stop-color="#DE9543"/>
<stop offset="0.901041" stop-color="#DE9543" stop-opacity="0"/>
</radialGradient>
<radialGradient id="paint14_radial_48405_225" cx="0" cy="0" r="1" gradientUnits="userSpaceOnUse" gradientTransform="translate(13 26) rotate(-35.5377) scale(4.30116 4.82502)">
<stop offset="0.060177" stop-color="#FFC266" stop-opacity="0"/>
<stop offset="0.202069" stop-color="#FFC266"/>
<stop offset="0.364442" stop-color="#FFC266" stop-opacity="0"/>
</radialGradient>
<radialGradient id="paint15_radial_48405_225" cx="0" cy="0" r="1" gradientUnits="userSpaceOnUse" gradientTransform="translate(12.8124 25.7296) rotate(-22.978) scale(2.4298)">
<stop stop-color="#FFBA6A"/>
<stop offset="1" stop-color="#EB9E58"/>
</radialGradient>
<radialGradient id="paint16_radial_48405_225" cx="0" cy="0" r="1" gradientUnits="userSpaceOnUse" gradientTransform="translate(13 26) rotate(-45) scale(5.65685)">
<stop offset="0.238281" stop-color="#D78B4E" stop-opacity="0"/>
<stop offset="0.361328" stop-color="#D78B4E"/>
</radialGradient>
<radialGradient id="paint17_radial_48405_225" cx="0" cy="0" r="1" gradientUnits="userSpaceOnUse" gradientTransform="translate(13.5 22.5) rotate(101.31) scale(5.09902 5.26316)">
<stop offset="0.699519" stop-color="#FED98C" stop-opacity="0"/>
<stop offset="0.886936" stop-color="#FED98C"/>
</radialGradient>
<radialGradient id="paint18_radial_48405_225" cx="0" cy="0" r="1" gradientUnits="userSpaceOnUse" gradientTransform="translate(25.7326 12.8496) rotate(-15.5214) scale(2.32168)">
<stop stop-color="#FFD778"/>
<stop offset="1" stop-color="#FFC767"/>
</radialGradient>
<radialGradient id="paint19_radial_48405_225" cx="0" cy="0" r="1" gradientUnits="userSpaceOnUse" gradientTransform="translate(26 13) rotate(-59.0362) scale(2.91548 2.91548)">
<stop offset="0.433823" stop-color="#FFD475"/>
<stop offset="0.698529" stop-color="#DA8F3E"/>
</radialGradient>
<radialGradient id="paint20_radial_48405_225" cx="0" cy="0" r="1" gradientUnits="userSpaceOnUse" gradientTransform="translate(26.5 12) rotate(-56.3099) scale(3.60555 4.23188)">
<stop offset="0.377404" stop-color="#FFEBAD" stop-opacity="0"/>
<stop offset="0.519231" stop-color="#FFEBAD"/>
</radialGradient>
<linearGradient id="paint21_linear_48405_225" x1="27.7499" y1="17.1406" x2="26.203" y2="18.7968" gradientUnits="userSpaceOnUse">
<stop stop-color="#E7AC47"/>
<stop offset="1" stop-color="#FFE9A7"/>
</linearGradient>
<radialGradient id="paint22_radial_48405_225" cx="0" cy="0" r="1" gradientUnits="userSpaceOnUse" gradientTransform="translate(26.4788 18.1634) rotate(-15.5214) scale(1.46399)">
<stop stop-color="#FFDE8F"/>
<stop offset="1" stop-color="#FFC25B"/>
</radialGradient>
<radialGradient id="paint23_radial_48405_225" cx="0" cy="0" r="1" gradientUnits="userSpaceOnUse" gradientTransform="translate(20.6249 22.5312) rotate(-22.978) scale(4.64293 4.64293)">
<stop stop-color="#FFC75F"/>
<stop offset="1" stop-color="#FABC5A"/>
</radialGradient>
<radialGradient id="paint24_radial_48405_225" cx="0" cy="0" r="1" gradientUnits="userSpaceOnUse" gradientTransform="translate(20 24) rotate(-50.7106) scale(7.10633 5.29663)">
<stop offset="0.655941" stop-color="#BD8D44" stop-opacity="0"/>
<stop offset="1" stop-color="#BD8D44"/>
</radialGradient>
<radialGradient id="paint25_radial_48405_225" cx="0" cy="0" r="1" gradientUnits="userSpaceOnUse" gradientTransform="translate(23.141 21.5537) rotate(162.476) scale(4.448 4.59118)">
<stop offset="0.594982" stop-color="#FED98C" stop-opacity="0"/>
<stop offset="0.886936" stop-color="#FED98C"/>
</radialGradient>
</defs>
</svg>
