<svg width="32" height="32" viewBox="0 0 32 32" fill="none" xmlns="http://www.w3.org/2000/svg">
<path d="M22.9685 2.96947C23.7173 1.97492 25.1324 1.77962 26.1225 2.53419C27.0637 3.25149 27.2865 4.5763 26.6315 5.56195L15.0439 23.0006L10.3433 19.7394L22.9685 2.96947Z" fill="url(#paint0_linear_18_22378)"/>
<path d="M22.9685 2.96947C23.7173 1.97492 25.1324 1.77962 26.1225 2.53419C27.0637 3.25149 27.2865 4.5763 26.6315 5.56195L15.0439 23.0006L10.3433 19.7394L22.9685 2.96947Z" fill="url(#paint1_linear_18_22378)"/>
<path d="M22.9685 2.96947C23.7173 1.97492 25.1324 1.77962 26.1225 2.53419C27.0637 3.25149 27.2865 4.5763 26.6315 5.56195L15.0439 23.0006L10.3433 19.7394L22.9685 2.96947Z" fill="url(#paint2_radial_18_22378)"/>
<path d="M12.004 28.9244C13.3267 28.2353 14.23 26.8516 14.23 25.2568C14.23 22.9743 12.3796 21.124 10.0972 21.124C7.8147 21.124 5.96436 22.9743 5.96436 25.2568C5.96436 25.666 6.0238 26.0612 6.13452 26.4344C6.26599 27.0686 6.26733 28.1032 5.54681 28.7084C5.41681 28.8176 5.32373 28.9711 5.32373 29.1409C5.32373 29.3578 5.46808 29.5484 5.67999 29.5945C7.8478 30.0656 10.0496 30.0903 12.004 28.9244Z" fill="url(#paint3_radial_18_22378)"/>
<path d="M12.004 28.9244C13.3267 28.2353 14.23 26.8516 14.23 25.2568C14.23 22.9743 12.3796 21.124 10.0972 21.124C7.8147 21.124 5.96436 22.9743 5.96436 25.2568C5.96436 25.666 6.0238 26.0612 6.13452 26.4344C6.26599 27.0686 6.26733 28.1032 5.54681 28.7084C5.41681 28.8176 5.32373 28.9711 5.32373 29.1409C5.32373 29.3578 5.46808 29.5484 5.67999 29.5945C7.8478 30.0656 10.0496 30.0903 12.004 28.9244Z" fill="url(#paint4_radial_18_22378)"/>
<path d="M12.004 28.9244C13.3267 28.2353 14.23 26.8516 14.23 25.2568C14.23 22.9743 12.3796 21.124 10.0972 21.124C7.8147 21.124 5.96436 22.9743 5.96436 25.2568C5.96436 25.666 6.0238 26.0612 6.13452 26.4344C6.26599 27.0686 6.26733 28.1032 5.54681 28.7084C5.41681 28.8176 5.32373 28.9711 5.32373 29.1409C5.32373 29.3578 5.46808 29.5484 5.67999 29.5945C7.8478 30.0656 10.0496 30.0903 12.004 28.9244Z" fill="url(#paint5_linear_18_22378)"/>
<path d="M12.004 28.9244C13.3267 28.2353 14.23 26.8516 14.23 25.2568C14.23 22.9743 12.3796 21.124 10.0972 21.124C7.8147 21.124 5.96436 22.9743 5.96436 25.2568C5.96436 25.666 6.0238 26.0612 6.13452 26.4344C6.26599 27.0686 6.26733 28.1032 5.54681 28.7084C5.41681 28.8176 5.32373 28.9711 5.32373 29.1409C5.32373 29.3578 5.46808 29.5484 5.67999 29.5945C7.8478 30.0656 10.0496 30.0903 12.004 28.9244Z" fill="url(#paint6_linear_18_22378)"/>
<path d="M12.004 28.9244C13.3267 28.2353 14.23 26.8516 14.23 25.2568C14.23 22.9743 12.3796 21.124 10.0972 21.124C7.8147 21.124 5.96436 22.9743 5.96436 25.2568C5.96436 25.666 6.0238 26.0612 6.13452 26.4344C6.26599 27.0686 6.26733 28.1032 5.54681 28.7084C5.41681 28.8176 5.32373 28.9711 5.32373 29.1409C5.32373 29.3578 5.46808 29.5484 5.67999 29.5945C7.8478 30.0656 10.0496 30.0903 12.004 28.9244Z" fill="url(#paint7_linear_18_22378)"/>
<path d="M12.004 28.9244C13.3267 28.2353 14.23 26.8516 14.23 25.2568C14.23 22.9743 12.3796 21.124 10.0972 21.124C7.8147 21.124 5.96436 22.9743 5.96436 25.2568C5.96436 25.666 6.0238 26.0612 6.13452 26.4344C6.26599 27.0686 6.26733 28.1032 5.54681 28.7084C5.41681 28.8176 5.32373 28.9711 5.32373 29.1409C5.32373 29.3578 5.46808 29.5484 5.67999 29.5945C7.8478 30.0656 10.0496 30.0903 12.004 28.9244Z" fill="url(#paint8_linear_18_22378)"/>
<path d="M12.004 28.9244C13.3267 28.2353 14.23 26.8516 14.23 25.2568C14.23 22.9743 12.3796 21.124 10.0972 21.124C7.8147 21.124 5.96436 22.9743 5.96436 25.2568C5.96436 25.666 6.0238 26.0612 6.13452 26.4344C6.26599 27.0686 6.26733 28.1032 5.54681 28.7084C5.41681 28.8176 5.32373 28.9711 5.32373 29.1409C5.32373 29.3578 5.46808 29.5484 5.67999 29.5945C7.8478 30.0656 10.0496 30.0903 12.004 28.9244Z" fill="url(#paint9_radial_18_22378)"/>
<path d="M11.039 18.4965C11.1679 18.3171 11.4178 18.2761 11.5972 18.405L15.8334 21.4476C16.0128 21.5765 16.0538 21.8264 15.9249 22.0059L14.8507 23.5015C14.5285 23.9501 13.9036 24.0525 13.4551 23.7303L10.1936 21.3877C9.74499 21.0656 9.64254 20.4407 9.96472 19.9922L11.039 18.4965Z" fill="#9E98A3"/>
<path d="M11.039 18.4965C11.1679 18.3171 11.4178 18.2761 11.5972 18.405L15.8334 21.4476C16.0128 21.5765 16.0538 21.8264 15.9249 22.0059L14.8507 23.5015C14.5285 23.9501 13.9036 24.0525 13.4551 23.7303L10.1936 21.3877C9.74499 21.0656 9.64254 20.4407 9.96472 19.9922L11.039 18.4965Z" fill="url(#paint10_linear_18_22378)"/>
<path d="M11.039 18.4965C11.1679 18.3171 11.4178 18.2761 11.5972 18.405L15.8334 21.4476C16.0128 21.5765 16.0538 21.8264 15.9249 22.0059L14.8507 23.5015C14.5285 23.9501 13.9036 24.0525 13.4551 23.7303L10.1936 21.3877C9.74499 21.0656 9.64254 20.4407 9.96472 19.9922L11.039 18.4965Z" fill="url(#paint11_linear_18_22378)"/>
<path d="M11.039 18.4965C11.1679 18.3171 11.4178 18.2761 11.5972 18.405L15.8334 21.4476C16.0128 21.5765 16.0538 21.8264 15.9249 22.0059L14.8507 23.5015C14.5285 23.9501 13.9036 24.0525 13.4551 23.7303L10.1936 21.3877C9.74499 21.0656 9.64254 20.4407 9.96472 19.9922L11.039 18.4965Z" fill="url(#paint12_linear_18_22378)"/>
<path d="M11.039 18.4965C11.1679 18.3171 11.4178 18.2761 11.5972 18.405L15.8334 21.4476C16.0128 21.5765 16.0538 21.8264 15.9249 22.0059L14.8507 23.5015C14.5285 23.9501 13.9036 24.0525 13.4551 23.7303L10.1936 21.3877C9.74499 21.0656 9.64254 20.4407 9.96472 19.9922L11.039 18.4965Z" fill="url(#paint13_radial_18_22378)"/>
<path d="M11.039 18.4965C11.1679 18.3171 11.4178 18.2761 11.5972 18.405L15.8334 21.4476C16.0128 21.5765 16.0538 21.8264 15.9249 22.0059L14.8507 23.5015C14.5285 23.9501 13.9036 24.0525 13.4551 23.7303L10.1936 21.3877C9.74499 21.0656 9.64254 20.4407 9.96472 19.9922L11.039 18.4965Z" fill="url(#paint14_radial_18_22378)"/>
<defs>
<linearGradient id="paint0_linear_18_22378" x1="25.9038" y1="2.07471" x2="15.1538" y2="18.6874" gradientUnits="userSpaceOnUse">
<stop stop-color="#F9309C"/>
<stop offset="1" stop-color="#FF355A"/>
</linearGradient>
<linearGradient id="paint1_linear_18_22378" x1="16.4622" y1="11.3385" x2="17.5538" y2="12.2014" gradientUnits="userSpaceOnUse">
<stop stop-color="#CA495C"/>
<stop offset="1" stop-color="#CA495C" stop-opacity="0"/>
</linearGradient>
<radialGradient id="paint2_radial_18_22378" cx="0" cy="0" r="1" gradientUnits="userSpaceOnUse" gradientTransform="translate(20.625 10.5624) rotate(-55.7557) scale(11.341 1.34241)">
<stop stop-color="#FF65C1"/>
<stop offset="1" stop-color="#FF65C1" stop-opacity="0"/>
</radialGradient>
<radialGradient id="paint3_radial_18_22378" cx="0" cy="0" r="1" gradientUnits="userSpaceOnUse" gradientTransform="translate(11.5425 23.6172) rotate(126.983) scale(6.33751 5.38645)">
<stop offset="0.169422" stop-color="#FFD060"/>
<stop offset="1" stop-color="#FF9452"/>
</radialGradient>
<radialGradient id="paint4_radial_18_22378" cx="0" cy="0" r="1" gradientUnits="userSpaceOnUse" gradientTransform="translate(8.99762 23.625) rotate(82.9189) scale(6.32116 8.89957)">
<stop offset="0.723529" stop-color="#FF836A" stop-opacity="0"/>
<stop offset="1" stop-color="#FF6677"/>
</radialGradient>
<linearGradient id="paint5_linear_18_22378" x1="12.4039" y1="22.3125" x2="11.7789" y2="23.3125" gradientUnits="userSpaceOnUse">
<stop offset="0.245714" stop-color="#FCA94C"/>
<stop offset="1" stop-color="#FCA94C" stop-opacity="0"/>
</linearGradient>
<linearGradient id="paint6_linear_18_22378" x1="7.45029" y1="21.124" x2="8.56052" y2="22.9336" gradientUnits="userSpaceOnUse">
<stop stop-color="#D67743"/>
<stop offset="1" stop-color="#D67743" stop-opacity="0"/>
</linearGradient>
<linearGradient id="paint7_linear_18_22378" x1="4.85975" y1="24.2553" x2="7.05378" y2="24.8368" gradientUnits="userSpaceOnUse">
<stop stop-color="#D67743"/>
<stop offset="1" stop-color="#D67743" stop-opacity="0"/>
</linearGradient>
<linearGradient id="paint8_linear_18_22378" x1="4.99192" y1="26.2642" x2="6.4458" y2="26.3171" gradientUnits="userSpaceOnUse">
<stop stop-color="#D67743"/>
<stop offset="1" stop-color="#D67743" stop-opacity="0"/>
</linearGradient>
<radialGradient id="paint9_radial_18_22378" cx="0" cy="0" r="1" gradientUnits="userSpaceOnUse" gradientTransform="translate(5.7652 26.2493) rotate(83.0888) scale(2.19989 0.999736)">
<stop stop-color="#D67743"/>
<stop offset="1" stop-color="#D67743" stop-opacity="0"/>
</radialGradient>
<linearGradient id="paint10_linear_18_22378" x1="11.6421" y1="22.8179" x2="12.4232" y2="21.7172" gradientUnits="userSpaceOnUse">
<stop offset="0.0865052" stop-color="#9A7F86"/>
<stop offset="1" stop-color="#9A7F86" stop-opacity="0"/>
</linearGradient>
<linearGradient id="paint11_linear_18_22378" x1="10.3283" y1="19.2317" x2="13.0978" y2="21.124" gradientUnits="userSpaceOnUse">
<stop offset="0.12496" stop-color="#7F7D80"/>
<stop offset="1" stop-color="#7F7D80" stop-opacity="0"/>
</linearGradient>
<linearGradient id="paint12_linear_18_22378" x1="15.6543" y1="23.9182" x2="13.5239" y2="22.2142" gradientUnits="userSpaceOnUse">
<stop stop-color="#AE7FCD"/>
<stop offset="1" stop-color="#AE7FCD" stop-opacity="0"/>
</linearGradient>
<radialGradient id="paint13_radial_18_22378" cx="0" cy="0" r="1" gradientUnits="userSpaceOnUse" gradientTransform="translate(14.4826 19.5157) rotate(129.906) scale(3.72734 3.36182)">
<stop stop-color="#B9B0C3"/>
<stop offset="1" stop-color="#A199A9" stop-opacity="0"/>
</radialGradient>
<radialGradient id="paint14_radial_18_22378" cx="0" cy="0" r="1" gradientUnits="userSpaceOnUse" gradientTransform="translate(14.4826 19.7288) rotate(128.234) scale(1.4917 2.76943)">
<stop offset="0.174504" stop-color="#B9B0C3"/>
<stop offset="1" stop-color="#B9B0C3" stop-opacity="0"/>
</radialGradient>
</defs>
</svg>
