<svg width="32" height="32" viewBox="0 0 32 32" fill="none" xmlns="http://www.w3.org/2000/svg">
<path fill-rule="evenodd" clip-rule="evenodd" d="M16.188 30.0166C23.9292 30.0166 30.2046 23.7412 30.2046 16C30.2046 8.25885 23.9292 1.9834 16.188 1.9834C8.44684 1.9834 2.17139 8.25885 2.17139 16C2.17139 23.7412 8.44684 30.0166 16.188 30.0166ZM16.188 19.3118C18.0171 19.3118 19.4998 17.8291 19.4998 16C19.4998 14.1709 18.0171 12.6882 16.188 12.6882C14.3589 12.6882 12.8762 14.1709 12.8762 16C12.8762 17.8291 14.3589 19.3118 16.188 19.3118Z" fill="url(#paint0_linear_18_19843)"/>
<path fill-rule="evenodd" clip-rule="evenodd" d="M16.188 30.0166C23.9292 30.0166 30.2046 23.7412 30.2046 16C30.2046 8.25885 23.9292 1.9834 16.188 1.9834C8.44684 1.9834 2.17139 8.25885 2.17139 16C2.17139 23.7412 8.44684 30.0166 16.188 30.0166ZM16.188 19.3118C18.0171 19.3118 19.4998 17.8291 19.4998 16C19.4998 14.1709 18.0171 12.6882 16.188 12.6882C14.3589 12.6882 12.8762 14.1709 12.8762 16C12.8762 17.8291 14.3589 19.3118 16.188 19.3118Z" fill="url(#paint1_radial_18_19843)" fill-opacity="0.8"/>
<path fill-rule="evenodd" clip-rule="evenodd" d="M16.188 30.0166C23.9292 30.0166 30.2046 23.7412 30.2046 16C30.2046 8.25885 23.9292 1.9834 16.188 1.9834C8.44684 1.9834 2.17139 8.25885 2.17139 16C2.17139 23.7412 8.44684 30.0166 16.188 30.0166ZM16.188 19.3118C18.0171 19.3118 19.4998 17.8291 19.4998 16C19.4998 14.1709 18.0171 12.6882 16.188 12.6882C14.3589 12.6882 12.8762 14.1709 12.8762 16C12.8762 17.8291 14.3589 19.3118 16.188 19.3118Z" fill="url(#paint2_radial_18_19843)"/>
<path fill-rule="evenodd" clip-rule="evenodd" d="M16.1882 29.1159C23.432 29.1159 29.3042 23.2437 29.3042 16C29.3042 8.75625 23.432 2.88403 16.1882 2.88403C8.94448 2.88403 3.07227 8.75625 3.07227 16C3.07227 23.2437 8.94448 29.1159 16.1882 29.1159ZM19.9598 16C19.9598 17.8291 18.0173 19.9029 16.1882 19.9029C14.3591 19.9029 12.1915 17.8291 12.1915 16C12.1915 14.1709 14.3591 11.9845 16.1882 11.9845C18.0173 11.9845 19.9598 14.1709 19.9598 16Z" fill="url(#paint3_linear_18_19843)"/>
<path d="M12.8942 13.1752C13.69 12.2481 14.8705 11.6608 16.1881 11.6608C17.4006 11.6608 18.497 12.1582 19.2844 12.96L25.0673 7.1771C25.3013 6.9431 25.3028 6.5628 25.0591 6.33891C22.724 4.19366 19.609 2.88403 16.1881 2.88403C12.5662 2.88403 9.28725 4.35209 6.91373 6.72561C6.83554 6.8038 6.75834 6.88298 6.68213 6.96311L12.8942 13.1752Z" fill="url(#paint4_linear_18_19843)"/>
<path d="M12.8942 13.1752C13.69 12.2481 14.8705 11.6608 16.1881 11.6608C17.4006 11.6608 18.497 12.1582 19.2844 12.96L25.0673 7.1771C25.3013 6.9431 25.3028 6.5628 25.0591 6.33891C22.724 4.19366 19.609 2.88403 16.1881 2.88403C12.5662 2.88403 9.28725 4.35209 6.91373 6.72561C6.83554 6.8038 6.75834 6.88298 6.68213 6.96311L12.8942 13.1752Z" fill="url(#paint5_linear_18_19843)"/>
<path d="M12.8942 13.1752C13.69 12.2481 14.8705 11.6608 16.1881 11.6608C17.4006 11.6608 18.497 12.1582 19.2844 12.96L25.0673 7.1771C25.3013 6.9431 25.3028 6.5628 25.0591 6.33891C22.724 4.19366 19.609 2.88403 16.1881 2.88403C12.5662 2.88403 9.28725 4.35209 6.91373 6.72561C6.83554 6.8038 6.75834 6.88298 6.68213 6.96311L12.8942 13.1752Z" fill="url(#paint6_linear_18_19843)"/>
<path d="M12.8942 13.1752C13.69 12.2481 14.8705 11.6608 16.1881 11.6608C17.4006 11.6608 18.497 12.1582 19.2844 12.96L25.0673 7.1771C25.3013 6.9431 25.3028 6.5628 25.0591 6.33891C22.724 4.19366 19.609 2.88403 16.1881 2.88403C12.5662 2.88403 9.28725 4.35209 6.91373 6.72561C6.83554 6.8038 6.75834 6.88298 6.68213 6.96311L12.8942 13.1752Z" fill="url(#paint7_linear_18_19843)"/>
<path d="M12.8942 13.1752C13.69 12.2481 14.8705 11.6608 16.1881 11.6608C17.4006 11.6608 18.497 12.1582 19.2844 12.96L25.0673 7.1771C25.3013 6.9431 25.3028 6.5628 25.0591 6.33891C22.724 4.19366 19.609 2.88403 16.1881 2.88403C12.5662 2.88403 9.28725 4.35209 6.91373 6.72561C6.83554 6.8038 6.75834 6.88298 6.68213 6.96311L12.8942 13.1752Z" fill="url(#paint8_radial_18_19843)"/>
<path d="M12.8942 13.1752C13.69 12.2481 14.8705 11.6608 16.1881 11.6608C17.4006 11.6608 18.497 12.1582 19.2844 12.96L25.0673 7.1771C25.3013 6.9431 25.3028 6.5628 25.0591 6.33891C22.724 4.19366 19.609 2.88403 16.1881 2.88403C12.5662 2.88403 9.28725 4.35209 6.91373 6.72561C6.83554 6.8038 6.75834 6.88298 6.68213 6.96311L12.8942 13.1752Z" fill="url(#paint9_radial_18_19843)"/>
<path d="M19.013 19.2938C18.2539 19.9454 17.2671 20.3391 16.1882 20.3391C15.0043 20.3391 13.9312 19.8649 13.1483 19.0962L7.3679 24.8765C7.13292 25.1115 7.13259 25.4938 7.37873 25.7171C9.70688 27.8291 12.7973 29.1159 16.1882 29.1159C19.3574 29.1159 22.264 27.9919 24.5312 26.1208C24.7697 25.924 25.0012 25.7189 25.2251 25.5059L19.013 19.2938Z" fill="url(#paint10_linear_18_19843)"/>
<path d="M19.013 19.2938C18.2539 19.9454 17.2671 20.3391 16.1882 20.3391C15.0043 20.3391 13.9312 19.8649 13.1483 19.0962L7.3679 24.8765C7.13292 25.1115 7.13259 25.4938 7.37873 25.7171C9.70688 27.8291 12.7973 29.1159 16.1882 29.1159C19.3574 29.1159 22.264 27.9919 24.5312 26.1208C24.7697 25.924 25.0012 25.7189 25.2251 25.5059L19.013 19.2938Z" fill="url(#paint11_linear_18_19843)"/>
<path d="M19.013 19.2938C18.2539 19.9454 17.2671 20.3391 16.1882 20.3391C15.0043 20.3391 13.9312 19.8649 13.1483 19.0962L7.3679 24.8765C7.13292 25.1115 7.13259 25.4938 7.37873 25.7171C9.70688 27.8291 12.7973 29.1159 16.1882 29.1159C19.3574 29.1159 22.264 27.9919 24.5312 26.1208C24.7697 25.924 25.0012 25.7189 25.2251 25.5059L19.013 19.2938Z" fill="url(#paint12_linear_18_19843)" fill-opacity="0.75"/>
<path d="M19.013 19.2938C18.2539 19.9454 17.2671 20.3391 16.1882 20.3391C15.0043 20.3391 13.9312 19.8649 13.1483 19.0962L7.3679 24.8765C7.13292 25.1115 7.13259 25.4938 7.37873 25.7171C9.70688 27.8291 12.7973 29.1159 16.1882 29.1159C19.3574 29.1159 22.264 27.9919 24.5312 26.1208C24.7697 25.924 25.0012 25.7189 25.2251 25.5059L19.013 19.2938Z" fill="url(#paint13_linear_18_19843)" fill-opacity="0.75"/>
<path d="M19.013 19.2938C18.2539 19.9454 17.2671 20.3391 16.1882 20.3391C15.0043 20.3391 13.9312 19.8649 13.1483 19.0962L7.3679 24.8765C7.13292 25.1115 7.13259 25.4938 7.37873 25.7171C9.70688 27.8291 12.7973 29.1159 16.1882 29.1159C19.3574 29.1159 22.264 27.9919 24.5312 26.1208C24.7697 25.924 25.0012 25.7189 25.2251 25.5059L19.013 19.2938Z" fill="url(#paint14_radial_18_19843)"/>
<path d="M26.4696 7.85571L19.2181 13.881C19.6737 14.5442 19.9595 15.2984 19.9595 16.0001C19.9595 16.8957 19.4938 17.85 18.8037 18.5907C21.1887 20.778 24.1432 23.4805 25.774 24.9521C27.9637 22.6082 29.3039 19.4607 29.3039 16.0001C29.3039 12.9227 28.2441 10.0929 26.4696 7.85571Z" fill="url(#paint15_linear_18_19843)"/>
<path d="M26.4696 7.85571L19.2181 13.881C19.6737 14.5442 19.9595 15.2984 19.9595 16.0001C19.9595 16.8957 19.4938 17.85 18.8037 18.5907C21.1887 20.778 24.1432 23.4805 25.774 24.9521C27.9637 22.6082 29.3039 19.4607 29.3039 16.0001C29.3039 12.9227 28.2441 10.0929 26.4696 7.85571Z" fill="url(#paint16_linear_18_19843)"/>
<path d="M26.4696 7.85571L19.2181 13.881C19.6737 14.5442 19.9595 15.2984 19.9595 16.0001C19.9595 16.8957 19.4938 17.85 18.8037 18.5907C21.1887 20.778 24.1432 23.4805 25.774 24.9521C27.9637 22.6082 29.3039 19.4607 29.3039 16.0001C29.3039 12.9227 28.2441 10.0929 26.4696 7.85571Z" fill="url(#paint17_linear_18_19843)"/>
<path d="M26.4696 7.85571L19.2181 13.881C19.6737 14.5442 19.9595 15.2984 19.9595 16.0001C19.9595 16.8957 19.4938 17.85 18.8037 18.5907C21.1887 20.778 24.1432 23.4805 25.774 24.9521C27.9637 22.6082 29.3039 19.4607 29.3039 16.0001C29.3039 12.9227 28.2441 10.0929 26.4696 7.85571Z" fill="url(#paint18_radial_18_19843)"/>
<path d="M5.90663 7.85571L13.1581 13.881C12.7025 14.5442 12.4167 15.2984 12.4167 16.0001C12.4167 16.8957 12.8824 17.85 13.5725 18.5907C11.1875 20.778 8.233 23.4805 6.60221 24.9521C4.41249 22.6082 3.07227 19.4607 3.07227 16.0001C3.07227 12.9227 4.13208 10.0929 5.90663 7.85571Z" fill="url(#paint19_linear_18_19843)"/>
<path d="M5.90663 7.85571L13.1581 13.881C12.7025 14.5442 12.4167 15.2984 12.4167 16.0001C12.4167 16.8957 12.8824 17.85 13.5725 18.5907C11.1875 20.778 8.233 23.4805 6.60221 24.9521C4.41249 22.6082 3.07227 19.4607 3.07227 16.0001C3.07227 12.9227 4.13208 10.0929 5.90663 7.85571Z" fill="url(#paint20_linear_18_19843)"/>
<path d="M5.90663 7.85571L13.1581 13.881C12.7025 14.5442 12.4167 15.2984 12.4167 16.0001C12.4167 16.8957 12.8824 17.85 13.5725 18.5907C11.1875 20.778 8.233 23.4805 6.60221 24.9521C4.41249 22.6082 3.07227 19.4607 3.07227 16.0001C3.07227 12.9227 4.13208 10.0929 5.90663 7.85571Z" fill="url(#paint21_linear_18_19843)"/>
<path d="M5.90663 7.85571L13.1581 13.881C12.7025 14.5442 12.4167 15.2984 12.4167 16.0001C12.4167 16.8957 12.8824 17.85 13.5725 18.5907C11.1875 20.778 8.233 23.4805 6.60221 24.9521C4.41249 22.6082 3.07227 19.4607 3.07227 16.0001C3.07227 12.9227 4.13208 10.0929 5.90663 7.85571Z" fill="url(#paint22_radial_18_19843)"/>
<path fill-rule="evenodd" clip-rule="evenodd" d="M16.1883 20.3392C18.5847 20.3392 20.5274 18.3965 20.5274 16C20.5274 13.6036 18.5847 11.6609 16.1883 11.6609C13.7918 11.6609 11.8491 13.6036 11.8491 16C11.8491 18.3965 13.7918 20.3392 16.1883 20.3392ZM19.5001 16C19.5001 17.8291 18.0173 19.3119 16.1883 19.3119C14.3592 19.3119 12.8764 17.8291 12.8764 16C12.8764 14.171 14.3592 12.6882 16.1883 12.6882C18.0173 12.6882 19.5001 14.171 19.5001 16Z" fill="url(#paint23_radial_18_19843)"/>
<path fill-rule="evenodd" clip-rule="evenodd" d="M16.1883 20.3392C18.5847 20.3392 20.5274 18.3965 20.5274 16C20.5274 13.6036 18.5847 11.6609 16.1883 11.6609C13.7918 11.6609 11.8491 13.6036 11.8491 16C11.8491 18.3965 13.7918 20.3392 16.1883 20.3392ZM19.5001 16C19.5001 17.8291 18.0173 19.3119 16.1883 19.3119C14.3592 19.3119 12.8764 17.8291 12.8764 16C12.8764 14.171 14.3592 12.6882 16.1883 12.6882C18.0173 12.6882 19.5001 14.171 19.5001 16Z" fill="url(#paint24_radial_18_19843)" fill-opacity="0.55"/>
<path fill-rule="evenodd" clip-rule="evenodd" d="M16.1883 20.3392C18.5847 20.3392 20.5274 18.3965 20.5274 16C20.5274 13.6036 18.5847 11.6609 16.1883 11.6609C13.7918 11.6609 11.8491 13.6036 11.8491 16C11.8491 18.3965 13.7918 20.3392 16.1883 20.3392ZM19.5001 16C19.5001 17.8291 18.0173 19.3119 16.1883 19.3119C14.3592 19.3119 12.8764 17.8291 12.8764 16C12.8764 14.171 14.3592 12.6882 16.1883 12.6882C18.0173 12.6882 19.5001 14.171 19.5001 16Z" fill="url(#paint25_radial_18_19843)" fill-opacity="0.55"/>
<path fill-rule="evenodd" clip-rule="evenodd" d="M20.6775 15.9999C20.6775 18.4792 18.6677 20.489 16.1884 20.489C13.7091 20.489 11.6992 18.4792 11.6992 15.9999C11.6992 13.5206 13.7091 11.5107 16.1884 11.5107C18.6677 11.5107 20.6775 13.5206 20.6775 15.9999ZM20.5275 15.9999C20.5275 18.3963 18.5848 20.339 16.1884 20.339C13.7919 20.339 11.8492 18.3963 11.8492 15.9999C11.8492 13.6034 13.7919 11.6607 16.1884 11.6607C18.5848 11.6607 20.5275 13.6034 20.5275 15.9999Z" fill="url(#paint26_radial_18_19843)"/>
<defs>
<linearGradient id="paint0_linear_18_19843" x1="16.188" y1="1.9834" x2="16.188" y2="30.0166" gradientUnits="userSpaceOnUse">
<stop stop-color="#D0C9D8"/>
<stop offset="1" stop-color="#B09AC4"/>
</linearGradient>
<radialGradient id="paint1_radial_18_19843" cx="0" cy="0" r="1" gradientUnits="userSpaceOnUse" gradientTransform="translate(17.4077 11.3466) rotate(113.08) scale(20.2945 17.7684)">
<stop offset="0.867949" stop-color="#AD95C4" stop-opacity="0"/>
<stop offset="0.986913" stop-color="#89729F"/>
</radialGradient>
<radialGradient id="paint2_radial_18_19843" cx="0" cy="0" r="1" gradientUnits="userSpaceOnUse" gradientTransform="translate(15.2395 16.8714) rotate(-62.473) scale(17.5209 18.1672)">
<stop offset="0.792532" stop-color="#CFC6D8" stop-opacity="0"/>
<stop offset="0.871629" stop-color="#E3DDE9"/>
</radialGradient>
<linearGradient id="paint3_linear_18_19843" x1="16.1882" y1="8.41938" x2="16.1882" y2="29.1159" gradientUnits="userSpaceOnUse">
<stop stop-color="#D1C7DB"/>
<stop offset="1" stop-color="#BFACD0"/>
</linearGradient>
<linearGradient id="paint4_linear_18_19843" x1="25.2423" y1="6.91827" x2="11.7807" y2="6.91827" gradientUnits="userSpaceOnUse">
<stop offset="0.168566" stop-color="#FCF2FF"/>
<stop offset="0.490517" stop-color="#F6E6FA"/>
<stop offset="1" stop-color="#FDEBFF" stop-opacity="0"/>
</linearGradient>
<linearGradient id="paint5_linear_18_19843" x1="24.1737" y1="9.90972" x2="22.5647" y2="8.30068" gradientUnits="userSpaceOnUse">
<stop offset="0.539336" stop-color="#D1C7DB"/>
<stop offset="0.576015" stop-color="#D1C6DB"/>
<stop offset="0.740817" stop-color="#F6E6FA" stop-opacity="0.21"/>
<stop offset="0.918651" stop-color="#F5E5F9" stop-opacity="0"/>
</linearGradient>
<linearGradient id="paint6_linear_18_19843" x1="26.6953" y1="6.40821" x2="24.3893" y2="6.37907" gradientUnits="userSpaceOnUse">
<stop offset="0.353699" stop-color="#CAC1D5"/>
<stop offset="0.616175" stop-color="#D2C8DC"/>
<stop offset="0.69111" stop-color="#D2C7DC" stop-opacity="0.4"/>
<stop offset="0.837657" stop-color="#FCEAFE" stop-opacity="0"/>
</linearGradient>
<linearGradient id="paint7_linear_18_19843" x1="8.60127" y1="12.2253" x2="11.3804" y2="8.41396" gradientUnits="userSpaceOnUse">
<stop offset="0.421457" stop-color="#CDC1D9"/>
<stop offset="0.616175" stop-color="#D2C8DC"/>
<stop offset="1" stop-color="#D2C7DC" stop-opacity="0.4"/>
</linearGradient>
<radialGradient id="paint8_radial_18_19843" cx="0" cy="0" r="1" gradientUnits="userSpaceOnUse" gradientTransform="translate(15.2943 15.7601) rotate(-87.2501) scale(13.9229 15.398)">
<stop offset="0.91225" stop-color="#FBEAFD" stop-opacity="0"/>
<stop offset="0.931255" stop-color="#CFC7D7"/>
</radialGradient>
<radialGradient id="paint9_radial_18_19843" cx="0" cy="0" r="1" gradientUnits="userSpaceOnUse" gradientTransform="translate(16.2641 16.2401) rotate(-92.261) scale(14.5315 14.7062)">
<stop offset="0.912386" stop-color="#E0D4E8" stop-opacity="0"/>
<stop offset="0.917956" stop-color="#CFC8D8"/>
</radialGradient>
<linearGradient id="paint10_linear_18_19843" x1="11.3659" y1="19.9403" x2="19.2294" y2="19.9403" gradientUnits="userSpaceOnUse">
<stop stop-color="#EBD8FE"/>
<stop offset="1" stop-color="#EBD8FE" stop-opacity="0"/>
</linearGradient>
<linearGradient id="paint11_linear_18_19843" x1="9.58359" y1="20.5815" x2="11.3909" y2="22.376" gradientUnits="userSpaceOnUse">
<stop offset="0.534517" stop-color="#C5B5D4"/>
<stop offset="0.573568" stop-color="#C6B6D4"/>
<stop offset="0.659418" stop-color="#C6B6D5" stop-opacity="0.59"/>
<stop offset="0.868953" stop-color="#EDDAFF" stop-opacity="0"/>
</linearGradient>
<linearGradient id="paint12_linear_18_19843" x1="5.98746" y1="25.6337" x2="7.89909" y2="25.5783" gradientUnits="userSpaceOnUse">
<stop offset="0.552729" stop-color="#C3B2D3"/>
<stop offset="0.646328" stop-color="#C3B2D3" stop-opacity="0.96"/>
<stop offset="0.726618" stop-color="#C3B2D3" stop-opacity="0.39"/>
<stop offset="0.831067" stop-color="#C3B2D3" stop-opacity="0"/>
</linearGradient>
<linearGradient id="paint13_linear_18_19843" x1="22.5789" y1="21.9014" x2="21.5811" y2="22.4396" gradientUnits="userSpaceOnUse">
<stop offset="0.552729" stop-color="#C3B2D3"/>
<stop offset="0.646328" stop-color="#C3B2D3" stop-opacity="0.96"/>
<stop offset="0.726618" stop-color="#C3B2D3" stop-opacity="0.39"/>
<stop offset="0.831067" stop-color="#C3B2D3" stop-opacity="0"/>
</linearGradient>
<radialGradient id="paint14_radial_18_19843" cx="0" cy="0" r="1" gradientUnits="userSpaceOnUse" gradientTransform="translate(16.209 15.9908) rotate(90) scale(13.1251 13.5842)">
<stop offset="0.960968" stop-color="#D8C6EA" stop-opacity="0"/>
<stop offset="0.978067" stop-color="#B19BC5" stop-opacity="0.26"/>
<stop offset="1" stop-color="#B19BC5"/>
</radialGradient>
<linearGradient id="paint15_linear_18_19843" x1="24.0538" y1="9.75008" x2="24.0538" y2="22.4376" gradientUnits="userSpaceOnUse">
<stop stop-color="#E8C0DD"/>
<stop offset="0.295567" stop-color="#EED0DE"/>
<stop offset="0.655513" stop-color="#D0CFDE"/>
<stop offset="1" stop-color="#CDB9F2"/>
</linearGradient>
<linearGradient id="paint16_linear_18_19843" x1="22.1874" y1="10.9376" x2="23.4999" y2="12.7501" gradientUnits="userSpaceOnUse">
<stop offset="0.234399" stop-color="#CFC3DA"/>
<stop offset="1" stop-color="#D2C8DC" stop-opacity="0"/>
</linearGradient>
<linearGradient id="paint17_linear_18_19843" x1="21.7186" y1="21.2501" x2="22.9061" y2="19.8126" gradientUnits="userSpaceOnUse">
<stop stop-color="#C6B6D5"/>
<stop offset="1" stop-color="#C6B6D5" stop-opacity="0"/>
</linearGradient>
<radialGradient id="paint18_radial_18_19843" cx="0" cy="0" r="1" gradientUnits="userSpaceOnUse" gradientTransform="translate(19.3088 15.9708) rotate(0.542427) scale(10.2537 12.7001)">
<stop offset="0.92122" stop-color="#D8C6EA" stop-opacity="0"/>
<stop offset="0.94631" stop-color="#BFB0CE" stop-opacity="0.29"/>
<stop offset="0.976949" stop-color="#BEAECD"/>
</radialGradient>
<linearGradient id="paint19_linear_18_19843" x1="9.75012" y1="22.1251" x2="9.75012" y2="10.8126" gradientUnits="userSpaceOnUse">
<stop stop-color="#E8C0DD"/>
<stop offset="0.295567" stop-color="#EED0DE"/>
<stop offset="0.655513" stop-color="#D0CFDE"/>
<stop offset="1" stop-color="#CDB9F2"/>
</linearGradient>
<linearGradient id="paint20_linear_18_19843" x1="10.1888" y1="10.9376" x2="8.32237" y2="13.3751" gradientUnits="userSpaceOnUse">
<stop offset="0.0529532" stop-color="#D1C7DC"/>
<stop offset="0.234399" stop-color="#D2C8DC"/>
<stop offset="1" stop-color="#D2C8DC" stop-opacity="0"/>
</linearGradient>
<linearGradient id="paint21_linear_18_19843" x1="10.9376" y1="21.2501" x2="9.50012" y2="18.9376" gradientUnits="userSpaceOnUse">
<stop stop-color="#C6B6D5"/>
<stop offset="1" stop-color="#C6B6D5" stop-opacity="0"/>
</linearGradient>
<radialGradient id="paint22_radial_18_19843" cx="0" cy="0" r="1" gradientUnits="userSpaceOnUse" gradientTransform="translate(13.2324 16.1381) rotate(177.236) scale(11.6743 13.8851)">
<stop offset="0.8018" stop-color="#D8C6EA" stop-opacity="0"/>
<stop offset="0.859532" stop-color="#BFB0CE" stop-opacity="0.69"/>
<stop offset="0.871325" stop-color="#BEAECD"/>
</radialGradient>
<radialGradient id="paint23_radial_18_19843" cx="0" cy="0" r="1" gradientUnits="userSpaceOnUse" gradientTransform="translate(12.7545 16) scale(9.23183)">
<stop offset="0.62037" stop-color="#C9B9DB"/>
<stop offset="0.899659" stop-color="#C7B8D4"/>
</radialGradient>
<radialGradient id="paint24_radial_18_19843" cx="0" cy="0" r="1" gradientUnits="userSpaceOnUse" gradientTransform="translate(16.0835 16) scale(5.1498 5.44238)">
<stop offset="0.739855" stop-color="#C1B1D2" stop-opacity="0"/>
<stop offset="0.868611" stop-color="#AA99BC"/>
<stop offset="1" stop-color="#C1B1D2" stop-opacity="0"/>
</radialGradient>
<radialGradient id="paint25_radial_18_19843" cx="0" cy="0" r="1" gradientUnits="userSpaceOnUse" gradientTransform="translate(16.1882 16) scale(4.78383 4.72415)">
<stop offset="0.558041" stop-color="#C1B1D2" stop-opacity="0"/>
<stop offset="0.700407" stop-color="#AA99BC" stop-opacity="0.69"/>
<stop offset="0.765536" stop-color="#C1B1D2" stop-opacity="0"/>
</radialGradient>
<radialGradient id="paint26_radial_18_19843" cx="0" cy="0" r="1" gradientUnits="userSpaceOnUse" gradientTransform="translate(16.1884 15.9999) rotate(90.0001) scale(4.77072)">
<stop offset="0.908597" stop-color="#BEAFD5"/>
<stop offset="0.940616" stop-color="#C6B7DC" stop-opacity="0"/>
</radialGradient>
</defs>
</svg>
