<svg width="32" height="32" viewBox="0 0 32 32" fill="none" xmlns="http://www.w3.org/2000/svg">
<path d="M20.5214 7.48198C21.3213 9.8044 22.7715 13.1105 23.8485 14.605C24.0391 14.1123 24.1771 13.4955 24.2374 12.9531C24.2583 12.765 24.3898 11.543 24.5735 10.9968C24.7949 10.3386 25.2512 9.77242 25.9373 9.55082C27.054 9.19016 28.2672 9.8514 28.6471 11.0277C28.6821 11.1361 28.7088 11.2452 28.7276 11.354C28.8582 11.9131 28.7676 12.4269 28.7139 12.7656C28.6306 13.2917 28.4421 14.5531 28.3546 15.3906C28.2452 16.4375 28.1827 18.1953 28.4796 20.1719C28.7796 21.5844 28.6983 23.0833 28.6202 23.6563C27.7596 29.967 20.7726 30.4375 18.8076 29.5068C17.4688 29.0717 16.049 28.0364 14.0968 26.0391C11.8142 23.7037 9.72934 21.1334 8.5686 19.3956C8.30634 19.0491 8.15076 18.6174 8.15076 18.1493C8.15076 17.0078 9.07614 16.0824 10.2177 16.0824C10.4363 16.0824 10.647 16.1164 10.8448 16.1793C10.4679 15.4449 10.1639 14.8029 9.92706 14.0928C9.85455 13.8819 9.81517 13.6557 9.81517 13.4202C9.81517 12.2787 10.7406 11.3533 11.8821 11.3533C12.5151 11.3533 13.0817 11.638 13.4609 12.0862C13.3413 11.8187 12.6263 10.0538 12.501 9.23121C12.193 6.91329 15.3498 5.85077 16.4225 8.05359C16.4228 5.68555 19.7216 5.15967 20.5214 7.48198Z" fill="url(#paint0_radial_20020_1063)"/>
<path d="M20.5214 7.48198C21.3213 9.8044 22.7715 13.1105 23.8485 14.605C24.0391 14.1123 24.1771 13.4955 24.2374 12.9531C24.2583 12.765 24.3898 11.543 24.5735 10.9968C24.7949 10.3386 25.2512 9.77242 25.9373 9.55082C27.054 9.19016 28.2672 9.8514 28.6471 11.0277C28.6821 11.1361 28.7088 11.2452 28.7276 11.354C28.8582 11.9131 28.7676 12.4269 28.7139 12.7656C28.6306 13.2917 28.4421 14.5531 28.3546 15.3906C28.2452 16.4375 28.1827 18.1953 28.4796 20.1719C28.7796 21.5844 28.6983 23.0833 28.6202 23.6563C27.7596 29.967 20.7726 30.4375 18.8076 29.5068C17.4688 29.0717 16.049 28.0364 14.0968 26.0391C11.8142 23.7037 9.72934 21.1334 8.5686 19.3956C8.30634 19.0491 8.15076 18.6174 8.15076 18.1493C8.15076 17.0078 9.07614 16.0824 10.2177 16.0824C10.4363 16.0824 10.647 16.1164 10.8448 16.1793C10.4679 15.4449 10.1639 14.8029 9.92706 14.0928C9.85455 13.8819 9.81517 13.6557 9.81517 13.4202C9.81517 12.2787 10.7406 11.3533 11.8821 11.3533C12.5151 11.3533 13.0817 11.638 13.4609 12.0862C13.3413 11.8187 12.6263 10.0538 12.501 9.23121C12.193 6.91329 15.3498 5.85077 16.4225 8.05359C16.4228 5.68555 19.7216 5.15967 20.5214 7.48198Z" fill="url(#paint1_radial_20020_1063)"/>
<path d="M20.5214 7.48198C21.3213 9.8044 22.7715 13.1105 23.8485 14.605C24.0391 14.1123 24.1771 13.4955 24.2374 12.9531C24.2583 12.765 24.3898 11.543 24.5735 10.9968C24.7949 10.3386 25.2512 9.77242 25.9373 9.55082C27.054 9.19016 28.2672 9.8514 28.6471 11.0277C28.6821 11.1361 28.7088 11.2452 28.7276 11.354C28.8582 11.9131 28.7676 12.4269 28.7139 12.7656C28.6306 13.2917 28.4421 14.5531 28.3546 15.3906C28.2452 16.4375 28.1827 18.1953 28.4796 20.1719C28.7796 21.5844 28.6983 23.0833 28.6202 23.6563C27.7596 29.967 20.7726 30.4375 18.8076 29.5068C17.4688 29.0717 16.049 28.0364 14.0968 26.0391C11.8142 23.7037 9.72934 21.1334 8.5686 19.3956C8.30634 19.0491 8.15076 18.6174 8.15076 18.1493C8.15076 17.0078 9.07614 16.0824 10.2177 16.0824C10.4363 16.0824 10.647 16.1164 10.8448 16.1793C10.4679 15.4449 10.1639 14.8029 9.92706 14.0928C9.85455 13.8819 9.81517 13.6557 9.81517 13.4202C9.81517 12.2787 10.7406 11.3533 11.8821 11.3533C12.5151 11.3533 13.0817 11.638 13.4609 12.0862C13.3413 11.8187 12.6263 10.0538 12.501 9.23121C12.193 6.91329 15.3498 5.85077 16.4225 8.05359C16.4228 5.68555 19.7216 5.15967 20.5214 7.48198Z" fill="url(#paint2_radial_20020_1063)"/>
<path d="M20.5214 7.48198C21.3213 9.8044 22.7715 13.1105 23.8485 14.605C24.0391 14.1123 24.1771 13.4955 24.2374 12.9531C24.2583 12.765 24.3898 11.543 24.5735 10.9968C24.7949 10.3386 25.2512 9.77242 25.9373 9.55082C27.054 9.19016 28.2672 9.8514 28.6471 11.0277C28.6821 11.1361 28.7088 11.2452 28.7276 11.354C28.8582 11.9131 28.7676 12.4269 28.7139 12.7656C28.6306 13.2917 28.4421 14.5531 28.3546 15.3906C28.2452 16.4375 28.1827 18.1953 28.4796 20.1719C28.7796 21.5844 28.6983 23.0833 28.6202 23.6563C27.7596 29.967 20.7726 30.4375 18.8076 29.5068C17.4688 29.0717 16.049 28.0364 14.0968 26.0391C11.8142 23.7037 9.72934 21.1334 8.5686 19.3956C8.30634 19.0491 8.15076 18.6174 8.15076 18.1493C8.15076 17.0078 9.07614 16.0824 10.2177 16.0824C10.4363 16.0824 10.647 16.1164 10.8448 16.1793C10.4679 15.4449 10.1639 14.8029 9.92706 14.0928C9.85455 13.8819 9.81517 13.6557 9.81517 13.4202C9.81517 12.2787 10.7406 11.3533 11.8821 11.3533C12.5151 11.3533 13.0817 11.638 13.4609 12.0862C13.3413 11.8187 12.6263 10.0538 12.501 9.23121C12.193 6.91329 15.3498 5.85077 16.4225 8.05359C16.4228 5.68555 19.7216 5.15967 20.5214 7.48198Z" fill="url(#paint3_radial_20020_1063)"/>
<path d="M20.5214 7.48198C21.3213 9.8044 22.7715 13.1105 23.8485 14.605C24.0391 14.1123 24.1771 13.4955 24.2374 12.9531C24.2583 12.765 24.3898 11.543 24.5735 10.9968C24.7949 10.3386 25.2512 9.77242 25.9373 9.55082C27.054 9.19016 28.2672 9.8514 28.6471 11.0277C28.6821 11.1361 28.7088 11.2452 28.7276 11.354C28.8582 11.9131 28.7676 12.4269 28.7139 12.7656C28.6306 13.2917 28.4421 14.5531 28.3546 15.3906C28.2452 16.4375 28.1827 18.1953 28.4796 20.1719C28.7796 21.5844 28.6983 23.0833 28.6202 23.6563C27.7596 29.967 20.7726 30.4375 18.8076 29.5068C17.4688 29.0717 16.049 28.0364 14.0968 26.0391C11.8142 23.7037 9.72934 21.1334 8.5686 19.3956C8.30634 19.0491 8.15076 18.6174 8.15076 18.1493C8.15076 17.0078 9.07614 16.0824 10.2177 16.0824C10.4363 16.0824 10.647 16.1164 10.8448 16.1793C10.4679 15.4449 10.1639 14.8029 9.92706 14.0928C9.85455 13.8819 9.81517 13.6557 9.81517 13.4202C9.81517 12.2787 10.7406 11.3533 11.8821 11.3533C12.5151 11.3533 13.0817 11.638 13.4609 12.0862C13.3413 11.8187 12.6263 10.0538 12.501 9.23121C12.193 6.91329 15.3498 5.85077 16.4225 8.05359C16.4228 5.68555 19.7216 5.15967 20.5214 7.48198Z" fill="url(#paint4_radial_20020_1063)"/>
<path d="M20.5214 7.48198C21.3213 9.8044 22.7715 13.1105 23.8485 14.605C24.0391 14.1123 24.1771 13.4955 24.2374 12.9531C24.2583 12.765 24.3898 11.543 24.5735 10.9968C24.7949 10.3386 25.2512 9.77242 25.9373 9.55082C27.054 9.19016 28.2672 9.8514 28.6471 11.0277C28.6821 11.1361 28.7088 11.2452 28.7276 11.354C28.8582 11.9131 28.7676 12.4269 28.7139 12.7656C28.6306 13.2917 28.4421 14.5531 28.3546 15.3906C28.2452 16.4375 28.1827 18.1953 28.4796 20.1719C28.7796 21.5844 28.6983 23.0833 28.6202 23.6563C27.7596 29.967 20.7726 30.4375 18.8076 29.5068C17.4688 29.0717 16.049 28.0364 14.0968 26.0391C11.8142 23.7037 9.72934 21.1334 8.5686 19.3956C8.30634 19.0491 8.15076 18.6174 8.15076 18.1493C8.15076 17.0078 9.07614 16.0824 10.2177 16.0824C10.4363 16.0824 10.647 16.1164 10.8448 16.1793C10.4679 15.4449 10.1639 14.8029 9.92706 14.0928C9.85455 13.8819 9.81517 13.6557 9.81517 13.4202C9.81517 12.2787 10.7406 11.3533 11.8821 11.3533C12.5151 11.3533 13.0817 11.638 13.4609 12.0862C13.3413 11.8187 12.6263 10.0538 12.501 9.23121C12.193 6.91329 15.3498 5.85077 16.4225 8.05359C16.4228 5.68555 19.7216 5.15967 20.5214 7.48198Z" fill="url(#paint5_radial_20020_1063)"/>
<path d="M20.5214 7.48198C21.3213 9.8044 22.7715 13.1105 23.8485 14.605C24.0391 14.1123 24.1771 13.4955 24.2374 12.9531C24.2583 12.765 24.3898 11.543 24.5735 10.9968C24.7949 10.3386 25.2512 9.77242 25.9373 9.55082C27.054 9.19016 28.2672 9.8514 28.6471 11.0277C28.6821 11.1361 28.7088 11.2452 28.7276 11.354C28.8582 11.9131 28.7676 12.4269 28.7139 12.7656C28.6306 13.2917 28.4421 14.5531 28.3546 15.3906C28.2452 16.4375 28.1827 18.1953 28.4796 20.1719C28.7796 21.5844 28.6983 23.0833 28.6202 23.6563C27.7596 29.967 20.7726 30.4375 18.8076 29.5068C17.4688 29.0717 16.049 28.0364 14.0968 26.0391C11.8142 23.7037 9.72934 21.1334 8.5686 19.3956C8.30634 19.0491 8.15076 18.6174 8.15076 18.1493C8.15076 17.0078 9.07614 16.0824 10.2177 16.0824C10.4363 16.0824 10.647 16.1164 10.8448 16.1793C10.4679 15.4449 10.1639 14.8029 9.92706 14.0928C9.85455 13.8819 9.81517 13.6557 9.81517 13.4202C9.81517 12.2787 10.7406 11.3533 11.8821 11.3533C12.5151 11.3533 13.0817 11.638 13.4609 12.0862C13.3413 11.8187 12.6263 10.0538 12.501 9.23121C12.193 6.91329 15.3498 5.85077 16.4225 8.05359C16.4228 5.68555 19.7216 5.15967 20.5214 7.48198Z" fill="url(#paint6_radial_20020_1063)"/>
<path d="M20.5214 7.48198C21.3213 9.8044 22.7715 13.1105 23.8485 14.605C24.0391 14.1123 24.1771 13.4955 24.2374 12.9531C24.2583 12.765 24.3898 11.543 24.5735 10.9968C24.7949 10.3386 25.2512 9.77242 25.9373 9.55082C27.054 9.19016 28.2672 9.8514 28.6471 11.0277C28.6821 11.1361 28.7088 11.2452 28.7276 11.354C28.8582 11.9131 28.7676 12.4269 28.7139 12.7656C28.6306 13.2917 28.4421 14.5531 28.3546 15.3906C28.2452 16.4375 28.1827 18.1953 28.4796 20.1719C28.7796 21.5844 28.6983 23.0833 28.6202 23.6563C27.7596 29.967 20.7726 30.4375 18.8076 29.5068C17.4688 29.0717 16.049 28.0364 14.0968 26.0391C11.8142 23.7037 9.72934 21.1334 8.5686 19.3956C8.30634 19.0491 8.15076 18.6174 8.15076 18.1493C8.15076 17.0078 9.07614 16.0824 10.2177 16.0824C10.4363 16.0824 10.647 16.1164 10.8448 16.1793C10.4679 15.4449 10.1639 14.8029 9.92706 14.0928C9.85455 13.8819 9.81517 13.6557 9.81517 13.4202C9.81517 12.2787 10.7406 11.3533 11.8821 11.3533C12.5151 11.3533 13.0817 11.638 13.4609 12.0862C13.3413 11.8187 12.6263 10.0538 12.501 9.23121C12.193 6.91329 15.3498 5.85077 16.4225 8.05359C16.4228 5.68555 19.7216 5.15967 20.5214 7.48198Z" fill="url(#paint7_radial_20020_1063)"/>
<path d="M20.5214 7.48198C21.3213 9.8044 22.7715 13.1105 23.8485 14.605C24.0391 14.1123 24.1771 13.4955 24.2374 12.9531C24.2583 12.765 24.3898 11.543 24.5735 10.9968C24.7949 10.3386 25.2512 9.77242 25.9373 9.55082C27.054 9.19016 28.2672 9.8514 28.6471 11.0277C28.6821 11.1361 28.7088 11.2452 28.7276 11.354C28.8582 11.9131 28.7676 12.4269 28.7139 12.7656C28.6306 13.2917 28.4421 14.5531 28.3546 15.3906C28.2452 16.4375 28.1827 18.1953 28.4796 20.1719C28.7796 21.5844 28.6983 23.0833 28.6202 23.6563C27.7596 29.967 20.7726 30.4375 18.8076 29.5068C17.4688 29.0717 16.049 28.0364 14.0968 26.0391C11.8142 23.7037 9.72934 21.1334 8.5686 19.3956C8.30634 19.0491 8.15076 18.6174 8.15076 18.1493C8.15076 17.0078 9.07614 16.0824 10.2177 16.0824C10.4363 16.0824 10.647 16.1164 10.8448 16.1793C10.4679 15.4449 10.1639 14.8029 9.92706 14.0928C9.85455 13.8819 9.81517 13.6557 9.81517 13.4202C9.81517 12.2787 10.7406 11.3533 11.8821 11.3533C12.5151 11.3533 13.0817 11.638 13.4609 12.0862C13.3413 11.8187 12.6263 10.0538 12.501 9.23121C12.193 6.91329 15.3498 5.85077 16.4225 8.05359C16.4228 5.68555 19.7216 5.15967 20.5214 7.48198Z" fill="url(#paint8_radial_20020_1063)"/>
<path d="M20.5214 7.48198C21.3213 9.8044 22.7715 13.1105 23.8485 14.605C24.0391 14.1123 24.1771 13.4955 24.2374 12.9531C24.2583 12.765 24.3898 11.543 24.5735 10.9968C24.7949 10.3386 25.2512 9.77242 25.9373 9.55082C27.054 9.19016 28.2672 9.8514 28.6471 11.0277C28.6821 11.1361 28.7088 11.2452 28.7276 11.354C28.8582 11.9131 28.7676 12.4269 28.7139 12.7656C28.6306 13.2917 28.4421 14.5531 28.3546 15.3906C28.2452 16.4375 28.1827 18.1953 28.4796 20.1719C28.7796 21.5844 28.6983 23.0833 28.6202 23.6563C27.7596 29.967 20.7726 30.4375 18.8076 29.5068C17.4688 29.0717 16.049 28.0364 14.0968 26.0391C11.8142 23.7037 9.72934 21.1334 8.5686 19.3956C8.30634 19.0491 8.15076 18.6174 8.15076 18.1493C8.15076 17.0078 9.07614 16.0824 10.2177 16.0824C10.4363 16.0824 10.647 16.1164 10.8448 16.1793C10.4679 15.4449 10.1639 14.8029 9.92706 14.0928C9.85455 13.8819 9.81517 13.6557 9.81517 13.4202C9.81517 12.2787 10.7406 11.3533 11.8821 11.3533C12.5151 11.3533 13.0817 11.638 13.4609 12.0862C13.3413 11.8187 12.6263 10.0538 12.501 9.23121C12.193 6.91329 15.3498 5.85077 16.4225 8.05359C16.4228 5.68555 19.7216 5.15967 20.5214 7.48198Z" fill="url(#paint9_radial_20020_1063)"/>
<path d="M20.5214 7.48198C21.3213 9.8044 22.7715 13.1105 23.8485 14.605C24.0391 14.1123 24.1771 13.4955 24.2374 12.9531C24.2583 12.765 24.3898 11.543 24.5735 10.9968C24.7949 10.3386 25.2512 9.77242 25.9373 9.55082C27.054 9.19016 28.2672 9.8514 28.6471 11.0277C28.6821 11.1361 28.7088 11.2452 28.7276 11.354C28.8582 11.9131 28.7676 12.4269 28.7139 12.7656C28.6306 13.2917 28.4421 14.5531 28.3546 15.3906C28.2452 16.4375 28.1827 18.1953 28.4796 20.1719C28.7796 21.5844 28.6983 23.0833 28.6202 23.6563C27.7596 29.967 20.7726 30.4375 18.8076 29.5068C17.4688 29.0717 16.049 28.0364 14.0968 26.0391C11.8142 23.7037 9.72934 21.1334 8.5686 19.3956C8.30634 19.0491 8.15076 18.6174 8.15076 18.1493C8.15076 17.0078 9.07614 16.0824 10.2177 16.0824C10.4363 16.0824 10.647 16.1164 10.8448 16.1793C10.4679 15.4449 10.1639 14.8029 9.92706 14.0928C9.85455 13.8819 9.81517 13.6557 9.81517 13.4202C9.81517 12.2787 10.7406 11.3533 11.8821 11.3533C12.5151 11.3533 13.0817 11.638 13.4609 12.0862C13.3413 11.8187 12.6263 10.0538 12.501 9.23121C12.193 6.91329 15.3498 5.85077 16.4225 8.05359C16.4228 5.68555 19.7216 5.15967 20.5214 7.48198Z" fill="url(#paint10_linear_20020_1063)"/>
<path d="M10.8789 16.1875C10.6811 16.1246 10.4363 16.0824 10.2177 16.0824C9.07614 16.0824 8.15076 17.0078 8.15076 18.1493C8.15076 18.6173 8.30634 19.0491 8.5686 19.3955C9.5725 20.8986 11.2677 23.0243 13.1841 25.0821C15.5623 23.9682 15.3508 21.7031 14.9453 21.2211C14.9374 21.2433 12.9203 18.432 11.9406 17.1875C11.9245 17.1671 11.9083 17.1464 11.8919 17.1255C11.753 16.9486 11.352 16.338 10.8789 16.1875Z" fill="url(#paint11_radial_20020_1063)"/>
<path d="M16.4226 8.02852C16.4868 8.58494 16.7213 9.10571 16.9115 9.62761C17.3564 10.8478 18.1175 12.9355 19.1613 14.8375C19.5545 15.5542 20.2721 16.0573 21.0887 16.0192C22.1644 15.9689 23.4005 15.614 23.8742 14.5548L23.8713 14.5446C23.8638 14.565 23.8562 14.5851 23.8484 14.6051C22.7715 13.1106 21.3212 9.80446 20.5214 7.48204C20.2727 6.60629 19.467 5.96484 18.5115 5.96484C17.3663 5.96484 16.4362 6.88646 16.4226 8.02852Z" fill="url(#paint12_radial_20020_1063)"/>
<path d="M16.4226 8.02852C16.4868 8.58494 16.7213 9.10571 16.9115 9.62761C17.3564 10.8478 18.1175 12.9355 19.1613 14.8375C19.5545 15.5542 20.2721 16.0573 21.0887 16.0192C22.1644 15.9689 23.4005 15.614 23.8742 14.5548L23.8713 14.5446C23.8638 14.565 23.8562 14.5851 23.8484 14.6051C22.7715 13.1106 21.3212 9.80446 20.5214 7.48204C20.2727 6.60629 19.467 5.96484 18.5115 5.96484C17.3663 5.96484 16.4362 6.88646 16.4226 8.02852Z" fill="url(#paint13_radial_20020_1063)"/>
<path d="M16.4226 8.02852C16.4868 8.58494 16.7213 9.10571 16.9115 9.62761C17.3564 10.8478 18.1175 12.9355 19.1613 14.8375C19.5545 15.5542 20.2721 16.0573 21.0887 16.0192C22.1644 15.9689 23.4005 15.614 23.8742 14.5548L23.8713 14.5446C23.8638 14.565 23.8562 14.5851 23.8484 14.6051C22.7715 13.1106 21.3212 9.80446 20.5214 7.48204C20.2727 6.60629 19.467 5.96484 18.5115 5.96484C17.3663 5.96484 16.4362 6.88646 16.4226 8.02852Z" fill="url(#paint14_linear_20020_1063)"/>
<path d="M16.4226 8.02852C16.4868 8.58494 16.7213 9.10571 16.9115 9.62761C17.3564 10.8478 18.1175 12.9355 19.1613 14.8375C19.5545 15.5542 20.2721 16.0573 21.0887 16.0192C22.1644 15.9689 23.4005 15.614 23.8742 14.5548L23.8713 14.5446C23.8638 14.565 23.8562 14.5851 23.8484 14.6051C22.7715 13.1106 21.3212 9.80446 20.5214 7.48204C20.2727 6.60629 19.467 5.96484 18.5115 5.96484C17.3663 5.96484 16.4362 6.88646 16.4226 8.02852Z" fill="url(#paint15_radial_20020_1063)"/>
<path d="M16.4226 8.02852C16.4868 8.58494 16.7213 9.10571 16.9115 9.62761C17.3564 10.8478 18.1175 12.9355 19.1613 14.8375C19.5545 15.5542 20.2721 16.0573 21.0887 16.0192C22.1644 15.9689 23.4005 15.614 23.8742 14.5548L23.8713 14.5446C23.8638 14.565 23.8562 14.5851 23.8484 14.6051C22.7715 13.1106 21.3212 9.80446 20.5214 7.48204C20.2727 6.60629 19.467 5.96484 18.5115 5.96484C17.3663 5.96484 16.4362 6.88646 16.4226 8.02852Z" fill="url(#paint16_radial_20020_1063)"/>
<path d="M16.4226 8.02852C16.4868 8.58494 16.7213 9.10571 16.9115 9.62761C17.3564 10.8478 18.1175 12.9355 19.1613 14.8375C19.5545 15.5542 20.2721 16.0573 21.0887 16.0192C22.1644 15.9689 23.4005 15.614 23.8742 14.5548L23.8713 14.5446C23.8638 14.565 23.8562 14.5851 23.8484 14.6051C22.7715 13.1106 21.3212 9.80446 20.5214 7.48204C20.2727 6.60629 19.467 5.96484 18.5115 5.96484C17.3663 5.96484 16.4362 6.88646 16.4226 8.02852Z" fill="url(#paint17_radial_20020_1063)"/>
<path d="M16.4226 8.02852C16.4868 8.58494 16.7213 9.10571 16.9115 9.62761C17.3564 10.8478 18.1175 12.9355 19.1613 14.8375C19.5545 15.5542 20.2721 16.0573 21.0887 16.0192C22.1644 15.9689 23.4005 15.614 23.8742 14.5548L23.8713 14.5446C23.8638 14.565 23.8562 14.5851 23.8484 14.6051C22.7715 13.1106 21.3212 9.80446 20.5214 7.48204C20.2727 6.60629 19.467 5.96484 18.5115 5.96484C17.3663 5.96484 16.4362 6.88646 16.4226 8.02852Z" fill="url(#paint18_radial_20020_1063)"/>
<path d="M16.4226 8.02852C16.4868 8.58494 16.7213 9.10571 16.9115 9.62761C17.3564 10.8478 18.1175 12.9355 19.1613 14.8375C19.5545 15.5542 20.2721 16.0573 21.0887 16.0192C22.1644 15.9689 23.4005 15.614 23.8742 14.5548L23.8713 14.5446C23.8638 14.565 23.8562 14.5851 23.8484 14.6051C22.7715 13.1106 21.3212 9.80446 20.5214 7.48204C20.2727 6.60629 19.467 5.96484 18.5115 5.96484C17.3663 5.96484 16.4362 6.88646 16.4226 8.02852Z" fill="url(#paint19_radial_20020_1063)"/>
<path d="M9.93086 14.0927C9.85835 13.8819 9.81897 13.6556 9.81897 13.4202C9.81897 12.2787 10.7444 11.3533 11.8859 11.3533C12.508 11.3533 13.0659 11.6282 13.4449 12.0631C14.4796 14.1484 15.7538 16.5812 16.7218 18C15.4913 19.6718 15.1957 20.5156 14.9405 21.2343C14.1593 20.1458 12.5249 17.9297 11.9405 17.1875C11.6273 16.7896 11.2452 16.2812 10.8507 16.1796C10.4367 15.4179 10.136 14.7077 9.93086 14.0927Z" fill="url(#paint20_radial_20020_1063)"/>
<path d="M9.93086 14.0927C9.85835 13.8819 9.81897 13.6556 9.81897 13.4202C9.81897 12.2787 10.7444 11.3533 11.8859 11.3533C12.508 11.3533 13.0659 11.6282 13.4449 12.0631C14.4796 14.1484 15.7538 16.5812 16.7218 18C15.4913 19.6718 15.1957 20.5156 14.9405 21.2343C14.1593 20.1458 12.5249 17.9297 11.9405 17.1875C11.6273 16.7896 11.2452 16.2812 10.8507 16.1796C10.4367 15.4179 10.136 14.7077 9.93086 14.0927Z" fill="url(#paint21_radial_20020_1063)"/>
<path d="M9.93086 14.0927C9.85835 13.8819 9.81897 13.6556 9.81897 13.4202C9.81897 12.2787 10.7444 11.3533 11.8859 11.3533C12.508 11.3533 13.0659 11.6282 13.4449 12.0631C14.4796 14.1484 15.7538 16.5812 16.7218 18C15.4913 19.6718 15.1957 20.5156 14.9405 21.2343C14.1593 20.1458 12.5249 17.9297 11.9405 17.1875C11.6273 16.7896 11.2452 16.2812 10.8507 16.1796C10.4367 15.4179 10.136 14.7077 9.93086 14.0927Z" fill="url(#paint22_radial_20020_1063)"/>
<path d="M9.93086 14.0927C9.85835 13.8819 9.81897 13.6556 9.81897 13.4202C9.81897 12.2787 10.7444 11.3533 11.8859 11.3533C12.508 11.3533 13.0659 11.6282 13.4449 12.0631C14.4796 14.1484 15.7538 16.5812 16.7218 18C15.4913 19.6718 15.1957 20.5156 14.9405 21.2343C14.1593 20.1458 12.5249 17.9297 11.9405 17.1875C11.6273 16.7896 11.2452 16.2812 10.8507 16.1796C10.4367 15.4179 10.136 14.7077 9.93086 14.0927Z" fill="url(#paint23_radial_20020_1063)"/>
<path d="M9.93086 14.0927C9.85835 13.8819 9.81897 13.6556 9.81897 13.4202C9.81897 12.2787 10.7444 11.3533 11.8859 11.3533C12.508 11.3533 13.0659 11.6282 13.4449 12.0631C14.4796 14.1484 15.7538 16.5812 16.7218 18C15.4913 19.6718 15.1957 20.5156 14.9405 21.2343C14.1593 20.1458 12.5249 17.9297 11.9405 17.1875C11.6273 16.7896 11.2452 16.2812 10.8507 16.1796C10.4367 15.4179 10.136 14.7077 9.93086 14.0927Z" fill="url(#paint24_linear_20020_1063)"/>
<path d="M9.93086 14.0927C9.85835 13.8819 9.81897 13.6556 9.81897 13.4202C9.81897 12.2787 10.7444 11.3533 11.8859 11.3533C12.508 11.3533 13.0659 11.6282 13.4449 12.0631C14.4796 14.1484 15.7538 16.5812 16.7218 18C15.4913 19.6718 15.1957 20.5156 14.9405 21.2343C14.1593 20.1458 12.5249 17.9297 11.9405 17.1875C11.6273 16.7896 11.2452 16.2812 10.8507 16.1796C10.4367 15.4179 10.136 14.7077 9.93086 14.0927Z" fill="url(#paint25_radial_20020_1063)"/>
<path d="M9.93086 14.0927C9.85835 13.8819 9.81897 13.6556 9.81897 13.4202C9.81897 12.2787 10.7444 11.3533 11.8859 11.3533C12.508 11.3533 13.0659 11.6282 13.4449 12.0631C14.4796 14.1484 15.7538 16.5812 16.7218 18C15.4913 19.6718 15.1957 20.5156 14.9405 21.2343C14.1593 20.1458 12.5249 17.9297 11.9405 17.1875C11.6273 16.7896 11.2452 16.2812 10.8507 16.1796C10.4367 15.4179 10.136 14.7077 9.93086 14.0927Z" fill="url(#paint26_radial_20020_1063)"/>
<path d="M9.93086 14.0927C9.85835 13.8819 9.81897 13.6556 9.81897 13.4202C9.81897 12.2787 10.7444 11.3533 11.8859 11.3533C12.508 11.3533 13.0659 11.6282 13.4449 12.0631C14.4796 14.1484 15.7538 16.5812 16.7218 18C15.4913 19.6718 15.1957 20.5156 14.9405 21.2343C14.1593 20.1458 12.5249 17.9297 11.9405 17.1875C11.6273 16.7896 11.2452 16.2812 10.8507 16.1796C10.4367 15.4179 10.136 14.7077 9.93086 14.0927Z" fill="url(#paint27_radial_20020_1063)"/>
<path d="M9.93086 14.0927C9.85835 13.8819 9.81897 13.6556 9.81897 13.4202C9.81897 12.2787 10.7444 11.3533 11.8859 11.3533C12.508 11.3533 13.0659 11.6282 13.4449 12.0631C14.4796 14.1484 15.7538 16.5812 16.7218 18C15.4913 19.6718 15.1957 20.5156 14.9405 21.2343C14.1593 20.1458 12.5249 17.9297 11.9405 17.1875C11.6273 16.7896 11.2452 16.2812 10.8507 16.1796C10.4367 15.4179 10.136 14.7077 9.93086 14.0927Z" fill="url(#paint28_radial_20020_1063)"/>
<path d="M13.36 11.8467C14.1781 13.6038 15.2144 15.8334 16.5382 17.6562C17.1476 17.5677 18.6089 16.8992 19.5307 15.4149C18.7386 14.189 17.2945 11.0873 16.4097 8.02653C16.077 7.331 15.3667 6.85059 14.5442 6.85059C13.4027 6.85059 12.4773 7.77597 12.4773 8.91748C12.4773 9.02412 12.4854 9.12888 12.5009 9.23117C12.6058 9.91972 13.1238 11.2685 13.36 11.8467Z" fill="url(#paint29_radial_20020_1063)"/>
<path d="M13.36 11.8467C14.1781 13.6038 15.2144 15.8334 16.5382 17.6562C17.1476 17.5677 18.6089 16.8992 19.5307 15.4149C18.7386 14.189 17.2945 11.0873 16.4097 8.02653C16.077 7.331 15.3667 6.85059 14.5442 6.85059C13.4027 6.85059 12.4773 7.77597 12.4773 8.91748C12.4773 9.02412 12.4854 9.12888 12.5009 9.23117C12.6058 9.91972 13.1238 11.2685 13.36 11.8467Z" fill="url(#paint30_radial_20020_1063)"/>
<path d="M13.36 11.8467C14.1781 13.6038 15.2144 15.8334 16.5382 17.6562C17.1476 17.5677 18.6089 16.8992 19.5307 15.4149C18.7386 14.189 17.2945 11.0873 16.4097 8.02653C16.077 7.331 15.3667 6.85059 14.5442 6.85059C13.4027 6.85059 12.4773 7.77597 12.4773 8.91748C12.4773 9.02412 12.4854 9.12888 12.5009 9.23117C12.6058 9.91972 13.1238 11.2685 13.36 11.8467Z" fill="url(#paint31_radial_20020_1063)"/>
<path d="M13.36 11.8467C14.1781 13.6038 15.2144 15.8334 16.5382 17.6562C17.1476 17.5677 18.6089 16.8992 19.5307 15.4149C18.7386 14.189 17.2945 11.0873 16.4097 8.02653C16.077 7.331 15.3667 6.85059 14.5442 6.85059C13.4027 6.85059 12.4773 7.77597 12.4773 8.91748C12.4773 9.02412 12.4854 9.12888 12.5009 9.23117C12.6058 9.91972 13.1238 11.2685 13.36 11.8467Z" fill="url(#paint32_radial_20020_1063)"/>
<path d="M13.36 11.8467C14.1781 13.6038 15.2144 15.8334 16.5382 17.6562C17.1476 17.5677 18.6089 16.8992 19.5307 15.4149C18.7386 14.189 17.2945 11.0873 16.4097 8.02653C16.077 7.331 15.3667 6.85059 14.5442 6.85059C13.4027 6.85059 12.4773 7.77597 12.4773 8.91748C12.4773 9.02412 12.4854 9.12888 12.5009 9.23117C12.6058 9.91972 13.1238 11.2685 13.36 11.8467Z" fill="url(#paint33_radial_20020_1063)"/>
<path d="M13.36 11.8467C14.1781 13.6038 15.2144 15.8334 16.5382 17.6562C17.1476 17.5677 18.6089 16.8992 19.5307 15.4149C18.7386 14.189 17.2945 11.0873 16.4097 8.02653C16.077 7.331 15.3667 6.85059 14.5442 6.85059C13.4027 6.85059 12.4773 7.77597 12.4773 8.91748C12.4773 9.02412 12.4854 9.12888 12.5009 9.23117C12.6058 9.91972 13.1238 11.2685 13.36 11.8467Z" fill="url(#paint34_linear_20020_1063)"/>
<path d="M19.7299 2.36256C19.7475 2.11466 19.9628 1.92798 20.2107 1.94561C21.1825 2.01472 22.4414 2.45057 23.4512 3.37973C24.475 4.32172 25.2256 5.75591 25.1755 7.76896C25.1693 8.01741 24.9629 8.2138 24.7145 8.20762C24.466 8.20143 24.2696 7.99501 24.2758 7.74656C24.3194 5.99398 23.6755 4.80903 22.8419 4.04204C21.9943 3.26221 20.9328 2.89924 20.1469 2.84334C19.899 2.82572 19.7123 2.61046 19.7299 2.36256Z" fill="#1B99E7"/>
<path d="M19.7299 2.36256C19.7475 2.11466 19.9628 1.92798 20.2107 1.94561C21.1825 2.01472 22.4414 2.45057 23.4512 3.37973C24.475 4.32172 25.2256 5.75591 25.1755 7.76896C25.1693 8.01741 24.9629 8.2138 24.7145 8.20762C24.466 8.20143 24.2696 7.99501 24.2758 7.74656C24.3194 5.99398 23.6755 4.80903 22.8419 4.04204C21.9943 3.26221 20.9328 2.89924 20.1469 2.84334C19.899 2.82572 19.7123 2.61046 19.7299 2.36256Z" fill="url(#paint35_radial_20020_1063)"/>
<path d="M19.7299 2.36256C19.7475 2.11466 19.9628 1.92798 20.2107 1.94561C21.1825 2.01472 22.4414 2.45057 23.4512 3.37973C24.475 4.32172 25.2256 5.75591 25.1755 7.76896C25.1693 8.01741 24.9629 8.2138 24.7145 8.20762C24.466 8.20143 24.2696 7.99501 24.2758 7.74656C24.3194 5.99398 23.6755 4.80903 22.8419 4.04204C21.9943 3.26221 20.9328 2.89924 20.1469 2.84334C19.899 2.82572 19.7123 2.61046 19.7299 2.36256Z" fill="url(#paint36_radial_20020_1063)"/>
<path d="M17.5571 3.95765C17.5655 3.70926 17.7736 3.51465 18.0219 3.52296C18.9969 3.55561 20.3511 3.98607 21.4525 4.94885C22.5706 5.92627 23.4178 7.44439 23.3551 9.60683C23.3479 9.85525 23.1407 10.0508 22.8923 10.0436C22.6439 10.0364 22.4483 9.8292 22.4555 9.58078C22.5101 7.69635 21.783 6.43322 20.8601 5.62645C19.9205 4.80505 18.7669 4.44841 17.9918 4.42246C17.7434 4.41414 17.5488 4.20604 17.5571 3.95765Z" fill="#1B99E7"/>
<path d="M17.5571 3.95765C17.5655 3.70926 17.7736 3.51465 18.0219 3.52296C18.9969 3.55561 20.3511 3.98607 21.4525 4.94885C22.5706 5.92627 23.4178 7.44439 23.3551 9.60683C23.3479 9.85525 23.1407 10.0508 22.8923 10.0436C22.6439 10.0364 22.4483 9.8292 22.4555 9.58078C22.5101 7.69635 21.783 6.43322 20.8601 5.62645C19.9205 4.80505 18.7669 4.44841 17.9918 4.42246C17.7434 4.41414 17.5488 4.20604 17.5571 3.95765Z" fill="url(#paint37_radial_20020_1063)"/>
<path d="M17.5571 3.95765C17.5655 3.70926 17.7736 3.51465 18.0219 3.52296C18.9969 3.55561 20.3511 3.98607 21.4525 4.94885C22.5706 5.92627 23.4178 7.44439 23.3551 9.60683C23.3479 9.85525 23.1407 10.0508 22.8923 10.0436C22.6439 10.0364 22.4483 9.8292 22.4555 9.58078C22.5101 7.69635 21.783 6.43322 20.8601 5.62645C19.9205 4.80505 18.7669 4.44841 17.9918 4.42246C17.7434 4.41414 17.5488 4.20604 17.5571 3.95765Z" fill="url(#paint38_radial_20020_1063)"/>
<path d="M3.78139 15.5123C4.02912 15.5323 4.21373 15.7494 4.19374 15.9971C4.10166 17.138 4.3782 18.335 5.06869 19.3078C5.75391 20.2732 6.86434 21.0433 8.49461 21.3138C8.73979 21.3545 8.90557 21.5862 8.86489 21.8314C8.82421 22.0766 8.59248 22.2424 8.3473 22.2017C6.49321 21.8941 5.16615 21.0001 4.33477 19.8288C3.50866 18.6649 3.1895 17.2525 3.29665 15.9247C3.31665 15.677 3.53367 15.4924 3.78139 15.5123Z" fill="url(#paint39_linear_20020_1063)"/>
<path d="M3.78139 15.5123C4.02912 15.5323 4.21373 15.7494 4.19374 15.9971C4.10166 17.138 4.3782 18.335 5.06869 19.3078C5.75391 20.2732 6.86434 21.0433 8.49461 21.3138C8.73979 21.3545 8.90557 21.5862 8.86489 21.8314C8.82421 22.0766 8.59248 22.2424 8.3473 22.2017C6.49321 21.8941 5.16615 21.0001 4.33477 19.8288C3.50866 18.6649 3.1895 17.2525 3.29665 15.9247C3.31665 15.677 3.53367 15.4924 3.78139 15.5123Z" fill="url(#paint40_radial_20020_1063)"/>
<path d="M1.87759 17.3801C2.12501 17.4036 2.30653 17.6232 2.28304 17.8706C2.07031 20.1111 3.54519 22.4005 6.35628 22.7806C6.60257 22.8139 6.77523 23.0405 6.74193 23.2868C6.70863 23.5331 6.48198 23.7058 6.23569 23.6725C2.92175 23.2244 1.131 20.4825 1.38707 17.7855C1.41056 17.5381 1.63018 17.3566 1.87759 17.3801Z" fill="url(#paint41_linear_20020_1063)"/>
<path d="M1.87759 17.3801C2.12501 17.4036 2.30653 17.6232 2.28304 17.8706C2.07031 20.1111 3.54519 22.4005 6.35628 22.7806C6.60257 22.8139 6.77523 23.0405 6.74193 23.2868C6.70863 23.5331 6.48198 23.7058 6.23569 23.6725C2.92175 23.2244 1.131 20.4825 1.38707 17.7855C1.41056 17.5381 1.63018 17.3566 1.87759 17.3801Z" fill="url(#paint42_radial_20020_1063)"/>
<defs>
<radialGradient id="paint0_radial_20020_1063" cx="0" cy="0" r="1" gradientUnits="userSpaceOnUse" gradientTransform="translate(19 11) rotate(69.9216) scale(21.7519 14.0726)">
<stop offset="0.00323036" stop-color="#FFBF3B"/>
<stop offset="0.688272" stop-color="#FFC53F"/>
<stop offset="0.811146" stop-color="#FFAD3E"/>
<stop offset="0.945275" stop-color="#EC7D58"/>
</radialGradient>
<radialGradient id="paint1_radial_20020_1063" cx="0" cy="0" r="1" gradientUnits="userSpaceOnUse" gradientTransform="translate(27.4163 20.5932) rotate(72.1681) scale(6.95666 5.1225)">
<stop stop-color="#FFE867"/>
<stop offset="1" stop-color="#FFE867" stop-opacity="0"/>
</radialGradient>
<radialGradient id="paint2_radial_20020_1063" cx="0" cy="0" r="1" gradientUnits="userSpaceOnUse" gradientTransform="translate(23.5274 17.9192) rotate(74.3733) scale(4.78287 3.52184)">
<stop stop-color="#FFCA49"/>
<stop offset="1" stop-color="#FFC946" stop-opacity="0"/>
</radialGradient>
<radialGradient id="paint3_radial_20020_1063" cx="0" cy="0" r="1" gradientUnits="userSpaceOnUse" gradientTransform="translate(26.385 14.7685) rotate(42.6722) scale(9.85232 8.50704)">
<stop offset="0.227885" stop-color="#FFCC46"/>
<stop offset="0.41692" stop-color="#FFCC46" stop-opacity="0"/>
</radialGradient>
<radialGradient id="paint4_radial_20020_1063" cx="0" cy="0" r="1" gradientUnits="userSpaceOnUse" gradientTransform="translate(21.4386 22.7629) rotate(1.49433) scale(12.04)">
<stop offset="0.26965" stop-color="#FFBE42"/>
<stop offset="0.505447" stop-color="#FFBE42" stop-opacity="0"/>
</radialGradient>
<radialGradient id="paint5_radial_20020_1063" cx="0" cy="0" r="1" gradientUnits="userSpaceOnUse" gradientTransform="translate(27.6477 10.9928) rotate(90) scale(1.59559)">
<stop stop-color="#FFE668"/>
<stop offset="1" stop-color="#FFE668" stop-opacity="0"/>
</radialGradient>
<radialGradient id="paint6_radial_20020_1063" cx="0" cy="0" r="1" gradientUnits="userSpaceOnUse" gradientTransform="translate(24.8948 12.718) scale(2.92243 5.22487)">
<stop stop-color="#FEB450"/>
<stop offset="1" stop-color="#FEB450" stop-opacity="0"/>
</radialGradient>
<radialGradient id="paint7_radial_20020_1063" cx="0" cy="0" r="1" gradientUnits="userSpaceOnUse" gradientTransform="translate(24.6379 11.6078) rotate(12.5329) scale(1.6795 5.3037)">
<stop stop-color="#D69A47"/>
<stop offset="1" stop-color="#FFC14D" stop-opacity="0"/>
</radialGradient>
<radialGradient id="paint8_radial_20020_1063" cx="0" cy="0" r="1" gradientUnits="userSpaceOnUse" gradientTransform="translate(12.181 19.5301) rotate(52.125) scale(4.56336 1.25072)">
<stop stop-color="#FFD863"/>
<stop offset="1" stop-color="#FFD862" stop-opacity="0"/>
</radialGradient>
<radialGradient id="paint9_radial_20020_1063" cx="0" cy="0" r="1" gradientUnits="userSpaceOnUse" gradientTransform="translate(12.7611 13.2886) rotate(44.2748) scale(1.40361)">
<stop stop-color="#FFD361"/>
<stop offset="1" stop-color="#FFD361" stop-opacity="0"/>
</radialGradient>
<linearGradient id="paint10_linear_20020_1063" x1="11.4837" y1="25.0812" x2="13.4572" y2="23.0419" gradientUnits="userSpaceOnUse">
<stop stop-color="#DC8067"/>
<stop offset="1" stop-color="#DC8067" stop-opacity="0"/>
</linearGradient>
<radialGradient id="paint11_radial_20020_1063" cx="0" cy="0" r="1" gradientUnits="userSpaceOnUse" gradientTransform="translate(13.7541 17.8436) rotate(135.374) scale(1.87144 6.34523)">
<stop stop-color="#A2431C"/>
<stop offset="1" stop-color="#A2431C" stop-opacity="0"/>
</radialGradient>
<radialGradient id="paint12_radial_20020_1063" cx="0" cy="0" r="1" gradientUnits="userSpaceOnUse" gradientTransform="translate(22.5444 10.7196) rotate(151.281) scale(4.67905 9.34611)">
<stop offset="0.563302" stop-color="#F09D2E" stop-opacity="0"/>
<stop offset="1" stop-color="#F09D2E"/>
</radialGradient>
<radialGradient id="paint13_radial_20020_1063" cx="0" cy="0" r="1" gradientUnits="userSpaceOnUse" gradientTransform="translate(22.5882 10.993) rotate(155.368) scale(4.84169 12.1821)">
<stop offset="0.641516" stop-color="#815353" stop-opacity="0"/>
<stop offset="0.726169" stop-color="#FEBD3A" stop-opacity="0"/>
<stop offset="1" stop-color="#A04219"/>
</radialGradient>
<linearGradient id="paint14_linear_20020_1063" x1="20.1484" y1="15.4744" x2="20.1484" y2="12.968" gradientUnits="userSpaceOnUse">
<stop stop-color="#FFC337"/>
<stop offset="1" stop-color="#FFC337" stop-opacity="0"/>
</linearGradient>
<radialGradient id="paint15_radial_20020_1063" cx="0" cy="0" r="1" gradientUnits="userSpaceOnUse" gradientTransform="translate(20.1484 8.47907) rotate(-17.8514) scale(1.28398 3.35414)">
<stop stop-color="#FFE763"/>
<stop offset="1" stop-color="#FFEC4C" stop-opacity="0"/>
</radialGradient>
<radialGradient id="paint16_radial_20020_1063" cx="0" cy="0" r="1" gradientUnits="userSpaceOnUse" gradientTransform="translate(22.1698 11.6668) rotate(-28.637) scale(1.94189 4.25375)">
<stop stop-color="#FFE763"/>
<stop offset="1" stop-color="#FFEC4C" stop-opacity="0"/>
</radialGradient>
<radialGradient id="paint17_radial_20020_1063" cx="0" cy="0" r="1" gradientUnits="userSpaceOnUse" gradientTransform="translate(16.0321 5.85438) rotate(32.7843) scale(2.93791 2.2681)">
<stop stop-color="#D99F2B"/>
<stop offset="1" stop-color="#D99F2B" stop-opacity="0"/>
</radialGradient>
<radialGradient id="paint18_radial_20020_1063" cx="0" cy="0" r="1" gradientUnits="userSpaceOnUse" gradientTransform="translate(24.0992 14.7845) rotate(-122.405) scale(4.35412 1.78658)">
<stop offset="0.226927" stop-color="#B7751E"/>
<stop offset="1" stop-color="#FFDC51" stop-opacity="0"/>
</radialGradient>
<radialGradient id="paint19_radial_20020_1063" cx="0" cy="0" r="1" gradientUnits="userSpaceOnUse" gradientTransform="translate(22.6338 15.9235) rotate(53.1275) scale(1.80939 1.93281)">
<stop offset="0.128" stop-color="#FFC543"/>
<stop offset="1" stop-color="#FFC543" stop-opacity="0"/>
</radialGradient>
<radialGradient id="paint20_radial_20020_1063" cx="0" cy="0" r="1" gradientUnits="userSpaceOnUse" gradientTransform="translate(15.3351 15.375) rotate(146.452) scale(3.50589 9.38314)">
<stop offset="0.425307" stop-color="#F2A334" stop-opacity="0"/>
<stop offset="1" stop-color="#F2A334"/>
</radialGradient>
<radialGradient id="paint21_radial_20020_1063" cx="0" cy="0" r="1" gradientUnits="userSpaceOnUse" gradientTransform="translate(15.5146 14.1334) rotate(142.253) scale(6.66863 17.8479)">
<stop offset="0.624697" stop-color="#B15A0E" stop-opacity="0"/>
<stop offset="0.624797" stop-color="#805546" stop-opacity="0"/>
<stop offset="1" stop-color="#B15A0E"/>
</radialGradient>
<radialGradient id="paint22_radial_20020_1063" cx="0" cy="0" r="1" gradientUnits="userSpaceOnUse" gradientTransform="translate(12.0312 17.2589) rotate(-29.2318) scale(3.83063 24.2463)">
<stop offset="0.692182" stop-color="#FFC43F" stop-opacity="0"/>
<stop offset="1" stop-color="#A1431D"/>
</radialGradient>
<radialGradient id="paint23_radial_20020_1063" cx="0" cy="0" r="1" gradientUnits="userSpaceOnUse" gradientTransform="translate(12.8595 18.5361) rotate(55.3273) scale(5.06749 1.46059)">
<stop stop-color="#BC6108"/>
<stop offset="1" stop-color="#F7AE38" stop-opacity="0"/>
</radialGradient>
<linearGradient id="paint24_linear_20020_1063" x1="15.9938" y1="18.9893" x2="14.4601" y2="18.2187" gradientUnits="userSpaceOnUse">
<stop stop-color="#FFC33E"/>
<stop offset="1" stop-color="#FFC33E" stop-opacity="0"/>
</linearGradient>
<radialGradient id="paint25_radial_20020_1063" cx="0" cy="0" r="1" gradientUnits="userSpaceOnUse" gradientTransform="translate(12.1069 10.9837) rotate(83.1268) scale(2.30263 2.71948)">
<stop stop-color="#D69212"/>
<stop offset="1" stop-color="#D69212" stop-opacity="0"/>
</radialGradient>
<radialGradient id="paint26_radial_20020_1063" cx="0" cy="0" r="1" gradientUnits="userSpaceOnUse" gradientTransform="translate(13.5295 14.7799) rotate(61.6703) scale(6.21089 1.12318)">
<stop stop-color="#FFD462"/>
<stop offset="1" stop-color="#FFD462" stop-opacity="0"/>
</radialGradient>
<radialGradient id="paint27_radial_20020_1063" cx="0" cy="0" r="1" gradientUnits="userSpaceOnUse" gradientTransform="translate(11.8686 11.3533) rotate(84.6084) scale(1.36498 1.4414)">
<stop stop-color="#F2B92B"/>
<stop offset="1" stop-color="#F2B92B" stop-opacity="0"/>
</radialGradient>
<radialGradient id="paint28_radial_20020_1063" cx="0" cy="0" r="1" gradientUnits="userSpaceOnUse" gradientTransform="translate(15.9842 18.9) rotate(19.1197) scale(1.4518 1.01421)">
<stop stop-color="#FFC33E"/>
<stop offset="1" stop-color="#FFC33E" stop-opacity="0"/>
</radialGradient>
<radialGradient id="paint29_radial_20020_1063" cx="0" cy="0" r="1" gradientUnits="userSpaceOnUse" gradientTransform="translate(18.3067 12.2534) rotate(149.999) scale(4.32353 10.2337)">
<stop offset="0.655467" stop-color="#E4921E" stop-opacity="0"/>
<stop offset="1" stop-color="#E2932E"/>
</radialGradient>
<radialGradient id="paint30_radial_20020_1063" cx="0" cy="0" r="1" gradientUnits="userSpaceOnUse" gradientTransform="translate(14.8124 6.44646) rotate(83.5812) scale(2.51577 2.77818)">
<stop stop-color="#ECB931"/>
<stop offset="1" stop-color="#ECB931" stop-opacity="0"/>
</radialGradient>
<radialGradient id="paint31_radial_20020_1063" cx="0" cy="0" r="1" gradientUnits="userSpaceOnUse" gradientTransform="translate(16.3406 11.308) rotate(67.9209) scale(9.8892 1.34678)">
<stop offset="0.209895" stop-color="#FFD462"/>
<stop offset="1" stop-color="#FFD462" stop-opacity="0"/>
</radialGradient>
<radialGradient id="paint32_radial_20020_1063" cx="0" cy="0" r="1" gradientUnits="userSpaceOnUse" gradientTransform="translate(18.4113 11.9886) rotate(153.886) scale(1.29034 6.70503)">
<stop offset="0.374299" stop-color="#AD500F"/>
<stop offset="1" stop-color="#FFD461" stop-opacity="0"/>
</radialGradient>
<radialGradient id="paint33_radial_20020_1063" cx="0" cy="0" r="1" gradientUnits="userSpaceOnUse" gradientTransform="translate(14.3184 16.7834) rotate(-25.1617) scale(2.16901 8.3141)">
<stop offset="0.388454" stop-color="#AD500F"/>
<stop offset="0.995108" stop-color="#AD500F" stop-opacity="0"/>
</radialGradient>
<linearGradient id="paint34_linear_20020_1063" x1="17.3976" y1="16.9849" x2="16.1632" y2="15.0937" gradientUnits="userSpaceOnUse">
<stop stop-color="#FFC23E"/>
<stop offset="1" stop-color="#FFC23E" stop-opacity="0"/>
</linearGradient>
<radialGradient id="paint35_radial_20020_1063" cx="0" cy="0" r="1" gradientUnits="userSpaceOnUse" gradientTransform="translate(22.2102 5.23432) rotate(-44.7092) scale(2.17659 5.56895)">
<stop stop-color="#16579C"/>
<stop offset="0.743739" stop-color="#16579C" stop-opacity="0"/>
</radialGradient>
<radialGradient id="paint36_radial_20020_1063" cx="0" cy="0" r="1" gradientUnits="userSpaceOnUse" gradientTransform="translate(21.4707 6.06832) rotate(49.9384) scale(4.26914 2.87957)">
<stop offset="0.667349" stop-color="#154F8C"/>
<stop offset="1" stop-color="#154F8C" stop-opacity="0"/>
</radialGradient>
<radialGradient id="paint37_radial_20020_1063" cx="0" cy="0" r="1" gradientUnits="userSpaceOnUse" gradientTransform="translate(20.1956 6.94906) rotate(-43.9169) scale(2.31376 5.91598)">
<stop stop-color="#16579C"/>
<stop offset="0.861756" stop-color="#16579C" stop-opacity="0"/>
</radialGradient>
<radialGradient id="paint38_radial_20020_1063" cx="0" cy="0" r="1" gradientUnits="userSpaceOnUse" gradientTransform="translate(19.3278 7.86265) rotate(48.1522) scale(4.54407 3.07549)">
<stop offset="0.75121" stop-color="#154F8C"/>
<stop offset="1" stop-color="#154F8C" stop-opacity="0"/>
</radialGradient>
<linearGradient id="paint39_linear_20020_1063" x1="4.83517" y1="15.9609" x2="8.02267" y2="22.5937" gradientUnits="userSpaceOnUse">
<stop stop-color="#1679C5"/>
<stop offset="1" stop-color="#0D5194"/>
</linearGradient>
<radialGradient id="paint40_radial_20020_1063" cx="0" cy="0" r="1" gradientUnits="userSpaceOnUse" gradientTransform="translate(5.53829 18.5781) rotate(164.814) scale(2.26665 6.09358)">
<stop offset="0.705955" stop-color="#0E5196" stop-opacity="0"/>
<stop offset="1" stop-color="#0E5196"/>
</radialGradient>
<linearGradient id="paint41_linear_20020_1063" x1="2.87157" y1="17.8281" x2="6.61311" y2="25.9485" gradientUnits="userSpaceOnUse">
<stop offset="0.297941" stop-color="#1679C5"/>
<stop offset="1" stop-color="#0D5194"/>
</linearGradient>
<radialGradient id="paint42_radial_20020_1063" cx="0" cy="0" r="1" gradientUnits="userSpaceOnUse" gradientTransform="translate(3.54305 20.2654) rotate(165.175) scale(2.16099 5.68433)">
<stop offset="0.705955" stop-color="#0E5196" stop-opacity="0"/>
<stop offset="1" stop-color="#0E5196"/>
</radialGradient>
</defs>
</svg>
