<svg width="72" height="72" viewBox="0 0 72 72" fill="none" xmlns="http://www.w3.org/2000/svg">
<path d="M35.9061 61.875C35.9061 61.875 58.0306 54.3476 58.0306 26.7017V16.7503C58.0306 15.6595 57.1823 14.7842 56.1184 14.7169C52.1055 14.5149 42.5852 13.707 35.9061 10.125C29.2402 13.707 19.7063 14.5149 15.6934 14.7034C14.6296 14.7842 13.7812 15.6595 13.7812 16.7503V26.7017C13.7812 54.3476 35.9061 61.875 35.9061 61.875Z" fill="#00AEEF"/>
<path d="M44.847 30.3378C44.5779 27.3213 41.9923 26.2844 38.7065 25.9747L38.72 21.7598L36.175 21.7733L36.1885 25.8535C35.5152 25.8535 34.8013 25.8535 34.1148 25.867V21.7329L31.5428 21.7464L31.5563 25.9343C31.0039 25.9478 26.4121 25.9478 26.4121 25.9478V28.6275H29.6708L29.6576 42.0934L26.8026 42.1069L26.7757 45.1773C26.7757 45.1773 30.8155 45.1638 31.4081 45.1638L31.4216 49.4057L33.9531 49.4192L33.9801 45.2043C34.6804 45.2176 35.3534 45.2311 36.0135 45.2446L36 49.4192H38.5721L38.5586 45.2043C42.8406 44.9886 45.857 43.9249 46.2612 39.9121C46.5843 36.6667 45.076 35.2124 42.6387 34.6198C44.12 33.8658 45.0493 32.5461 44.847 30.3378ZM41.2248 39.36C41.1978 42.5246 35.8383 42.1339 34.1013 42.1204L34.0878 36.5053C35.8248 36.5185 41.2518 36.0609 41.2248 39.36ZM40.0936 31.4419C40.0666 34.3236 35.5959 33.96 34.1685 33.9465L34.155 28.8564C35.5824 28.8564 40.1071 28.439 40.0936 31.4419Z" fill="white"/>
</svg>
