<svg width="560" height="622" viewBox="0 0 560 622" fill="none" xmlns="http://www.w3.org/2000/svg">
<path fill-rule="evenodd" clip-rule="evenodd" d="M129.19 244.09L328.7 159.89C301.99 111.99 250.77 82.2401 191.7 107.35C132.63 132.46 124.18 189 129.19 244.09Z" fill="#313E92"/>
<path fill-rule="evenodd" clip-rule="evenodd" d="M436.61 137.38L132.14 266.73C136.91 284.326 143.1 301.506 150.65 318.1C179.41 379.67 232.27 417.22 293.28 422.44C322.5 424.94 353.6 420 384.81 406.75C433.81 385.94 466.15 351.12 479.33 297.19C484.623 269.441 487.239 241.249 487.14 213C487.14 173.91 487.79 134.34 487.79 82.8399C448.26 77.2399 397.66 73.8399 343.85 72.4199C378.71 83.0299 410.52 104.26 436.61 137.35V137.38ZM73.0002 220.72C88.7802 162.89 130 111.72 192.32 85.2799C204.497 80.0913 217.029 75.7803 229.82 72.3799C171.58 73.7899 115.88 77.3799 72.2402 82.8699C72.2402 130.87 72.8903 173.95 72.8903 212.87C72.8903 215.54 72.9402 218.14 73.0002 220.76V220.72ZM346.06 468.57C259.77 490.06 185.65 470.57 135.21 427.12C196.21 516.78 280 549.6 280 549.6C280 549.6 363.61 519.55 424.59 430.42C401.394 448.528 374.633 461.529 346.06 468.57Z" fill="#313E92"/>
</svg>
