<svg width="72" height="72" viewBox="0 0 72 72" fill="none" xmlns="http://www.w3.org/2000/svg">
<path fill-rule="evenodd" clip-rule="evenodd" d="M46.8746 16.8913C44.6445 17.2402 40.974 19.4836 39.4905 21.4048C39.4065 21.5131 38.9235 22.0811 38.4166 22.6668C37.5813 23.6329 36.7522 24.7183 36.7522 24.8467C36.7522 24.8744 37.2285 25.5479 37.8099 26.3431C38.2926 27.001 38.7714 27.6617 39.2461 28.3253C39.7034 28.9745 39.6108 28.9788 40.0924 28.2857C40.4241 27.7989 40.7675 27.3202 41.1225 26.85C41.3444 26.5526 41.5253 26.2891 41.5253 26.2643C41.5253 26.1794 43.0976 24.4481 43.6637 23.9102C44.2279 23.3737 45.4503 22.5518 45.9786 22.3532C47.6812 21.7141 49.1451 21.758 50.8768 22.5002C51.0725 22.5838 51.2553 22.6506 51.2825 22.6482C51.3097 22.6458 51.3541 22.6778 51.3809 22.7193C51.4076 22.7604 51.5551 22.8582 51.7083 22.9365C54.2151 24.2152 57.0537 28.795 58.1907 33.3968C58.5194 34.7092 58.7845 36.0367 58.9849 37.3747C59.7839 42.6643 59.1377 46.8551 57.3224 48.1539C57.2003 48.2412 57.0504 48.3601 56.9898 48.4178C56.47 48.9123 54.2366 48.9877 53.3598 48.54C53.24 48.4789 53.1245 48.4288 53.103 48.4288C53.0815 48.4283 52.9689 48.3395 52.8519 48.2312C52.735 48.1233 52.5942 48.0345 52.5383 48.0345C52.483 48.0345 52.4252 48.0045 52.4109 47.9682C52.3961 47.9314 52.199 47.7377 51.9722 47.5381C51.746 47.3381 51.5775 47.1577 51.598 47.1367C51.619 47.1162 51.4911 46.9845 51.314 46.8441C51.137 46.7038 50.9923 46.5582 50.9923 46.52C50.9923 46.4818 50.9117 46.363 50.8133 46.2556C50.5527 45.9721 50.4315 45.816 50.4348 45.7683C50.4434 45.6499 50.1613 45.3296 50.0482 45.3287C49.9489 45.3277 49.9427 45.3115 50.022 45.2618C50.0983 45.2131 50.0511 45.1392 49.843 44.9802C49.6874 44.8618 49.5604 44.7167 49.5604 44.658C49.5604 44.5993 49.5026 44.5292 49.4325 44.5024C49.3623 44.4752 49.3241 44.4031 49.3475 44.342C49.4076 44.1855 49.1389 43.953 49.0272 44.0647C48.9661 44.1258 48.9241 44.122 48.8807 44.0514C48.8392 43.9845 48.8525 43.9731 48.9217 44.016C48.9905 44.0585 49.011 44.0428 48.9838 43.9688C48.9618 43.9077 48.9084 43.8652 48.8654 43.8743C48.8225 43.8829 48.7972 43.8027 48.8086 43.6953C48.8206 43.5879 48.7981 43.5001 48.7585 43.5001C48.7194 43.5001 48.6917 43.5807 48.6979 43.6791C48.7041 43.7774 48.6363 44.0728 48.5475 44.3354C48.4587 44.5979 48.3628 44.9711 48.3337 45.1645C48.2263 45.8833 46.9982 48.1672 46.4273 48.7109C46.2894 48.8422 46.0731 49.0884 45.9471 49.2584C45.8206 49.4283 45.6154 49.6254 45.4913 49.6961C45.223 49.8483 45.2083 49.9104 45.4259 49.9677C45.5147 49.9906 45.582 50.0397 45.5753 50.076C45.5438 50.2569 45.5963 50.3233 45.7419 50.2851C45.8474 50.2574 45.9008 50.2827 45.9008 50.36C45.9008 50.57 46.1586 50.9977 46.3085 51.0373C46.3896 51.0583 46.4364 51.1075 46.4125 51.1461C46.3882 51.1848 46.4068 51.2168 46.4531 51.2168C46.4994 51.2168 46.5371 51.2712 46.5371 51.3375C46.5371 51.4044 46.6268 51.4994 46.7361 51.5495C46.8454 51.5991 46.9352 51.6822 46.9352 51.7337C46.9352 51.8215 47.7552 52.6182 47.7829 52.5571C47.79 52.5418 47.8731 52.6277 47.9676 52.748C48.0626 52.8683 48.1843 52.9666 48.2387 52.9666C48.2926 52.9666 48.442 53.0764 48.5704 53.2105C48.9198 53.5747 50.0835 54.2449 51.231 54.7422C51.5708 54.8897 52.3259 55.084 52.8615 55.1622C53.3865 55.2386 56.4432 55.2501 56.7993 55.1766C56.9525 55.1451 57.1855 55.0983 57.3167 55.073C58.1453 54.9121 59.8016 54.1943 60.0589 53.8845C60.1147 53.8172 60.1968 53.7623 60.2417 53.7623C60.7204 53.7623 62.5189 51.7065 63.3036 50.2622C63.6373 49.6474 64.3967 47.6498 64.3237 47.5773C64.3012 47.5548 64.3141 47.4785 64.3518 47.4073C64.4468 47.2298 64.812 45.2065 64.9065 44.3354C65.0998 42.5536 64.8721 37.0702 64.5585 35.9428C64.5399 35.8769 64.5027 35.6263 64.475 35.3858C64.443 35.1187 64.399 34.8532 64.3432 34.5901C64.2986 34.3922 64.259 34.1933 64.2244 33.9934C64.0468 32.8784 62.6874 28.6771 62.371 28.2657C62.3371 28.2222 62.2369 27.9893 62.1476 27.7488C61.6035 26.2786 59.7682 23.2773 58.6212 21.9814C55.0156 17.908 51.1331 16.226 46.8746 16.8913ZM32.7728 30.553C32.6807 30.7658 32.7227 30.7005 31.6211 32.3591C31.1399 33.0842 30.6206 33.8851 30.4679 34.139C30.3147 34.3934 29.8159 35.1624 29.36 35.8487C28.6307 36.9456 27.6723 38.4592 27.4117 38.926C27.363 39.0133 27.0279 39.5264 26.668 40.0663C26.3076 40.6066 26.0126 41.0577 26.0126 41.0696C26.0126 41.1283 24.9454 42.7015 24.1569 43.8046C23.7933 44.3125 23.4304 44.8208 23.0681 45.3296C22.9593 45.4828 22.85 45.626 22.8252 45.648C22.8003 45.6699 22.5335 45.974 22.2328 46.3243C19.5718 49.4197 16.4626 49.7643 14.6097 47.1692C14.3629 46.8231 13.9882 46.1086 14.0101 46.0251C14.013 46.0146 13.96 45.8628 13.8932 45.6876C13.7715 45.3716 13.5682 44.4232 13.4751 43.7387C13.4164 43.3106 13.4173 40.1503 13.476 39.8515C13.4985 39.736 13.5386 39.3914 13.5648 39.0849C13.6022 38.6191 13.6558 38.1547 13.7257 37.6926C13.7424 37.5833 13.7791 37.2611 13.8073 36.9766C13.8355 36.6922 13.8918 36.4187 13.9323 36.3685C13.9729 36.3184 14.0006 36.2468 13.9939 36.2096C13.9869 36.1738 13.9882 36.1369 13.9977 36.1017C14.0063 36.0798 14.0288 35.9724 14.0469 35.8631C14.1094 35.4884 14.139 35.3461 14.1552 35.3461C14.1796 35.3461 14.2326 35.0574 14.2541 34.8092C14.2646 34.6889 14.298 34.5901 14.328 34.5901C14.3586 34.5901 14.3634 34.5132 14.3385 34.4187C14.3109 34.3137 14.3247 34.2665 14.3743 34.297C14.424 34.328 14.4397 34.2674 14.4149 34.1385C14.3844 33.9786 14.4011 33.9433 14.486 33.9877C14.5471 34.0192 14.5342 33.9939 14.4579 33.9309C14.3204 33.8183 14.2593 33.6693 14.382 33.7452C14.4168 33.7667 14.4975 33.7476 14.561 33.7023C14.6555 33.6359 14.6507 33.6288 14.5376 33.6655C14.4607 33.6899 14.3982 33.677 14.3982 33.6369C14.3982 33.5467 14.0841 33.4951 13.213 33.4431C12.3744 33.393 10.1134 33.0422 9.25229 32.8288C8.61508 32.6708 8.21605 32.6842 8.3244 32.8593C8.35972 32.9166 8.32965 32.9281 8.23657 32.8923C8.12345 32.8488 8.10293 32.8698 8.13538 32.9944C8.15782 33.0803 8.14875 33.1615 8.11581 33.1744C8.0824 33.1873 8.02847 33.2832 7.99649 33.3872C7.95878 33.508 7.96641 33.5581 8.01796 33.5261C8.06665 33.4961 8.0824 33.5395 8.05758 33.6345C8.03467 33.7218 7.99171 33.7782 7.96212 33.7596C7.933 33.7414 7.90055 33.8044 7.891 33.8999C7.87095 34.0965 7.81367 34.3915 7.79554 34.3915C7.7836 34.3915 7.75449 34.508 7.67621 34.8688C7.65712 34.9562 7.62275 35.1528 7.59984 35.306C7.57693 35.4593 7.50438 35.8712 7.43851 36.2211C7.25522 37.1933 7.24424 37.2802 7.19365 38.0907C7.16787 38.5064 7.13016 38.936 7.11059 39.0453C7.01036 39.598 6.98554 43.1378 7.07575 44.0571C7.25235 45.8618 7.24663 45.8231 7.51154 46.9453C8.50721 51.159 11.153 54.052 14.9199 55.0458C15.6679 55.2429 18.6668 55.3226 19.5689 55.1689C22.0791 54.7422 24.5578 53.011 26.888 50.0555C27.4045 49.4011 28.3992 48.0236 28.3992 47.9634C28.3992 47.9224 28.4293 47.8765 28.4656 47.8622C28.5515 47.8279 29.9906 45.6508 29.9906 45.5554C29.9906 45.5148 30.0273 45.4389 30.0722 45.3859C30.1171 45.3334 30.2545 45.1291 30.3777 44.932C30.5008 44.7349 30.7505 44.3416 30.9328 44.0576C31.1146 43.7736 31.2631 43.4991 31.2631 43.4476C31.2631 43.3965 31.2941 43.3421 31.3318 43.3278C31.3691 43.313 31.5261 43.0686 31.6798 42.7841C32.1428 41.9272 32.621 41.0785 33.1141 40.2386C33.3065 39.9102 33.4878 39.588 33.5174 39.5226C33.5794 39.4002 33.6471 39.2807 33.7203 39.1646C33.8831 38.9031 35.1613 36.6425 35.1613 36.6158C35.1613 36.6067 35.3584 36.2712 35.599 35.8702C36.178 34.9051 36.3197 35.3075 34.3441 32.3033C33.0864 30.3902 32.9222 30.2074 32.7728 30.553ZM45.8035 50.0898C45.8598 50.2583 45.7047 50.181 45.5452 49.961L45.3882 49.7448L45.5806 49.8712C45.686 49.9404 45.7868 50.0388 45.8035 50.0898Z" fill="#0479F2"/>
<path fill-rule="evenodd" clip-rule="evenodd" d="M21.8361 16.8894C20.2066 17.1109 18.0119 18.0693 16.5065 19.2168C14.9963 20.368 12.6016 22.9431 11.9629 24.1025C11.9066 24.2047 11.5964 24.7359 11.2732 25.2824C10.6708 26.302 10.2121 27.1764 10.0207 27.669C9.96108 27.8222 9.89091 27.9654 9.86419 27.9874C9.70619 28.1167 8.09336 32.7428 8.16543 32.8593C8.18595 32.8927 8.23846 32.9194 8.28189 32.9194C8.32581 32.9194 8.34108 32.8865 8.31578 32.8459C8.21555 32.6832 8.63511 32.6755 9.25227 32.8288C10.1133 33.0421 12.3744 33.3929 13.213 33.4431C14.2822 33.507 14.4144 33.539 14.3571 33.7194C14.3299 33.8044 14.3438 33.8741 14.3872 33.8741C14.4387 33.8741 14.4407 33.9643 14.3925 34.1323C14.3519 34.2741 14.3185 34.4235 14.3185 34.4636C14.3185 34.5614 14.424 34.4526 14.4488 34.3294C14.5142 34.0053 14.5547 33.8631 14.6058 33.781C14.6449 33.717 14.6158 33.7046 14.5108 33.7414C14.3629 33.7934 14.3633 33.7915 14.5127 33.6755C14.5977 33.6096 14.6383 33.5562 14.6029 33.5562C14.5676 33.5562 14.5977 33.4665 14.6693 33.3571C14.7409 33.2478 14.7719 33.1576 14.738 33.1572C14.7041 33.1562 14.7165 33.1295 14.7652 33.0975C14.9051 33.0054 14.9977 32.6479 14.864 32.7166C14.8048 32.7471 14.8182 32.7214 14.8941 32.6593C14.97 32.5968 15.0449 32.4779 15.0607 32.3949C15.0931 32.2617 15.1362 32.1313 15.1896 32.0049C15.2445 31.8737 15.2974 31.7305 15.3079 31.6866C15.3361 31.5658 15.5146 31.1582 15.6564 30.8909C15.7261 30.7596 15.7714 30.6522 15.7571 30.6522C15.7103 30.6522 16.6291 28.6871 16.7055 28.6236C16.7318 28.6017 16.8707 28.3735 17.0139 28.1163C17.1575 27.859 17.3437 27.575 17.4277 27.4848C17.5117 27.3946 17.5804 27.2757 17.5804 27.2208C17.5804 27.1654 17.6272 27.0915 17.685 27.0566C17.7427 27.0218 17.989 26.7244 18.2324 26.3965C18.7661 25.6772 19.7775 24.6462 19.9493 24.6462C19.9751 24.6462 20.1598 24.5106 20.3593 24.345C21.4996 23.3995 23.4032 22.9799 24.9363 23.3364C25.1783 23.3928 25.3764 23.4195 25.3764 23.3961C25.3764 23.3727 25.4212 23.3894 25.4756 23.4329C25.5305 23.4763 25.7186 23.5565 25.8933 23.6114C26.0685 23.6663 26.3281 23.7808 26.4704 23.8667C26.6126 23.9527 26.7286 24.0004 26.7286 23.9732C26.7286 23.9465 26.8069 23.997 26.9028 24.0863C26.9988 24.1756 27.1119 24.2486 27.1544 24.2486C27.2761 24.2486 28.3515 25.0815 28.9309 25.6247C29.6941 26.3397 29.8378 26.4867 30.1901 26.9153C30.3648 27.1277 30.5705 27.3664 30.6473 27.4461C30.7805 27.584 30.9027 27.7373 31.959 29.0909C32.211 29.4131 32.4926 29.8069 32.5852 29.9658C32.6778 30.1248 32.832 30.2904 32.9275 30.3343C33.2224 30.4694 36.0362 34.8134 36.0362 35.1342C36.0362 35.2287 36.072 35.306 36.1159 35.306C36.1598 35.306 36.1956 35.3509 36.1956 35.4058C36.1956 35.4602 36.3751 35.7738 36.5946 36.1017C36.8137 36.4301 37.071 36.8592 37.1655 37.0563C37.2605 37.2534 37.3622 37.4324 37.3922 37.4539C37.4218 37.4759 37.5092 37.6191 37.586 37.7723C37.6633 37.9255 37.7707 38.1045 37.8256 38.1699C37.88 38.2358 38.0142 38.4505 38.1235 38.6472C38.3238 38.996 38.531 39.3409 38.7449 39.6815C39.1497 40.3288 39.5234 40.9722 39.6924 41.3125C39.7363 41.3999 39.8891 41.659 40.0323 41.8882C40.1754 42.1173 40.7382 43.048 41.2833 43.9564C42.2031 45.489 43.3811 47.3057 43.5152 47.3983C43.5472 47.4197 43.6928 47.6345 43.8388 47.8756C44.2326 48.5233 44.6331 49.0688 44.7152 49.0688C44.7548 49.0688 44.7791 49.0956 44.7691 49.1285C44.7596 49.161 44.8612 49.3376 44.9953 49.5209L45.2397 49.8535L45.4813 49.7065C45.6144 49.6259 45.8254 49.4221 45.95 49.2545C46.0745 49.0865 46.2893 48.8421 46.4273 48.7109C46.9981 48.1672 48.2263 45.8833 48.3337 45.1644C48.3628 44.9711 48.4587 44.5979 48.5475 44.3353C48.6363 44.0728 48.7041 43.7774 48.6979 43.679C48.6917 43.5807 48.7193 43.5 48.7585 43.5C48.7981 43.5 48.8205 43.5879 48.8086 43.6953C48.7971 43.8027 48.8224 43.8828 48.8654 43.8743C48.9084 43.8652 48.9618 43.9077 48.9838 43.9688C49.011 44.0427 48.9905 44.0585 48.9217 44.016C48.8535 43.9735 48.8391 43.9845 48.8788 44.0485C48.9203 44.1158 48.9675 44.1196 49.0377 44.0614C49.0926 44.016 49.1604 44.0017 49.1885 44.0299C49.2167 44.058 49.1776 44.1282 49.1017 44.1859C49.0248 44.2442 49.0057 44.2914 49.0582 44.2929C49.0868 44.292 49.1147 44.2845 49.1398 44.2709C49.165 44.2573 49.1865 44.238 49.2029 44.2146C49.217 44.193 49.2391 44.178 49.2643 44.1727C49.2896 44.1674 49.3159 44.1723 49.3375 44.1864C49.4554 44.259 48.811 43.3191 48.6539 43.1888C48.5833 43.1306 48.526 43.049 48.526 43.0075C48.526 42.9659 48.4186 42.776 48.2874 42.585C48.1561 42.3946 48.0487 42.2017 48.0487 42.1574C48.0487 42.1125 48.0038 42.0476 47.9494 42.0123C47.8945 41.9774 47.7676 41.7846 47.6669 41.5841C47.5662 41.3836 47.3805 41.1063 47.2535 40.9679C47.127 40.829 47.0421 40.7159 47.064 40.7159C47.0865 40.7159 47.0311 40.6118 46.9404 40.4849C46.8497 40.3574 46.7757 40.2161 46.7757 40.1703C46.7757 40.1245 46.7294 40.0586 46.6721 40.0238C46.6149 39.9884 46.4989 39.8223 46.4134 39.6539C46.1242 39.0816 46.1018 39.0453 46.0411 39.0453C46.0077 39.0453 45.9805 38.9913 45.9805 38.926C45.9805 38.8601 45.9423 38.8066 45.896 38.8066C45.8497 38.8066 45.8316 38.7742 45.8559 38.735C45.8803 38.6959 45.8116 38.5794 45.7032 38.4763C45.5944 38.3737 45.5051 38.2348 45.5046 38.1685C45.5037 38.1016 45.3777 37.8568 45.2245 37.6243C45.0712 37.3919 44.9462 37.1709 44.9462 37.1327C44.9462 37.095 44.8994 37.0358 44.8426 37.0005C44.7853 36.9656 44.6765 36.8115 44.6001 36.6587C44.3925 36.2425 43.9844 35.5914 43.8961 35.5361C43.8536 35.5093 43.8307 35.4735 43.845 35.4564C43.8598 35.4392 43.7844 35.2821 43.6775 35.1075C43.571 34.9323 43.4813 34.7709 43.478 34.7495C43.4746 34.7275 43.4374 34.6559 43.3949 34.59C43.352 34.5247 43.2632 34.3786 43.1968 34.2659C43.131 34.1528 42.8689 33.7232 42.615 33.3113C42.4281 33.0091 42.2424 32.7062 42.058 32.4025C42.0059 32.3152 41.941 32.2254 41.9143 32.2035C41.8871 32.1815 41.7458 31.9491 41.6002 31.6866C41.4542 31.424 41.2909 31.182 41.2375 31.1491C41.1835 31.1157 41.0986 30.9639 41.048 30.8107C40.9974 30.6579 40.9234 30.5329 40.8828 30.5329C40.8427 30.5329 40.8088 30.4885 40.8084 30.4336C40.8079 30.3787 40.7368 30.2446 40.6504 30.1353C40.2571 29.636 39.7821 28.8356 39.8313 28.7539C39.8614 28.7033 39.8289 28.7091 39.7578 28.7668C39.6466 28.857 39.5807 28.8007 39.249 28.3296C38.7735 27.6644 38.2938 27.0022 37.8099 26.343C37.2285 25.5478 36.7522 24.8433 36.7522 24.7775C36.7522 24.7116 36.7078 24.6104 36.6529 24.5526C36.5447 24.4288 36.4413 24.3008 36.3431 24.1689C36.1406 23.9153 35.9282 23.6698 35.7064 23.4329C35.4536 23.1605 35.2055 22.8838 34.9622 22.6028C34.3947 21.9379 32.6497 20.2645 32.0191 19.7809C31.8879 19.6798 31.7685 19.57 31.7537 19.5361C31.7389 19.5022 31.6941 19.4946 31.654 19.5194C31.6144 19.5442 31.5814 19.5313 31.5814 19.4912C31.5814 19.4268 30.7633 18.8387 30.6736 18.8387C30.654 18.8387 30.4182 18.6927 30.1495 18.5142C29.6927 18.2111 28.4484 17.5882 28.1667 17.5223C28.098 17.5061 27.8088 17.4058 27.5243 17.2994C26.6646 16.9786 25.7921 16.8579 24.0241 16.8149C23.1106 16.793 22.3583 16.8187 21.8361 16.8894ZM13.8722 36.4539C13.8483 36.5165 13.8421 36.6506 13.8583 36.7523C13.8803 36.8883 13.8984 36.8582 13.928 36.6387C13.97 36.3298 13.9481 36.2568 13.8722 36.4539ZM49.3217 44.3778C49.3217 44.4227 49.3752 44.4804 49.441 44.5053C49.5064 44.5306 49.5604 44.5955 49.5604 44.6499C49.5604 44.7578 49.8114 45.0117 49.9183 45.0117C49.9556 45.0117 49.9121 44.931 49.8229 44.8327C49.7251 44.7229 49.6395 44.6029 49.5675 44.4747C49.4725 44.2909 49.3217 44.2313 49.3217 44.3778ZM51.557 47.1792C51.5756 47.1901 51.7517 47.3424 51.9479 47.5176L52.3049 47.8355L51.9904 47.4975C51.8171 47.3114 51.6414 47.1596 51.599 47.1596C51.557 47.1596 51.5379 47.1682 51.557 47.1792ZM45.4583 49.8564C45.4879 49.9046 45.4722 49.9438 45.4235 49.9438C45.3748 49.9438 45.3567 49.9796 45.3839 50.0235C45.4555 50.1395 45.6011 50.1208 45.5414 50.0034C45.5137 49.9485 45.5471 49.9729 45.6159 50.0574C45.6841 50.1414 45.7619 50.1886 45.7886 50.1619C45.8574 50.0932 45.761 49.9595 45.5686 49.8569C45.4497 49.7929 45.4192 49.7929 45.4583 49.8564ZM45.6622 50.3414C45.6622 50.3853 45.6922 50.4211 45.729 50.4211C45.7657 50.4211 45.8388 50.5151 45.8908 50.6301C45.9433 50.7452 46.0096 50.8163 46.0378 50.7881C46.066 50.76 46.0469 50.6941 45.9948 50.6425C45.9376 50.5764 45.9044 50.4928 45.9008 50.4053C45.9008 50.3266 45.8469 50.2621 45.7815 50.2621C45.7156 50.2621 45.6622 50.2979 45.6622 50.3414Z" fill="#0564DC"/>
</svg>
